SplineFontDB: 3.0
FontName: KeterAramTsova
FullName: Keter Aram Tsova
FamilyName: Keter Aram Tsova
Weight: Demi-Bold
Copyright: Copyright 2009 by Yoram Gnat (yoram.gnat@gmail.com)\nDistributed under the terms of GNU General Public License version 2(http://www.gnu.org/licenses/gpl.html). \n\nHebrew OpenType Layout logic copyright (c) 2003 & 2007, Ralph Hancock & John Hudson. This layout logic for Biblical Hebrew is open source software under the MIT License; for details  contact copyright holders at <license@tiro.com>.\n\nAs a special exception, if you create a document which uses this font, and embed this font or unaltered portions of this font into the document, this font does not by itself cause the resulting document to be covered by the GNU General Public License. This exception does not however invalidate any other reasons why the document might be covered by the GNU General Public License. If you modify this font, you may extend this exception to your version of the font, but you are not obligated to do so. If you do not wish to do so, delete this exception statement from your version.
Version: 0.103yg
ItalicAngle: 0
UnderlinePosition: -170
UnderlineWidth: 70
Ascent: 1638
Descent: 410
LayerCount: 2
Layer: 0 0 "Back"  1
Layer: 1 0 "Fore"  0
NeedsXUIDChange: 1
XUID: [1021 594 1227166039 954430]
FSType: 0
OS2Version: 0
OS2_WeightWidthSlopeOnly: 0
OS2_UseTypoMetrics: 0
CreationTime: 1244295734
ModificationTime: 1285255418
PfmFamily: 17
TTFWeight: 600
TTFWidth: 5
LineGap: 184
VLineGap: 0
Panose: 2 0 0 0 0 0 0 0 0 0
OS2TypoAscent: 0
OS2TypoAOffset: 1
OS2TypoDescent: 0
OS2TypoDOffset: 1
OS2TypoLinegap: 184
OS2WinAscent: 1900
OS2WinAOffset: 0
OS2WinDescent: 900
OS2WinDOffset: 0
HheadAscent: 0
HheadAOffset: 1
HheadDescent: 0
HheadDOffset: 1
OS2SubXSize: 1433
OS2SubYSize: 1331
OS2SubXOff: 0
OS2SubYOff: 286
OS2SupXSize: 1433
OS2SupYSize: 1331
OS2SupXOff: 0
OS2SupYOff: 976
OS2StrikeYSize: 102
OS2StrikeYPos: 512
OS2Vendor: 'YGNT'
OS2CodePages: 00000021.00000000

StartChar: .null
Encoding: 0 -1 0
AltUni2: 000000.ffffffff.0 000000.ffffffff.0 000000.ffffffff.0 000000.ffffffff.0 000000.ffffffff.0 000000.ffffffff.0 000000.ffffffff.0 000000.ffffffff.0 000000.ffffffff.0 000000.ffffffff.0 000000.ffffffff.0 000000.ffffffff.0 000000.ffffffff.0 000000.ffffffff.0 000000.ffffffff.0 000000.ffffffff.0 000000.ffffffff.0 000000.ffffffff.0 000000.ffffffff.0
Width: 1099
GlyphClass: 2
Flags: W
HStem: 0 98<77 970> 1088 106<393 569.728> 1313 99<77 970>
VStem: -30 107<98 1313> 246 110<984 1018.13> 455 106<582 668> 662 110<844.183 996.992> 970 107<98 1313>
LayerCount: 2
Fore
SplineSet
426 348 m 1
 466 413 494 425 532 445 c 1
 549 411 578 367 614 333 c 1
 576 309 544 280 507 240 c 1
 467 271 435 313 426 348 c 1
249 887 m 17
 247 894 246 902 246 909 c 0
 246 983 314 1065 432 1153 c 1
 479 1182 507 1194 559 1194 c 27
 675 1194 772 1101 772 984 c 17
 772 843 658 766 561 693 c 9
 561 582 l 25
 455 476 l 25
 455 668 l 25
 555 779 l 25
 590 786 608 787 644 798 c 1
 656 814 655 840 662 872 c 9
 662 996 551 1088 427 1088 c 17
 359 1075 356 1036 356 984 c 9
 249 887 l 17
970 98 m 1
 970 1313 l 1
 77 1313 l 1
 77 98 l 1
 970 98 l 1
1077 1412 m 1
 1077 0 l 1
 -30 0 l 1
 -30 1412 l 1
 1077 1412 l 1
EndSplineSet
Validated: 1
EndChar

StartChar: dotnosp
Encoding: 775 775 2
Width: 0
GlyphClass: 4
Flags: W
HStem: 1308 217<-77.6217 77.1655>
VStem: -95 190<1324.23 1508.77>
AnchorPoint: "A-1" 0 0 mark 0
LayerCount: 2
Fore
SplineSet
0 1308 m 256
 -53 1308 -95 1352 -95 1416 c 256
 -95 1480 -53 1525 0 1525 c 256
 56 1525 95 1477 95 1417 c 0
 95 1353 53 1308 0 1308 c 256
EndSplineSet
Validated: 1
LCarets2: 1 0 
EndChar

StartChar: dieresisnosp
Encoding: 776 776 3
Width: 0
GlyphClass: 4
Flags: W
HStem: 1310 213<-296.526 -143.767 143.474 296.233>
VStem: -314 188<1326.14 1507.41> 126 188<1326.14 1507.41>
AnchorPoint: "A-1" 0 0 mark 0
LayerCount: 2
Fore
SplineSet
-220 1310 m 256
 -276 1310 -314 1359 -314 1417 c 256
 -314 1480 -272 1523 -220 1523 c 256
 -165 1523 -126 1476 -126 1417 c 256
 -126 1355 -168 1310 -220 1310 c 256
220 1310 m 256
 164 1310 126 1359 126 1417 c 256
 126 1480 168 1523 220 1523 c 256
 275 1523 314 1476 314 1417 c 256
 314 1355 272 1310 220 1310 c 256
EndSplineSet
Validated: 1
EndChar

StartChar: ringnosp
Encoding: 778 778 4
Width: 0
GlyphClass: 4
Flags: W
HStem: 1234 66<-72.8907 71.8046> 1533 66<-72.0641 72.3538>
VStem: -163 62<1330.39 1502.39> 100 63<1329.95 1505.04>
AnchorPoint: "A-1" -0.439453 0 mark 0
LayerCount: 2
Fore
SplineSet
0 1234 m 0
 -102 1234 -163 1321 -163 1416 c 256
 -163 1514 -100 1599 0 1599 c 256
 94 1599 163 1521 163 1416 c 0
 163 1319 98 1234 0 1234 c 0
0 1533 m 256
 -68 1533 -101 1476 -101 1416 c 0
 -101 1360 -70 1300 0 1300 c 256
 70 1300 100 1360 100 1416 c 0
 100 1477 68 1533 0 1533 c 256
EndSplineSet
Validated: 1
EndChar

StartChar: atnah
Encoding: 1425 1425 6
Width: 0
GlyphClass: 4
Flags: W
HStem: -641 475
VStem: -163 110<-641 -425.499> -42 84<-322.543 -166> 54 109<-641 -426.636>
AnchorPoint: "A-42" -197.96 0 mark 0
AnchorPoint: "A-54" -343.16 0 basemark 0
AnchorPoint: "A-53" -395.96 0 basemark 0
AnchorPoint: "A-52" -395.96 0 basemark 0
AnchorPoint: "A-51" -395.96 0 basemark 0
AnchorPoint: "A-52" 0.0400391 0 mark 0
AnchorPoint: "A-50" -395.96 0 basemark 0
AnchorPoint: "A-49" -307.96 0 basemark 0
AnchorPoint: "A-44" 52.8398 0 mark 0
AnchorPoint: "A-40" 0.0400391 0 mark 0
LayerCount: 2
Fore
SplineSet
42 -166 m 1
 42 -299 l 1
 134 -344 163 -424 163 -509 c 0
 163 -552 161 -597 157 -641 c 9
 48 -641 l 17
 53 -605 54 -572 54 -544 c 0
 54 -473 38 -424 0 -424 c 1
 -38 -424 -53 -476 -53 -548 c 0
 -53 -576 -53 -606 -48 -641 c 9
 -157 -641 l 17
 -163 -594 -163 -554 -163 -511 c 0
 -163 -426 -133 -345 -42 -300 c 9
 -42 -166 l 17
 42 -166 l 1
EndSplineSet
Validated: 1
LCarets2: 1 0 
MultipleSubs2: "Add hairspace after last low mark subtable" atnah hairspace
MultipleSubs2: "Add thinspace before narrow letter subtable" atnah thinspace
MultipleSubs2: "Add hairspace before low marked Qof" atnah hairspace
EndChar

StartChar: segolta
Encoding: 1426 1426 7
Width: 0
GlyphClass: 4
Flags: W
HStem: 1231 214<-181.553 -41.1086 41.1086 181.553> 1483 199<-67.4298 66.9238>
VStem: -197 171<1243.53 1432.47> -78 157<1491.88 1674.39> 26 171<1243.53 1432.47>
AnchorPoint: "A-55" -132 0 mark 0
AnchorPoint: "A-36" 0 0 mark 0
AnchorPoint: "A-35" 0 0 mark 0
AnchorPoint: "A-57" -440 0 basemark 0
AnchorPoint: "A-56" 0 0 basemark 0
AnchorPoint: "A-57" 0 0 mark 0
AnchorPoint: "A-25" 0 0 mark 0
LayerCount: 2
Fore
SplineSet
-111 1231 m 0xe0
 -161 1231 -197 1277 -197 1338 c 0
 -197 1400 -160 1445 -111 1445 c 0
 -62 1445 -26 1399 -26 1338 c 0
 -26 1276 -62 1231 -111 1231 c 0xe0
0 1483 m 0
 -50 1483 -78 1522 -78 1583 c 0
 -78 1645 -49 1682 0 1682 c 0
 50 1682 79 1648 79 1587 c 0xd0
 79 1525 49 1483 0 1483 c 0
111 1231 m 0
 62 1231 26 1277 26 1338 c 0
 26 1400 62 1445 111 1445 c 0
 161 1445 197 1399 197 1338 c 0xc8
 197 1276 160 1231 111 1231 c 0
EndSplineSet
Validated: 1
LCarets2: 1 0 
EndChar

StartChar: shalshelet
Encoding: 1427 1427 8
Width: 0
GlyphClass: 4
Flags: W
HStem: 1233 499
VStem: -178 356
AnchorPoint: "A-55" -1.24023 0 mark 0
AnchorPoint: "A-57" -441.24 0 basemark 0
AnchorPoint: "A-56" -1.24023 0 basemark 0
AnchorPoint: "A-57" -1.24023 0 mark 0
AnchorPoint: "A-23" -1.24023 0 mark 0
LayerCount: 2
Fore
SplineSet
146 1526 m 1
 19 1439 l 1
 149 1353 l 1
 -18 1233 l 1
 -178 1233 l 1
 -13 1351 l 1
 -146 1439 l 1
 -18 1526 l 1
 -147 1612 l 1
 19 1732 l 1
 178 1732 l 1
 14 1612 l 1
 146 1526 l 1
EndSplineSet
Validated: 1
LCarets2: 1 0 
EndChar

StartChar: zaqefqatan
Encoding: 1428 1428 9
Width: 0
GlyphClass: 4
Flags: W
HStem: 1232 214<-70.5529 70.5529> 1486 214<-70.5529 70.5529>
VStem: -86 172<1244.53 1433.47 1498.53 1687.47>
AnchorPoint: "A-55" 0 0 mark 0
AnchorPoint: "A-57" -440 0 basemark 0
AnchorPoint: "A-56" 0 0 basemark 0
AnchorPoint: "A-57" 0 0 mark 0
AnchorPoint: "A-23" 0 0 mark 0
LayerCount: 2
Fore
SplineSet
0 1232 m 0
 -50 1232 -86 1278 -86 1339 c 0
 -86 1401 -49 1446 0 1446 c 0
 50 1446 86 1400 86 1339 c 0
 86 1277 49 1232 0 1232 c 0
0 1486 m 0
 -50 1486 -86 1532 -86 1593 c 0
 -86 1655 -49 1700 0 1700 c 0
 50 1700 86 1654 86 1593 c 0
 86 1531 49 1486 0 1486 c 0
EndSplineSet
Validated: 1
LCarets2: 1 0 
EndChar

StartChar: zaqefgadol
Encoding: 1429 1429 10
Width: 0
GlyphClass: 4
Flags: W
HStem: 1231 214<-3.61246 136.553> 1485 214<-3.61246 136.553>
VStem: -152 109<1246 1694> -19 171<1243.53 1432.47 1497.53 1686.47>
AnchorPoint: "A-55" -81.2402 0 mark 0
AnchorPoint: "A-57" -459.64 0 basemark 0
AnchorPoint: "A-56" -19.6396 0 basemark 0
AnchorPoint: "A-57" -19.6396 0 mark 0
AnchorPoint: "A-23" -19.6396 0 mark 0
LayerCount: 2
Fore
SplineSet
66 1231 m 0
 16 1231 -19 1277 -19 1338 c 0
 -19 1400 18 1445 66 1445 c 0
 115 1445 152 1399 152 1338 c 0
 152 1276 115 1231 66 1231 c 0
66 1485 m 0
 16 1485 -19 1531 -19 1592 c 0
 -19 1654 18 1699 66 1699 c 0
 115 1699 152 1653 152 1592 c 0
 152 1530 115 1485 66 1485 c 0
-43 1246 m 1
 -152 1246 l 1
 -152 1694 l 1
 -43 1694 l 1
 -43 1246 l 1
EndSplineSet
Validated: 1
LCarets2: 1 -2 
EndChar

StartChar: tipeha
Encoding: 1430 1430 11
Width: 0
GlyphClass: 4
Flags: W
HStem: -593 466
VStem: -102 110<-432.449 -142.741>
AnchorPoint: "A-42" -242.44 0 mark 0
AnchorPoint: "A-54" -273.24 0 basemark 0
AnchorPoint: "A-53" -326.04 0 basemark 0
AnchorPoint: "A-52" -326.04 0 basemark 0
AnchorPoint: "A-51" -326.04 0 basemark 0
AnchorPoint: "A-51" -44.4395 0 mark 0
AnchorPoint: "A-50" -343.64 0 basemark 0
AnchorPoint: "A-49" -264.44 0 basemark 0
AnchorPoint: "A-43" -44.4395 0 mark 0
AnchorPoint: "A-40" -44.4395 0 mark 0
LayerCount: 2
Fore
SplineSet
0 -127 m 1
 19 -154 l 1
 14 -224 8 -311 8 -328 c 0
 8 -416 42 -434 102 -457 c 1
 102 -593 l 1
 78 -586 l 1
 -29 -559 -102 -479 -102 -325 c 0
 -102 -255 -94 -167 -93 -149 c 1
 -90 -127 l 1
 0 -127 l 1
EndSplineSet
Validated: 1
LCarets2: 1 -4 
MultipleSubs2: "Add hairspace after last low mark subtable" tipeha hairspace
MultipleSubs2: "Add thinspace before narrow letter subtable" tipeha thinspace
MultipleSubs2: "Add hairspace before low marked Qof" tipeha hairspace
EndChar

StartChar: revia
Encoding: 1431 1431 12
Width: 0
GlyphClass: 4
Flags: W
HStem: 1232 365
VStem: -123 246
AnchorPoint: "A-55" 4.36035 0 mark 0
AnchorPoint: "A-57" -435.64 0 basemark 0
AnchorPoint: "A-56" 4.36035 0 basemark 0
AnchorPoint: "A-57" 4.36035 0 mark 0
AnchorPoint: "A-23" 4.36035 0 mark 0
LayerCount: 2
Fore
SplineSet
-5 1597 m 1
 123 1410 l 1
 5 1232 l 1
 -123 1412 l 1
 -5 1597 l 1
EndSplineSet
Validated: 1
LCarets2: 1 0 
EndChar

StartChar: zarqa
Encoding: 1432 1432 13
Width: 0
GlyphClass: 4
Flags: W
HStem: 1231 130<56.817 124.614> 1429 128<-124.854 -56.4183>
VStem: -232 107<1305.58 1428.14> 125 107<1362.76 1483.41>
AnchorPoint: "A-55" -125.6 0 mark 0
AnchorPoint: "A-57" -433.6 0 basemark 0
AnchorPoint: "A-56" 6.40039 0 basemark 0
AnchorPoint: "A-57" 6.40039 0 mark 0
AnchorPoint: "A-31" 6.40039 0 mark 0
LayerCount: 2
Fore
SplineSet
-125 1388 m 0
 -125 1360 -102 1351 -82 1342 c 1
 -82 1204 l 1
 -107 1213 l 2
 -178 1239 -232 1307 -232 1387 c 0
 -232 1487 -171 1557 -98 1557 c 0
 -29 1557 10 1505 43 1433 c 2
 58 1402 l 1
 78 1366 86 1361 96 1361 c 0
 112 1361 125 1377 125 1401 c 0
 125 1429 104 1438 86 1447 c 1
 86 1587 l 1
 111 1577 l 2
 158 1560 232 1501 232 1402 c 0
 232 1297 167 1231 99 1231 c 0
 17 1231 -19 1307 -42 1356 c 2
 -57 1386 l 2
 -76 1427 -90 1429 -96 1429 c 0
 -112 1429 -125 1413 -125 1388 c 0
EndSplineSet
Validated: 1
LCarets2: 1 0 
EndChar

StartChar: pashta
Encoding: 1433 1433 14
Width: 0
GlyphClass: 4
Flags: W
HStem: 1231 417
VStem: -8 110<1231 1487.45>
AnchorPoint: "A-34" 337.48 0 mark 0
AnchorPoint: "A-29" 319.88 0 mark 0
LayerCount: 2
Fore
SplineSet
-8 1383 m 0
 -8 1470 -42 1489 -102 1512 c 1
 -102 1648 l 1
 -78 1641 l 2
 29 1614 102 1534 102 1380 c 0
 102 1310 98 1271 96 1253 c 2
 93 1231 l 1
 3 1231 l 1
 -18 1231 l 1
 -16 1258 l 1
 -11 1328 -8 1366 -8 1383 c 0
EndSplineSet
Validated: 1
LCarets2: 1 30 
EndChar

StartChar: yetiv
Encoding: 1434 1434 15
Width: 0
GlyphClass: 4
Flags: W
HStem: -597 486
VStem: -161 322
AnchorPoint: "A-69" -295 0 mark 0
AnchorPoint: "A-68" -400.6 0 mark 0
AnchorPoint: "A-67" -497.4 0 mark 0
AnchorPoint: "A-66" -347.8 0 mark 0
AnchorPoint: "A-65" -462.2 0 mark 0
AnchorPoint: "A-64" -576.6 0 mark 0
AnchorPoint: "A-47" -409.4 0 mark 0
AnchorPoint: "A-41" -427 0 mark 0
LayerCount: 2
Fore
SplineSet
161 -485 m 1
 89 -597 l 1
 -161 -354 l 1
 89 -111 l 1
 161 -223 l 1
 14 -351 l 1
 161 -485 l 1
EndSplineSet
Validated: 1
LCarets2: 1 -39 
MultipleSubs2: "Add thinspace before narrow letter subtable" yetiv thinspace
EndChar

StartChar: tevir
Encoding: 1435 1435 16
Width: 0
GlyphClass: 4
Flags: W
HStem: -411 204<-137.349 -3.03332>
VStem: -152 163<-399.408 -218.221> 42 110<-432.449 -146.992>
AnchorPoint: "A-42" -185.24 0 mark 0
AnchorPoint: "A-54" -295.24 0 basemark 0
AnchorPoint: "A-53" -374.44 0 basemark 0
AnchorPoint: "A-52" -348.04 0 basemark 0
AnchorPoint: "A-51" -348.04 0 basemark 0
AnchorPoint: "A-51" 12.7598 0 mark 0
AnchorPoint: "A-50" -400.84 0 basemark 0
AnchorPoint: "A-49" -277.64 0 basemark 0
AnchorPoint: "A-44" 65.5605 0 mark 0
AnchorPoint: "A-40" 12.7598 0 mark 0
LayerCount: 2
Fore
SplineSet
-53 -457 m 1
 8 -434 42 -416 42 -328 c 0
 42 -311 35 -224 30 -154 c 1
 51 -127 l 1
 139 -127 l 1
 142 -149 l 2
 144 -167 152 -255 152 -325 c 0
 152 -479 78 -559 -29 -586 c 2
 -53 -593 l 1
 -53 -457 l 1
-70 -411 m 0
 -118 -411 -152 -363 -152 -309 c 0
 -152 -253 -117 -207 -70 -207 c 0
 -22 -207 11 -256 11 -309 c 0
 11 -368 -26 -411 -70 -411 c 0
EndSplineSet
Validated: 1
LCarets2: 1 1 
MultipleSubs2: "Add hairspace after last low mark subtable" tevir hairspace
MultipleSubs2: "Add thinspace before narrow letter subtable" tevir thinspace
MultipleSubs2: "Add hairspace before low marked Qof" tevir hairspace
EndChar

StartChar: gereshaccent
Encoding: 1436 1436 17
Width: 0
GlyphClass: 4
Flags: W
HStem: 1232 410
VStem: -102 110<1243.45 1488.45>
AnchorPoint: "A-55" -43.5605 0 mark 0
AnchorPoint: "A-57" -483.56 0 basemark 0
AnchorPoint: "A-56" -43.5605 0 basemark 0
AnchorPoint: "A-57" -43.5605 0 mark 0
AnchorPoint: "A-23" -43.5605 0 mark 0
LayerCount: 2
Fore
SplineSet
102 1513 m 1
 42 1490 8 1472 8 1384 c 0
 8 1367 11 1329 16 1259 c 1
 -3 1232 l 1
 -93 1232 l 1
 -96 1254 l 2
 -98 1272 -102 1311 -102 1381 c 0
 -102 1535 -29 1615 78 1642 c 2
 102 1649 l 1
 102 1513 l 1
EndSplineSet
Validated: 1
LCarets2: 1 -4 
EndChar

StartChar: gereshmuqdam
Encoding: 1437 1437 18
Width: 0
GlyphClass: 4
Flags: W
HStem: 1232 408
VStem: -102 110<1247.74 1486.45>
AnchorPoint: "A-27" -336.6 0 mark 0
LayerCount: 2
Fore
SplineSet
102 1511 m 1
 42 1488 8 1470 8 1382 c 0
 8 1365 14 1329 19 1259 c 1
 0 1232 l 1
 -90 1232 l 1
 -93 1254 l 2
 -94 1272 -102 1309 -102 1379 c 0
 -102 1533 -29 1613 78 1640 c 2
 102 1647 l 1
 102 1511 l 1
EndSplineSet
Validated: 1
LCarets2: 1 -30 
EndChar

StartChar: gershayimaccent
Encoding: 1438 1438 19
Width: 0
GlyphClass: 4
Flags: W
HStem: 1224 424
VStem: -194 110<1240.99 1488.94> -10 110<1241.62 1486.9>
AnchorPoint: "A-55" -133.76 0 mark 0
AnchorPoint: "A-57" -485.76 0 basemark 0
AnchorPoint: "A-56" -776.16 0 basemark 0
AnchorPoint: "A-57" -45.7598 0 mark 0
AnchorPoint: "A-23" -45.7598 0 mark 0
LayerCount: 2
Fore
SplineSet
4 1510 m 1
 -56 1488 -84 1470 -84 1382 c 0
 -84 1365 -78 1321 -73 1251 c 1
 -93 1224 l 1
 -182 1224 l 1
 -185 1246 l 2
 -186 1264 -194 1309 -194 1379 c 0
 -194 1533 -117 1596 -14 1640 c 2
 4 1648 l 1
 4 1510 l 1
194 1510 m 1
 137 1489 100 1472 100 1383 c 0
 100 1366 106 1322 111 1252 c 1
 91 1224 l 1
 0 1224 l 1
 0 1247 l 2
 -2 1264 -10 1309 -10 1379 c 0
 -10 1534 63 1613 170 1641 c 2
 194 1648 l 1
 194 1510 l 1
EndSplineSet
Validated: 1
LCarets2: 1 -4 
EndChar

StartChar: qarneypara
Encoding: 1439 1439 20
Width: 0
GlyphClass: 4
Flags: W
HStem: 1302 118<-273.862 -145.796 145.796 273.862> 1618 119<-274.263 -146.26 146.26 274.263>
VStem: -385 99<1429.54 1607.9> -134 97<1428.6 1608.55> 37 97<1428.04 1608.55> 286 99<1429.54 1607.9>
AnchorPoint: "A-55" -334.4 0 mark 0
AnchorPoint: "A-57" -440 0 basemark 0
AnchorPoint: "A-56" 0 0 basemark 0
AnchorPoint: "A-57" 0 0 mark 0
AnchorPoint: "A-32" 0 0 mark 0
LayerCount: 2
Fore
SplineSet
385 1519 m 0
 385 1402 314 1302 210 1302 c 0
 172 1302 143 1316 125 1331 c 1
 0 1180 l 1
 -125 1331 l 1
 -143 1316 -172 1302 -210 1302 c 0
 -314 1302 -385 1402 -385 1519 c 0
 -385 1633 -316 1737 -210 1737 c 0
 -106 1737 -37 1636 -37 1519 c 0
 -37 1483 -43 1448 -58 1415 c 1
 0 1345 l 1
 59 1415 l 1
 48 1438 37 1473 37 1519 c 0
 37 1636 106 1737 210 1737 c 0
 316 1737 385 1633 385 1519 c 0
-210 1420 m 0
 -162 1420 -134 1467 -134 1519 c 0
 -134 1571 -162 1618 -210 1618 c 0
 -258 1618 -286 1571 -286 1519 c 0
 -286 1467 -258 1420 -210 1420 c 0
210 1618 m 0
 162 1618 134 1571 134 1519 c 0
 134 1467 162 1420 210 1420 c 0
 258 1420 286 1467 286 1519 c 0
 286 1571 258 1618 210 1618 c 0
EndSplineSet
Validated: 1
LCarets2: 1 0 
EndChar

StartChar: telishagedola
Encoding: 1440 1440 21
Width: 0
GlyphClass: 4
Flags: W
HStem: 1323 118<-41.0875 75.2039> 1639 119<-52.3977 75.6045>
VStem: -162 98<1449.26 1630.03> 88 98<1450.54 1628.9>
AnchorPoint: "A-55" -168.6 0 mark 0
AnchorPoint: "A-39" -45.4004 0 mark 0
AnchorPoint: "A-57" -784.6 0 basemark 0
AnchorPoint: "A-56" -344.6 0 basemark 0
AnchorPoint: "A-56" -344.6 0 mark 0
AnchorPoint: "A-26" -168.6 0 mark 0
LayerCount: 2
Fore
SplineSet
11 1639 m 0
 -37 1639 -64 1592 -64 1540 c 0
 -64 1488 -37 1441 11 1441 c 0
 59 1441 88 1488 88 1540 c 0
 88 1592 59 1639 11 1639 c 0
-114 1391 m 1
 -144 1433 -162 1482 -162 1540 c 0
 -162 1657 -93 1758 11 1758 c 0
 117 1758 186 1654 186 1540 c 0
 186 1423 115 1323 11 1323 c 0
 3 1323 -14 1326 -30 1332 c 1
 -96 1180 l 1
 -186 1245 l 1
 -114 1391 l 1
EndSplineSet
Validated: 1
LCarets2: 1 -31 
EndChar

StartChar: pazer
Encoding: 1441 1441 22
Width: 0
GlyphClass: 4
Flags: W
HStem: 1335 128<-30 20.8114>
VStem: -139 109<1232 1335 1463 1680> 30 109<1467.67 1678>
AnchorPoint: "A-55" -88.5996 0 mark 0
AnchorPoint: "A-57" -493.4 0 basemark 0
AnchorPoint: "A-56" -53.4004 0 basemark 0
AnchorPoint: "A-57" -53.4004 0 mark 0
AnchorPoint: "A-23" -53.4004 0 mark 0
LayerCount: 2
Fore
SplineSet
139 1571 m 0
 139 1450 101 1335 -8 1335 c 0
 -16 1335 -22 1334 -30 1335 c 1
 -30 1232 l 1
 -139 1232 l 1
 -139 1680 l 1
 -30 1680 l 1
 -30 1463 l 1
 -27 1463 -24 1463 -21 1463 c 0
 13 1463 30 1489 30 1570 c 0
 30 1586 29 1618 26 1650 c 2
 24 1678 l 1
 131 1678 l 1
 134 1657 l 2
 138 1630 139 1601 139 1571 c 0
EndSplineSet
Validated: 1
LCarets2: 1 -5 
EndChar

StartChar: atnahhafukh
Encoding: 1442 1442 23
Width: 0
GlyphClass: 4
Flags: W
HStem: -596 475
VStem: -163 109<-335.364 -121> -42 84<-596 -439.457> 53 110<-336.501 -121>
AnchorPoint: "A-42" 196.361 0 mark 0
AnchorPoint: "A-54" 341.562 0 basemark 0
AnchorPoint: "A-53" 394.361 0 basemark 0
AnchorPoint: "A-52" 394.361 0 basemark 0
AnchorPoint: "A-51" 394.361 0 basemark 0
AnchorPoint: "A-52" -1.63867 0 mark 0
AnchorPoint: "A-50" 394.361 0 basemark 0
AnchorPoint: "A-49" 306.361 0 basemark 0
AnchorPoint: "A-44" -54.4385 0 mark 0
AnchorPoint: "A-40" -1.63867 0 mark 0
LayerCount: 2
Fore
SplineSet
-42 -596 m 17
 -42 -463 l 1
 -134 -418 -163 -338 -163 -253 c 0
 -163 -210 -161 -165 -157 -121 c 9
 -48 -121 l 17
 -53 -157 -54 -190 -54 -218 c 0
 -54 -289 -38 -338 0 -338 c 1
 38 -338 53 -286 53 -214 c 0
 53 -186 53 -156 48 -121 c 9
 157 -121 l 17
 163 -168 163 -208 163 -251 c 0
 163 -336 133 -417 42 -462 c 9
 42 -596 l 25
 -42 -596 l 17
EndSplineSet
Validated: 1
MultipleSubs2: "Add hairspace after last low mark subtable" atnahhafukh hairspace
MultipleSubs2: "Add thinspace before narrow letter subtable" atnahhafukh thinspace
MultipleSubs2: "Add hairspace before low marked Qof" atnahhafukh hairspace
EndChar

StartChar: munah
Encoding: 1443 1443 24
Width: 0
GlyphClass: 4
Flags: W
HStem: -572 135<-134 26>
VStem: -134 268<-572 -437> 26 108<-437 -133>
AnchorPoint: "A-42" -202.4 0 mark 0
AnchorPoint: "A-54" -294.8 0 basemark 0
AnchorPoint: "A-53" -347.6 0 basemark 0
AnchorPoint: "A-52" -347.6 0 basemark 0
AnchorPoint: "A-51" -347.6 0 basemark 0
AnchorPoint: "A-52" -4.40039 0 mark 0
AnchorPoint: "A-50" -303.6 0 basemark 0
AnchorPoint: "A-49" -224.4 0 basemark 0
AnchorPoint: "A-45" 48.4004 0 mark 0
AnchorPoint: "A-40" -4.40039 0 mark 0
LayerCount: 2
Fore
SplineSet
134 -572 m 1xc0
 -134 -572 l 1
 -134 -437 l 1xc0
 26 -437 l 1
 26 -133 l 1
 134 -133 l 1xa0
 134 -572 l 1xc0
EndSplineSet
Validated: 1
LCarets2: 1 -1 
MultipleSubs2: "Add hairspace after last low mark subtable" munah hairspace
MultipleSubs2: "Add thinspace before narrow letter subtable" munah thinspace
MultipleSubs2: "Add hairspace before low marked Qof" munah hairspace
EndChar

StartChar: mahapakh
Encoding: 1444 1444 25
Width: 0
GlyphClass: 4
Flags: W
HStem: -597 486
VStem: -161 322
AnchorPoint: "A-42" -192.04 0 mark 0
AnchorPoint: "A-54" -293.24 0 basemark 0
AnchorPoint: "A-53" -346.04 0 basemark 0
AnchorPoint: "A-52" -346.04 0 basemark 0
AnchorPoint: "A-51" -346.04 0 basemark 0
AnchorPoint: "A-52" 5.95996 0 mark 0
AnchorPoint: "A-50" -363.64 0 basemark 0
AnchorPoint: "A-49" -302.04 0 basemark 0
AnchorPoint: "A-44" 58.7598 0 mark 0
AnchorPoint: "A-40" 5.95996 0 mark 0
LayerCount: 2
Fore
SplineSet
161 -485 m 1
 89 -597 l 1
 -161 -354 l 1
 89 -111 l 1
 161 -223 l 1
 14 -351 l 1
 161 -485 l 1
EndSplineSet
Validated: 1
LCarets2: 1 0 
MultipleSubs2: "Add hairspace after last low mark subtable" mahapakh hairspace
MultipleSubs2: "Add thinspace before narrow letter subtable" mahapakh thinspace
MultipleSubs2: "Add hairspace before low marked Qof" mahapakh hairspace
EndChar

StartChar: merkha
Encoding: 1445 1445 26
Width: 0
GlyphClass: 4
Flags: W
HStem: -584 460
VStem: -9 111<-430.019 -134.992>
AnchorPoint: "A-42" -154 0 mark 0
AnchorPoint: "A-54" -290.4 0 basemark 0
AnchorPoint: "A-53" -343.2 0 basemark 0
AnchorPoint: "A-52" -343.2 0 basemark 0
AnchorPoint: "A-51" -343.2 0 basemark 0
AnchorPoint: "A-51" -26.4004 0 mark 0
AnchorPoint: "A-50" -272.8 0 basemark 0
AnchorPoint: "A-49" -264 0 basemark 0
AnchorPoint: "A-43" 0 0 mark 0
AnchorPoint: "A-40" 44 0 mark 0
LayerCount: 2
Fore
SplineSet
-102 -455 m 1
 -52 -435 -9 -419 -9 -325 c 0
 -9 -308 -14 -221 -18 -151 c 1
 0 -124 l 1
 90 -124 l 1
 92 -146 l 2
 94 -164 102 -253 102 -323 c 0
 102 -476 29 -557 -78 -584 c 2
 -102 -589 l 1
 -102 -455 l 1
EndSplineSet
Validated: 1
LCarets2: 1 4 
MultipleSubs2: "Add hairspace after last low mark subtable" merkha hairspace
MultipleSubs2: "Add thinspace before narrow letter subtable" merkha thinspace
MultipleSubs2: "Add hairspace before low marked Qof" merkha hairspace
EndChar

StartChar: merkhakefula
Encoding: 1446 1446 27
Width: 0
GlyphClass: 4
Flags: W
HStem: -587 460
VStem: -101 111<-433.019 -139.593> 83 111<-433.845 -141.903>
AnchorPoint: "A-42" -151.8 0 mark 0
AnchorPoint: "A-54" -376.2 0 basemark 0
AnchorPoint: "A-53" -429 0 basemark 0
AnchorPoint: "A-52" -429 0 basemark 0
AnchorPoint: "A-51" -429 0 basemark 0
AnchorPoint: "A-53" 46.2002 0 mark 0
AnchorPoint: "A-50" -367.4 0 basemark 0
AnchorPoint: "A-49" -305.8 0 basemark 0
AnchorPoint: "A-45" 99 0 mark 0
AnchorPoint: "A-40" 46.2002 0 mark 0
LayerCount: 2
Fore
SplineSet
-194 -458 m 1
 -144 -438 -101 -422 -101 -328 c 0
 -101 -311 -106 -224 -110 -154 c 1
 -91 -127 l 1
 -3 -127 l 1
 0 -149 l 2
 2 -167 10 -256 10 -326 c 0
 10 -479 -64 -560 -170 -587 c 2
 -194 -592 l 1
 -194 -458 l 1
-10 -459 m 1
 40 -439 83 -423 83 -329 c 0
 83 -312 78 -225 74 -155 c 1
 94 -128 l 1
 182 -128 l 1
 184 -150 l 2
 186 -168 194 -257 194 -327 c 0
 194 -480 122 -560 14 -587 c 2
 -10 -592 l 1
 -10 -459 l 1
EndSplineSet
Validated: 1
LCarets2: 1 4 
MultipleSubs2: "Add hairspace after last low mark subtable" merkhakefula hairspace
MultipleSubs2: "Add thinspace before narrow letter subtable" merkhakefula thinspace
MultipleSubs2: "Add hairspace before low marked Qof" merkhakefula hairspace
EndChar

StartChar: darga
Encoding: 1447 1447 28
Width: 0
GlyphClass: 4
Flags: W
HStem: -593 481
VStem: -107 225<-532.848 -467 -396.818 -313.67>
AnchorPoint: "A-42" -198 0 mark 0
AnchorPoint: "A-54" -281.6 0 basemark 0
AnchorPoint: "A-53" -334.4 0 basemark 0
AnchorPoint: "A-52" -334.4 0 basemark 0
AnchorPoint: "A-51" -334.4 0 basemark 0
AnchorPoint: "A-52" 0 0 mark 0
AnchorPoint: "A-50" -343.2 0 basemark 0
AnchorPoint: "A-49" -264 0 basemark 0
AnchorPoint: "A-43" 0 0 mark 0
AnchorPoint: "A-40" 0 0 mark 0
LayerCount: 2
Fore
SplineSet
56 -247 m 1
 10 -257 -3 -265 -9 -276 c 1
 90 -313 118 -331 118 -407 c 0
 118 -532 53 -570 -85 -593 c 2
 -107 -596 l 1
 -107 -467 l 1
 -91 -462 l 2
 -35 -448 5 -448 10 -426 c 1
 -70 -395 -118 -388 -118 -296 c 0
 -118 -155 -34 -130 74 -112 c 2
 97 -109 l 1
 97 -239 l 1
 86 -242 64 -245 56 -247 c 1
EndSplineSet
Validated: 1
LCarets2: 1 0 
MultipleSubs2: "Add hairspace after last low mark subtable" darga hairspace
MultipleSubs2: "Add thinspace before narrow letter subtable" darga thinspace
MultipleSubs2: "Add hairspace before low marked Qof" darga hairspace
EndChar

StartChar: qadma
Encoding: 1448 1448 29
Width: 0
GlyphClass: 4
Flags: W
HStem: 1230 416
VStem: -8 110<1241.45 1485.45>
AnchorPoint: "A-55" -16.2793 0 mark 0
AnchorPoint: "A-57" -394.68 0 basemark 0
AnchorPoint: "A-56" 45.3203 0 basemark 0
AnchorPoint: "A-57" 45.3203 0 mark 0
AnchorPoint: "A-23" 45.3203 0 mark 0
LayerCount: 2
Fore
SplineSet
3 1230 m 1
 -16 1257 l 1
 -11 1327 -8 1364 -8 1381 c 0
 -8 1468 -42 1487 -102 1510 c 1
 -102 1646 l 1
 -78 1639 l 1
 29 1612 102 1532 102 1378 c 0
 102 1308 98 1270 96 1252 c 2
 93 1230 l 1
 3 1230 l 1
EndSplineSet
Validated: 1
LCarets2: 1 4 
EndChar

StartChar: telishaqetana
Encoding: 1449 1449 30
Width: 0
GlyphClass: 4
Flags: W
HStem: 1323 118<-75.2039 41.0875> 1639 119<-75.6045 52.3977>
VStem: -186 98<1450.54 1628.9> 64 98<1448.84 1630.03>
AnchorPoint: "A-55" -104.2 0 mark 0
AnchorPoint: "A-36" 45.4004 0 mark 0
AnchorPoint: "A-57" -95.4004 0 basemark 0
AnchorPoint: "A-56" 344.6 0 basemark 0
AnchorPoint: "A-57" 344.6 0 mark 0
AnchorPoint: "A-30" 432.6 0 mark 0
LayerCount: 2
Fore
SplineSet
-11 1441 m 0
 37 1441 64 1488 64 1540 c 0
 64 1592 37 1639 -11 1639 c 0
 -59 1639 -88 1592 -88 1540 c 0
 -88 1488 -59 1441 -11 1441 c 0
-11 1758 m 0
 93 1758 162 1657 162 1540 c 0
 162 1482 144 1431 114 1391 c 1
 186 1245 l 1
 96 1180 l 1
 30 1332 l 1
 14 1326 -3 1323 -11 1323 c 0
 -115 1323 -186 1423 -186 1540 c 0
 -186 1654 -117 1758 -11 1758 c 0
EndSplineSet
Validated: 1
LCarets2: 1 31 
EndChar

StartChar: yerahbenyomo
Encoding: 1450 1450 31
Width: 0
GlyphClass: 4
Flags: W
HStem: -596 475
VStem: -163 109<-335.364 -121> -42 84<-596 -439.457> 53 110<-336.501 -121>
AnchorPoint: "A-42" -198.04 0 mark 0
AnchorPoint: "A-54" -343.24 0 basemark 0
AnchorPoint: "A-53" -396.04 0 basemark 0
AnchorPoint: "A-52" -396.04 0 basemark 0
AnchorPoint: "A-51" -396.04 0 basemark 0
AnchorPoint: "A-52" -0.0400391 0 mark 0
AnchorPoint: "A-50" -413.64 0 basemark 0
AnchorPoint: "A-49" -352.04 0 basemark 0
AnchorPoint: "A-44" 52.7598 0 mark 0
AnchorPoint: "A-40" -0.0400391 0 mark 0
LayerCount: 2
Fore
SplineSet
-42 -596 m 17
 -42 -463 l 1
 -134 -418 -163 -338 -163 -253 c 0
 -163 -210 -161 -165 -157 -121 c 9
 -48 -121 l 17
 -53 -157 -54 -190 -54 -218 c 0
 -54 -289 -38 -338 0 -338 c 1
 38 -338 53 -286 53 -214 c 0
 53 -186 53 -156 48 -121 c 9
 157 -121 l 17
 163 -168 163 -208 163 -251 c 0
 163 -336 133 -417 42 -462 c 9
 42 -596 l 25
 -42 -596 l 17
EndSplineSet
Validated: 1
LCarets2: 1 0 
MultipleSubs2: "Add hairspace after last low mark subtable" yerahbenyomo hairspace
MultipleSubs2: "Add thinspace before narrow letter subtable" yerahbenyomo thinspace
MultipleSubs2: "Add hairspace before low marked Qof" yerahbenyomo hairspace
EndChar

StartChar: ole
Encoding: 1451 1451 32
Width: 0
GlyphClass: 4
Flags: W
HStem: 1231 486
VStem: -161 322
AnchorPoint: "A-55" -103.4 0 mark 0
AnchorPoint: "A-57" -481.8 0 basemark 0
AnchorPoint: "A-56" -41.7998 0 basemark 0
AnchorPoint: "A-57" -41.7998 0 mark 0
AnchorPoint: "A-23" -41.7998 0 mark 0
LayerCount: 2
Fore
SplineSet
161 1343 m 1
 89 1231 l 1
 -161 1474 l 1
 89 1717 l 1
 161 1604 l 1
 14 1477 l 1
 161 1343 l 1
EndSplineSet
Validated: 1
LCarets2: 1 -4 
EndChar

StartChar: iluy
Encoding: 1452 1452 33
Width: 0
GlyphClass: 4
Flags: W
HStem: 1225 135<-138 30>
VStem: -138 276<1225 1360> 30 108<1360 1664>
AnchorPoint: "A-55" -83.5996 0 mark 0
AnchorPoint: "A-57" -444.4 0 basemark 0
AnchorPoint: "A-56" -4.40039 0 basemark 0
AnchorPoint: "A-57" -4.40039 0 mark 0
AnchorPoint: "A-23" -4.40039 0 mark 0
LayerCount: 2
Fore
SplineSet
138 1225 m 1xc0
 -138 1225 l 1
 -138 1360 l 1xc0
 30 1360 l 1
 30 1664 l 1
 138 1664 l 1xa0
 138 1225 l 1xc0
EndSplineSet
Validated: 1
LCarets2: 1 -1 
EndChar

StartChar: dehi
Encoding: 1453 1453 34
Width: 0
GlyphClass: 4
Flags: W
HStem: -596 466
VStem: -102 110<-435.449 -130.421>
AnchorPoint: "A-69" -314.6 0 mark 0
AnchorPoint: "A-68" -420.2 0 mark 0
AnchorPoint: "A-67" -508.2 0 mark 0
AnchorPoint: "A-66" -367.4 0 mark 0
AnchorPoint: "A-65" -481.8 0 mark 0
AnchorPoint: "A-64" -596.2 0 mark 0
AnchorPoint: "A-46" -420.2 0 mark 0
AnchorPoint: "A-41" -420.2 0 mark 0
LayerCount: 2
Fore
SplineSet
0 -130 m 1
 7 -139 13 -147 19 -157 c 1
 14 -227 8 -314 8 -331 c 0
 8 -419 42 -437 102 -460 c 1
 102 -596 l 1
 78 -589 l 1
 -29 -562 -102 -482 -102 -328 c 0
 -102 -258 -94 -170 -93 -152 c 2
 -90 -130 l 1
 0 -130 l 1
EndSplineSet
Validated: 1
LCarets2: 1 -38 
MultipleSubs2: "Add hairspace after last low mark subtable" dehi hairspace
MultipleSubs2: "Add thinspace before narrow letter subtable" dehi thinspace
EndChar

StartChar: tsinor
Encoding: 1454 1454 35
Width: 0
GlyphClass: 4
Flags: W
HStem: 1231 130<56.817 124.614> 1429 128<-124.854 -56.4183>
VStem: -232 107<1305.58 1428.14> 125 107<1362.76 1483.41>
AnchorPoint: "A-33" 424.72 0 mark 0
AnchorPoint: "A-28" 424.72 0 mark 0
LayerCount: 2
Fore
SplineSet
-125 1388 m 0
 -125 1360 -102 1351 -82 1342 c 1
 -82 1204 l 1
 -107 1213 l 2
 -178 1239 -232 1307 -232 1387 c 0
 -232 1487 -171 1557 -98 1557 c 0
 -29 1557 10 1505 43 1433 c 2
 58 1402 l 1
 78 1366 86 1361 96 1361 c 0
 112 1361 125 1377 125 1401 c 0
 125 1429 104 1438 86 1447 c 1
 86 1587 l 1
 111 1577 l 2
 158 1560 232 1501 232 1402 c 0
 232 1297 167 1231 99 1231 c 0
 17 1231 -19 1307 -42 1356 c 2
 -57 1386 l 2
 -76 1427 -90 1429 -96 1429 c 0
 -112 1429 -125 1413 -125 1388 c 0
EndSplineSet
Validated: 1
LCarets2: 1 38 
EndChar

StartChar: masoracircle
Encoding: 1455 1455 36
Width: 0
GlyphClass: 4
Flags: W
HStem: 1276 103<-69.4064 69.9373> 1613 103<-70.4045 71.0426>
VStem: -176 86<1398.59 1594.47> 90 86<1398.85 1593.8>
AnchorPoint: "A-55" -79.2002 0 mark 0
AnchorPoint: "A-57" -440 0 basemark 0
AnchorPoint: "A-56" 0 0 basemark 0
AnchorPoint: "A-57" 0 0 mark 0
AnchorPoint: "A-24" 0 0 mark 0
LayerCount: 2
Fore
SplineSet
0 1276 m 0
 -98 1276 -176 1375 -176 1496 c 0
 -176 1611 -102 1716 0 1716 c 0
 94 1716 176 1621 176 1496 c 0
 176 1374 98 1276 0 1276 c 0
0 1613 m 0
 -48 1613 -90 1565 -90 1496 c 0
 -90 1427 -47 1379 0 1379 c 0
 46 1379 90 1425 90 1496 c 0
 90 1567 46 1613 0 1613 c 0
EndSplineSet
Validated: 1
LCarets2: 1 0 
EndChar

StartChar: sheva
Encoding: 1456 1456 37
Width: 0
GlyphClass: 4
Flags: W
HStem: -587 214<-70.5529 70.5529> -333 214<-70.5529 70.5529>
VStem: -86 172<-574.469 -385.531 -320.469 -131.531>
AnchorPoint: "A-17" -44 0 mark 0
AnchorPoint: "A-14" -44 0 mark 0
AnchorPoint: "A-11" -308 0 mark 0
AnchorPoint: "A-8" -154 0 mark 0
AnchorPoint: "A-70" 0 0 mark 0
AnchorPoint: "A-50" 0 0 basemark 0
AnchorPoint: "A-49" -220 0 basemark 0
AnchorPoint: "A-49" 0 0 mark 0
AnchorPoint: "A-48" -228.8 0 basemark 0
AnchorPoint: "A-47" -184.8 0 basemark 0
AnchorPoint: "A-46" -158.4 0 basemark 0
AnchorPoint: "A-45" -264 0 basemark 0
AnchorPoint: "A-44" -264 0 basemark 0
AnchorPoint: "A-43" -264 0 basemark 0
AnchorPoint: "A-4" 0 0 mark 0
LayerCount: 2
Fore
SplineSet
0 -587 m 0
 -50 -587 -86 -541 -86 -480 c 0
 -86 -418 -49 -373 0 -373 c 0
 50 -373 86 -419 86 -480 c 0
 86 -542 49 -587 0 -587 c 0
0 -333 m 0
 -50 -333 -86 -287 -86 -226 c 0
 -86 -164 -49 -119 0 -119 c 0
 50 -119 86 -165 86 -226 c 0
 86 -288 49 -333 0 -333 c 0
EndSplineSet
Validated: 1
LCarets2: 1 0 
MultipleSubs2: "Add hairspace after last low mark subtable" sheva hairspace
MultipleSubs2: "Add thinspace before narrow letter subtable" sheva thinspace
MultipleSubs2: "Add hairspace before low marked Qof" sheva hairspace
EndChar

StartChar: hatafsegol
Encoding: 1457 1457 38
Width: 0
GlyphClass: 4
Flags: W
HStem: -587 214<-179.553 -39.3875 149.507 290.612> -333 214<-290.612 -149.507 -68.2896 72.1547 149.507 290.612>
VStem: -306 172<-320.469 -131.531> -195 171<-574.469 -385.531> -83 171<-319.237 -132.763> 134 172<-574.469 -385.531 -320.469 -131.531>
AnchorPoint: "A-19" -44.4395 0 mark 0
AnchorPoint: "A-16" -44.4395 0 mark 0
AnchorPoint: "A-13" -308.44 0 mark 0
AnchorPoint: "A-10" -154.44 0 mark 0
AnchorPoint: "A-73" -0.439453 0 mark 0
AnchorPoint: "A-50" -0.439453 0 basemark 0
AnchorPoint: "A-49" -493.24 0 basemark 0
AnchorPoint: "A-48" -466.84 0 basemark 0
AnchorPoint: "A-47" 34.7598 0 basemark 0
AnchorPoint: "A-46" 69.96 0 basemark 0
AnchorPoint: "A-45" -484.44 0 basemark 0
AnchorPoint: "A-44" -484.44 0 basemark 0
AnchorPoint: "A-43" -484.44 0 basemark 0
AnchorPoint: "A-6" -0.439453 0 mark 0
LayerCount: 2
Fore
SplineSet
221 -587 m 0xc4
 171 -587 134 -541 134 -480 c 0
 134 -418 171 -373 221 -373 c 0
 270 -373 306 -419 306 -480 c 0
 306 -542 269 -587 221 -587 c 0xc4
221 -333 m 0
 171 -333 134 -287 134 -226 c 0
 134 -164 171 -119 221 -119 c 0
 270 -119 306 -165 306 -226 c 0
 306 -288 269 -333 221 -333 c 0
0 -119 m 0
 50 -119 88 -165 88 -226 c 0
 88 -288 50 -333 0 -333 c 0
 -50 -333 -83 -287 -83 -226 c 0xcc
 -83 -164 -48 -119 0 -119 c 0
-109 -373 m 0
 -59 -373 -24 -419 -24 -480 c 0
 -24 -542 -61 -587 -109 -587 c 0
 -158 -587 -195 -541 -195 -480 c 0xd4
 -195 -418 -158 -373 -109 -373 c 0
-221 -119 m 0
 -171 -119 -134 -165 -134 -226 c 0
 -134 -288 -171 -333 -221 -333 c 0
 -270 -333 -306 -287 -306 -226 c 0xe4
 -306 -164 -269 -119 -221 -119 c 0
EndSplineSet
Validated: 1
LCarets2: 1 0 
MultipleSubs2: "Add hairspace after last low mark subtable" hatafsegol hairspace
MultipleSubs2: "Add thinspace before narrow letter subtable" hatafsegol thinspace
MultipleSubs2: "Add hairspace before low marked Qof" hatafsegol hairspace
EndChar

StartChar: hatafpatah
Encoding: 1458 1458 39
Width: 0
GlyphClass: 4
Flags: W
HStem: -587 214<150.447 290.891> -333 214<150.447 290.891> -286 144<-306 44>
VStem: 135 171<-574.469 -385.531 -320.469 -131.531>
AnchorPoint: "A-19" -45.1201 0 mark 0
AnchorPoint: "A-16" -45.1201 0 mark 0
AnchorPoint: "A-13" -309.12 0 mark 0
AnchorPoint: "A-10" -155.12 0 mark 0
AnchorPoint: "A-73" -1.12012 0 mark 0
AnchorPoint: "A-50" -1.12012 0 basemark 0
AnchorPoint: "A-49" -449.92 0 basemark 0
AnchorPoint: "A-48" -432.32 0 basemark 0
AnchorPoint: "A-47" 34.0801 0 basemark 0
AnchorPoint: "A-46" 51.6797 0 basemark 0
AnchorPoint: "A-45" -467.521 0 basemark 0
AnchorPoint: "A-44" -458.72 0 basemark 0
AnchorPoint: "A-43" -467.521 0 basemark 0
AnchorPoint: "A-6" -1.12012 0 mark 0
LayerCount: 2
Fore
SplineSet
44 -286 m 1xb0
 -306 -286 l 1
 -306 -142 l 1
 44 -142 l 1
 44 -286 l 1xb0
221 -587 m 0
 171 -587 135 -541 135 -480 c 0
 135 -418 172 -373 221 -373 c 0
 270 -373 306 -419 306 -480 c 0
 306 -542 270 -587 221 -587 c 0
221 -333 m 0xd0
 171 -333 135 -287 135 -226 c 0
 135 -164 172 -119 221 -119 c 0
 270 -119 306 -165 306 -226 c 0
 306 -288 270 -333 221 -333 c 0xd0
EndSplineSet
Validated: 1
LCarets2: 1 0 
MultipleSubs2: "Add hairspace after last low mark subtable" hatafpatah hairspace
MultipleSubs2: "Add thinspace before narrow letter subtable" hatafpatah thinspace
MultipleSubs2: "Add hairspace before low marked Qof" hatafpatah hairspace
EndChar

StartChar: hatafqamats
Encoding: 1459 1459 40
Width: 0
GlyphClass: 4
Flags: W
HStem: -589 214<150.447 290.891> -335 214<150.447 290.891> -288 146<-306 -155 -75 66>
VStem: -155 80<-450 -288> 135 171<-576.469 -387.531 -322.469 -133.531>
AnchorPoint: "A-19" -44.5996 0 mark 0
AnchorPoint: "A-16" -44.5996 0 mark 0
AnchorPoint: "A-13" -308.6 0 mark 0
AnchorPoint: "A-10" -154.6 0 mark 0
AnchorPoint: "A-73" -0.599609 0 mark 0
AnchorPoint: "A-50" -0.599609 0 basemark 0
AnchorPoint: "A-49" -467 0 basemark 0
AnchorPoint: "A-48" -449.4 0 basemark 0
AnchorPoint: "A-47" 25.7998 0 basemark 0
AnchorPoint: "A-46" 34.5996 0 basemark 0
AnchorPoint: "A-45" -484.6 0 basemark 0
AnchorPoint: "A-44" -484.6 0 basemark 0
AnchorPoint: "A-43" -484.6 0 basemark 0
AnchorPoint: "A-6" -0.599609 0 mark 0
LayerCount: 2
Fore
SplineSet
-75 -288 m 1xb8
 -75 -299 l 2
 -75 -328 -71 -354 -64 -375 c 2
 -26 -475 l 1
 -44 -521 -55 -549 -86 -582 c 1
 -94 -584 -104 -589 -116 -589 c 0
 -128 -589 -135 -585 -144 -582 c 1
 -174 -554 -186 -527 -202 -474 c 1
 -164 -374 l 1
 -158 -361 -155 -309 -155 -301 c 2
 -155 -288 l 1
 -306 -288 l 1
 -306 -142 l 1
 66 -144 l 1
 66 -288 l 1
 -75 -288 l 1xb8
221 -589 m 0
 171 -589 135 -543 135 -482 c 0
 135 -420 172 -375 221 -375 c 0
 270 -375 306 -421 306 -482 c 0
 306 -544 270 -589 221 -589 c 0
221 -335 m 0xd8
 171 -335 135 -289 135 -228 c 0
 135 -166 172 -121 221 -121 c 0
 270 -121 306 -167 306 -228 c 0
 306 -290 270 -335 221 -335 c 0xd8
EndSplineSet
Validated: 1
LCarets2: 1 0 
MultipleSubs2: "Add hairspace after last low mark subtable" hatafqamats hairspace
MultipleSubs2: "Add thinspace before narrow letter subtable" hatafqamats thinspace
MultipleSubs2: "Add hairspace before low marked Qof" hatafqamats hairspace
EndChar

StartChar: hiriq
Encoding: 1460 1460 41
Width: 0
GlyphClass: 4
Flags: W
HStem: -333 214<-70.5529 70.5529>
VStem: -86 172<-320.469 -131.531>
AnchorPoint: "A-59" 238.48 0 mark 0
AnchorPoint: "A-17" -44 0 mark 0
AnchorPoint: "A-14" -44 0 mark 0
AnchorPoint: "A-11" -308 0 mark 0
AnchorPoint: "A-8" -154 0 mark 0
AnchorPoint: "A-70" 0 0 mark 0
AnchorPoint: "A-50" 0 0 basemark 0
AnchorPoint: "A-49" -220 0 basemark 0
AnchorPoint: "A-49" 0 0 mark 0
AnchorPoint: "A-48" -211.2 0 basemark 0
AnchorPoint: "A-47" -184.8 0 basemark 0
AnchorPoint: "A-46" -167.2 0 basemark 0
AnchorPoint: "A-45" -264 0 basemark 0
AnchorPoint: "A-44" -264 0 basemark 0
AnchorPoint: "A-43" -264 0 basemark 0
AnchorPoint: "A-4" 0 0 mark 0
LayerCount: 2
Fore
SplineSet
0 -333 m 0
 -50 -333 -86 -287 -86 -226 c 0
 -86 -164 -49 -119 0 -119 c 0
 50 -119 86 -165 86 -226 c 0
 86 -288 49 -333 0 -333 c 0
EndSplineSet
Validated: 1
LCarets2: 1 22 
MultipleSubs2: "Add hairspace after last low mark subtable" hiriq hairspace
MultipleSubs2: "Add thinspace before narrow letter subtable" hiriq thinspace
MultipleSubs2: "Add hairspace before low marked Qof" hiriq hairspace
EndChar

StartChar: tsere
Encoding: 1461 1461 42
Width: 0
GlyphClass: 4
Flags: W
HStem: -333 214<-171.612 -31.4471 31.4471 171.612>
VStem: -187 171<-320.469 -131.531> 16 171<-320.469 -131.531>
AnchorPoint: "A-18" -44 0 mark 0
AnchorPoint: "A-15" -44 0 mark 0
AnchorPoint: "A-12" -308 0 mark 0
AnchorPoint: "A-9" -154 0 mark 0
AnchorPoint: "A-71" 0 0 mark 0
AnchorPoint: "A-50" 0 0 basemark 0
AnchorPoint: "A-49" -360.8 0 basemark 0
AnchorPoint: "A-48" -343.2 0 basemark 0
AnchorPoint: "A-47" -88 0 basemark 0
AnchorPoint: "A-46" -70.4004 0 basemark 0
AnchorPoint: "A-45" -378.4 0 basemark 0
AnchorPoint: "A-44" -352 0 basemark 0
AnchorPoint: "A-43" -378.4 0 basemark 0
AnchorPoint: "A-5" 0 0 mark 0
LayerCount: 2
Fore
SplineSet
187 -226 m 0
 187 -288 150 -333 102 -333 c 0
 52 -333 16 -287 16 -226 c 0
 16 -164 53 -119 102 -119 c 0
 151 -119 187 -165 187 -226 c 0
-16 -226 m 0
 -16 -288 -53 -333 -102 -333 c 0
 -151 -333 -187 -287 -187 -226 c 0
 -187 -164 -150 -119 -102 -119 c 0
 -52 -119 -16 -165 -16 -226 c 0
EndSplineSet
Validated: 1
LCarets2: 1 0 
MultipleSubs2: "Add hairspace after last low mark subtable" tsere hairspace
MultipleSubs2: "Add thinspace before narrow letter subtable" tsere thinspace
MultipleSubs2: "Add hairspace before low marked Qof" tsere hairspace
EndChar

StartChar: segol
Encoding: 1462 1462 43
Width: 0
GlyphClass: 4
Flags: W
HStem: -570 203<-67.887 70.0031> -333 214<-181.553 -41.1086 41.1086 181.553>
VStem: -197 171<-320.469 -131.531> -79 161<-560.738 -376.893> 26 171<-320.469 -131.531>
AnchorPoint: "A-18" -44 0 mark 0
AnchorPoint: "A-15" -44 0 mark 0
AnchorPoint: "A-12" -308 0 mark 0
AnchorPoint: "A-9" -154 0 mark 0
AnchorPoint: "A-71" 0 0 mark 0
AnchorPoint: "A-50" 0 0 basemark 0
AnchorPoint: "A-49" -360.8 0 basemark 0
AnchorPoint: "A-48" -343.2 0 basemark 0
AnchorPoint: "A-47" -88 0 basemark 0
AnchorPoint: "A-46" -44 0 basemark 0
AnchorPoint: "A-45" -378.4 0 basemark 0
AnchorPoint: "A-44" -352 0 basemark 0
AnchorPoint: "A-43" -378.4 0 basemark 0
AnchorPoint: "A-5" 0 0 mark 0
LayerCount: 2
Fore
SplineSet
111 -119 m 0xc8
 161 -119 197 -165 197 -226 c 0
 197 -288 160 -333 111 -333 c 0
 62 -333 26 -287 26 -226 c 0
 26 -164 62 -119 111 -119 c 0xc8
0 -367 m 0
 50 -367 82 -408 82 -469 c 0
 82 -531 49 -570 0 -570 c 0
 -50 -570 -79 -529 -79 -468 c 0xd0
 -79 -406 -49 -367 0 -367 c 0
-111 -119 m 0
 -62 -119 -26 -165 -26 -226 c 0
 -26 -288 -62 -333 -111 -333 c 0
 -161 -333 -197 -287 -197 -226 c 0xe0
 -197 -164 -160 -119 -111 -119 c 0
EndSplineSet
Validated: 1
LCarets2: 1 0 
MultipleSubs2: "Add hairspace after last low mark subtable" segol hairspace
MultipleSubs2: "Add thinspace before narrow letter subtable" segol thinspace
MultipleSubs2: "Add hairspace before low marked Qof" segol hairspace
EndChar

StartChar: patah
Encoding: 1463 1463 44
Width: 0
GlyphClass: 4
Flags: W
HStem: -288 144<-155 155>
VStem: -155 310<-288 -144>
AnchorPoint: "A-18" -43.96 0 mark 0
AnchorPoint: "A-15" -43.96 0 mark 0
AnchorPoint: "A-12" -307.96 0 mark 0
AnchorPoint: "A-9" -153.96 0 mark 0
AnchorPoint: "A-71" 0.0400391 0 mark 0
AnchorPoint: "A-50" 0.0400391 0 basemark 0
AnchorPoint: "A-49" -334.36 0 basemark 0
AnchorPoint: "A-50" 0.0400391 0 mark 0
AnchorPoint: "A-48" -299.16 0 basemark 0
AnchorPoint: "A-47" -96.7598 0 basemark 0
AnchorPoint: "A-46" -79.1602 0 basemark 0
AnchorPoint: "A-45" -351.96 0 basemark 0
AnchorPoint: "A-44" -325.56 0 basemark 0
AnchorPoint: "A-43" -351.96 0 basemark 0
AnchorPoint: "A-5" 0.0400391 0 mark 0
LayerCount: 2
Fore
SplineSet
155 -288 m 1
 -155 -288 l 1
 -155 -144 l 1
 155 -144 l 1
 155 -288 l 1
EndSplineSet
Validated: 1
LCarets2: 1 0 
MultipleSubs2: "Add hairspace after last low mark subtable" patah hairspace
MultipleSubs2: "Add thinspace before narrow letter subtable" patah thinspace
MultipleSubs2: "Add hairspace before low marked Qof" patah hairspace
EndChar

StartChar: qamats
Encoding: 1464 1464 45
Width: 0
GlyphClass: 4
Flags: W
HStem: -288 144<-152 -40 40 152>
VStem: -152 304<-288 -144> -40 80<-454.688 -288>
AnchorPoint: "A-18" -44.04 0 mark 0
AnchorPoint: "A-15" -44.04 0 mark 0
AnchorPoint: "A-12" -308.04 0 mark 0
AnchorPoint: "A-9" -154.04 0 mark 0
AnchorPoint: "A-71" -0.0400391 0 mark 0
AnchorPoint: "A-50" -0.0400391 0 basemark 0
AnchorPoint: "A-49" -334.44 0 basemark 0
AnchorPoint: "A-48" -299.24 0 basemark 0
AnchorPoint: "A-47" -96.8398 0 basemark 0
AnchorPoint: "A-46" -61.6396 0 basemark 0
AnchorPoint: "A-45" -352.04 0 basemark 0
AnchorPoint: "A-44" -316.84 0 basemark 0
AnchorPoint: "A-43" -352.04 0 basemark 0
AnchorPoint: "A-5" -0.0400391 0 mark 0
LayerCount: 2
Fore
SplineSet
40 -288 m 1xa0
 40 -292 40 -296 40 -300 c 0
 40 -329 43 -355 50 -375 c 2
 87 -475 l 1
 69 -528 59 -550 28 -583 c 1
 20 -585 10 -587 0 -587 c 0
 -13 -587 -20 -585 -29 -582 c 1
 -60 -554 -72 -527 -86 -474 c 1
 -50 -373 l 1
 -44 -362 -40 -315 -40 -301 c 2
 -40 -288 l 1xa0
 -152 -288 l 1
 -152 -144 l 1
 152 -144 l 1
 152 -288 l 1xc0
 40 -288 l 1xa0
EndSplineSet
Validated: 1
LCarets2: 1 0 
MultipleSubs2: "Add hairspace after last low mark subtable" qamats hairspace
MultipleSubs2: "Add thinspace before narrow letter subtable" qamats thinspace
MultipleSubs2: "Add hairspace before low marked Qof" qamats hairspace
EndChar

StartChar: holam
Encoding: 1465 1465 46
Width: 0
GlyphClass: 4
Flags: W
HStem: 1172 214<-70.5529 70.5529>
VStem: -86 172<1184.53 1373.47>
AnchorPoint: "A-35" -352 0 basemark 0
AnchorPoint: "A-34" 475.2 0 basemark 0
AnchorPoint: "A-33" 206.8 200 basemark 0
AnchorPoint: "A-22" -220 0 mark 0
AnchorPoint: "A-21" -220 0 mark 0
AnchorPoint: "A-20" -50 0 mark 0
LayerCount: 2
Fore
SplineSet
0 1172 m 0
 -50 1172 -86 1218 -86 1279 c 0
 -86 1341 -49 1386 0 1386 c 0
 50 1386 86 1340 86 1279 c 0
 86 1217 49 1172 0 1172 c 0
EndSplineSet
Validated: 1
LCarets2: 1 10 
Position2: "Move Holam to Left subtable" dx=-167 dy=0 dh=0 dv=0
EndChar

StartChar: holamhaser
Encoding: 1466 1466 47
Width: 0
GlyphClass: 4
Flags: W
HStem: 1172 214<-70.5529 70.5529>
VStem: -86 172<1184.53 1373.47>
AnchorPoint: "A-35" -352 0 basemark 0
AnchorPoint: "A-34" 132 0 basemark 0
AnchorPoint: "A-33" 206.8 200 basemark 0
LayerCount: 2
Fore
SplineSet
0 1172 m 0
 -50 1172 -86 1218 -86 1279 c 0
 -86 1341 -49 1386 0 1386 c 0
 50 1386 86 1340 86 1279 c 0
 86 1217 49 1172 0 1172 c 0
EndSplineSet
Validated: 1
EndChar

StartChar: qubuts
Encoding: 1467 1467 48
Width: 0
GlyphClass: 4
Flags: W
HStem: -591 209<79.4315 217.23> -457 209<-68.5685 69.23> -323 209<-217.569 -79.77>
VStem: -232 167<-311.367 -125.485> -83 167<-445.367 -259.485> 65 167<-579.367 -393.485>
AnchorPoint: "A-18" -44 0 mark 0
AnchorPoint: "A-15" -44 0 mark 0
AnchorPoint: "A-12" -308 0 mark 0
AnchorPoint: "A-9" -154 0 mark 0
AnchorPoint: "A-72" 0 0 mark 0
AnchorPoint: "A-50" 0 0 basemark 0
AnchorPoint: "A-49" -387.2 0 basemark 0
AnchorPoint: "A-48" -369.6 0 basemark 0
AnchorPoint: "A-47" -61.5996 0 basemark 0
AnchorPoint: "A-46" -26.4004 0 basemark 0
AnchorPoint: "A-45" -396 0 basemark 0
AnchorPoint: "A-44" -396 0 basemark 0
AnchorPoint: "A-43" -396 0 basemark 0
AnchorPoint: "A-5" 0 0 mark 0
LayerCount: 2
Fore
SplineSet
-149 -323 m 0x30
 -198 -323 -232 -276 -232 -219 c 0
 -232 -160 -198 -114 -149 -114 c 0
 -100 -114 -65 -161 -65 -219 c 0
 -65 -281 -104 -323 -149 -323 c 0x30
148 -591 m 0x84
 99 -591 65 -544 65 -487 c 0
 65 -428 99 -382 148 -382 c 0
 197 -382 232 -429 232 -487 c 0
 232 -549 194 -591 148 -591 c 0x84
0 -457 m 0x48
 -49 -457 -83 -410 -83 -353 c 0
 -83 -294 -49 -248 0 -248 c 0
 49 -248 84 -295 84 -353 c 0
 84 -415 45 -457 0 -457 c 0x48
EndSplineSet
Validated: 1
LCarets2: 1 0 
MultipleSubs2: "Add hairspace after last low mark subtable" qubuts hairspace
MultipleSubs2: "Add thinspace before narrow letter subtable" qubuts thinspace
MultipleSubs2: "Add hairspace before low marked Qof" qubuts hairspace
EndChar

StartChar: dagesh
Encoding: 1468 1468 49
Width: 0
GlyphClass: 4
Flags: W
HStem: 412 214<-70.5529 70.5529>
VStem: -86 172<424.531 613.469>
AnchorPoint: "A-3" 0 0 mark 0
LayerCount: 2
Fore
SplineSet
0 412 m 0
 -50 412 -86 458 -86 519 c 0
 -86 581 -49 626 0 626 c 0
 50 626 86 580 86 519 c 0
 86 457 49 412 0 412 c 0
EndSplineSet
Validated: 1
LCarets2: 1 0 
EndChar

StartChar: meteg
Encoding: 1469 1469 50
Width: 0
GlyphClass: 4
Flags: W
HStem: -572 440<-54 54>
VStem: -54 108<-572 -132>
AnchorPoint: "A-63" -158.308 0 mark 0
AnchorPoint: "A-62" -281.508 0 mark 0
AnchorPoint: "A-61" -395.908 0 mark 0
AnchorPoint: "A-17" -43.9082 0 mark 0
AnchorPoint: "A-11" -329.908 0 mark 0
AnchorPoint: "A-8" -175.908 0 mark 0
AnchorPoint: "A-73" -439.908 0 basemark 0
AnchorPoint: "A-72" -351.908 0 basemark 0
AnchorPoint: "A-71" -316.708 0 basemark 0
AnchorPoint: "A-70" -246.308 0 basemark 0
AnchorPoint: "A-54" -263.908 0 basemark 0
AnchorPoint: "A-53" -307.908 0 basemark 0
AnchorPoint: "A-52" -307.908 0 basemark 0
AnchorPoint: "A-51" -307.908 0 basemark 0
AnchorPoint: "A-54" -26.3076 0 mark 0
AnchorPoint: "A-50" -299.108 0 basemark 0
AnchorPoint: "A-49" -219.908 0 basemark 0
AnchorPoint: "A-48" -263.908 0 basemark 0
AnchorPoint: "A-47" -193.508 0 basemark 0
AnchorPoint: "A-46" -211.108 0 basemark 0
AnchorPoint: "A-45" -290.308 0 basemark 0
AnchorPoint: "A-44" -290.308 0 basemark 0
AnchorPoint: "A-43" -263.908 0 basemark 0
AnchorPoint: "A-48" -26.3076 0 mark 0
AnchorPoint: "A-4" 0.0917969 0 mark 0
LayerCount: 2
Fore
SplineSet
54 -572 m 1
 -54 -572 l 1
 -54 -132 l 1
 54 -132 l 1
 54 -572 l 1
EndSplineSet
Validated: 1
LCarets2: 1 0 
MultipleSubs2: "Add hairspace after last low mark subtable" meteg hairspace
MultipleSubs2: "Add thinspace before narrow letter subtable" meteg thinspace
MultipleSubs2: "Add hairspace before low marked Qof" meteg hairspace
EndChar

StartChar: makaf
Encoding: 1470 1470 51
Width: 690
GlyphClass: 2
Flags: W
HStem: 810 276<162.317 605.592>
VStem: 109 549<867.439 1026.76>
AnchorPoint: "A-32" 379.89 0 basechar 0
AnchorPoint: "A-31" 379.89 0 basechar 0
AnchorPoint: "A-30" 467.89 0 basechar 0
AnchorPoint: "A-29" 467.89 0 basechar 0
AnchorPoint: "A-28" 538.29 0 basechar 0
AnchorPoint: "A-27" 98.29 0 basechar 0
AnchorPoint: "A-26" 538.29 0 basechar 0
AnchorPoint: "A-25" 98.29 0 basechar 0
AnchorPoint: "A-24" 379.89 0 basechar 0
AnchorPoint: "A-23" 379.89 0 basechar 0
LayerCount: 2
Fore
SplineSet
202 1086 m 1
 602 1086 l 1
 641 1086 658 1040 658 1011 c 0
 658 1010 658 1010 658 1009 c 1
 658 960 599 810 566 810 c 1
 166 810 l 1
 126 810 109 851 109 880 c 0
 109 881 109 881 109 882 c 1
 109 931 168 1086 202 1086 c 1
EndSplineSet
Validated: 1
EndChar

StartChar: rafe
Encoding: 1471 1471 52
Width: 0
GlyphClass: 4
Flags: W
HStem: 1174 122<-172 172>
VStem: -172 344
AnchorPoint: "A-24" 0 0 mark 0
LayerCount: 2
Fore
SplineSet
172 1174 m 1
 -172 1174 l 1
 -172 1296 l 1
 174 1296 l 1
 172 1174 l 1
EndSplineSet
Validated: 1
LCarets2: 1 0 
EndChar

StartChar: paseq
Encoding: 1472 1472 53
Width: 309
GlyphClass: 2
Flags: W
HStem: 0 690<51.8742 257.914>
VStem: 50 209<9.75446 679.105>
LayerCount: 2
Fore
SplineSet
50 658 m 1
 90 683 129 690 158 690 c 0
 209 690 241 670 259 658 c 1
 259 28 l 1
 236 14 202 0 158 0 c 0
 115 0 81 13 50 27 c 1
 50 658 l 1
EndSplineSet
Validated: 1
EndChar

StartChar: shindot
Encoding: 1473 1473 54
Width: 0
GlyphClass: 4
Flags: W
HStem: 1172 214<-70.5529 70.5529>
VStem: -86 172<1184.53 1373.47>
AnchorPoint: "A-60" -341.44 0 mark 0
LayerCount: 2
Fore
SplineSet
0 1172 m 0
 -50 1172 -86 1218 -86 1279 c 0
 -86 1341 -49 1386 0 1386 c 0
 50 1386 86 1340 86 1279 c 0
 86 1217 49 1172 0 1172 c 0
EndSplineSet
Validated: 1
EndChar

StartChar: sindot
Encoding: 1474 1474 55
Width: 0
GlyphClass: 4
Flags: W
HStem: 1172 214<-70.5529 70.5529>
VStem: -86 172<1184.53 1373.47>
AnchorPoint: "A-60" 369.6 0 mark 0
LayerCount: 2
Fore
SplineSet
0 1172 m 0
 -50 1172 -86 1218 -86 1279 c 0
 -86 1341 -49 1386 0 1386 c 0
 50 1386 86 1340 86 1279 c 0
 86 1217 49 1172 0 1172 c 0
EndSplineSet
Validated: 1
EndChar

StartChar: sofpasuq
Encoding: 1475 1475 56
Width: 509
GlyphClass: 2
Flags: W
VStem: 137 292<108.517 217.96 765.517 874.96>
LayerCount: 2
Fore
SplineSet
283 316 m 1
 385 202 429 199 429 184 c 0
 429 170 428 155 422 143 c 1
 377 80 l 1
 333 -3 l 2
 327 -15 317 -22 299 -18 c 0
 254 -6 167 82 145 108 c 0
 137 119 137 132 137 135 c 0
 137 135 202 260 236 313 c 1
 245 318 260 319 262 319 c 0
 270 319 278 317 281 315 c 1
 283 316 l 1
283 973 m 1
 385 859 429 856 429 841 c 0
 429 827 428 812 422 800 c 1
 377 737 l 1
 333 654 l 2
 327 642 317 635 299 639 c 0
 254 651 167 739 145 765 c 0
 137 776 137 789 137 792 c 0
 137 792 202 917 236 970 c 1
 245 975 260 976 262 976 c 0
 270 976 278 974 281 972 c 1
 283 973 l 1
EndSplineSet
Validated: 1
EndChar

StartChar: upperdot
Encoding: 1476 1476 57
Width: 0
GlyphClass: 4
Flags: W
HStem: 1516 395
VStem: -153 306
AnchorPoint: "A-1" -3.12012 0 mark 0
LayerCount: 2
Fore
SplineSet
153 1709 m 1
 3 1516 l 1
 -153 1712 l 1
 -3 1911 l 1
 153 1709 l 1
EndSplineSet
Validated: 1
LCarets2: 1 0 
EndChar

StartChar: lowerdot
Encoding: 1477 1477 58
Width: 0
GlyphClass: 4
Flags: W
HStem: -911 395
VStem: -153 306
AnchorPoint: "A-1" 0.0800781 0 mark 0
LayerCount: 2
Fore
SplineSet
153 -718 m 1
 3 -911 l 1
 -153 -714 l 1
 -3 -516 l 1
 153 -718 l 1
EndSplineSet
Validated: 1
LCarets2: 1 0 
EndChar

StartChar: nunhapukha
Encoding: 1478 1478 59
Width: 653
GlyphClass: 2
Flags: W
VStem: 150 213<373.83 713.188>
AnchorPoint: "A-32" 378.68 0 basechar 0
AnchorPoint: "A-31" 378.68 0 basechar 0
AnchorPoint: "A-30" 528.28 0 basechar 0
AnchorPoint: "A-29" 528.28 0 basechar 0
AnchorPoint: "A-28" 528.28 0 basechar 0
AnchorPoint: "A-27" 220.28 0 basechar 0
AnchorPoint: "A-26" 493.08 0 basechar 0
AnchorPoint: "A-25" 44.2793 0 basechar 0
AnchorPoint: "A-24" 378.68 0 basechar 0
AnchorPoint: "A-23" 378.68 0 basechar 0
AnchorPoint: "A-1" 378.68 0 basechar 0
LayerCount: 2
Fore
SplineSet
409 1161 m 1
 424 1151 480 1098 504 911 c 2
 509 874 l 1
 472 823 l 2
 447 788 428 770 415 760 c 1
 400 746 383 740 363 740 c 1
 363 721 l 2
 363 636 354 513 327 380 c 1
 320 339 l 1
 330 327 l 1
 338 324 368 317 445 305 c 2
 496 297 l 1
 515 279 l 1
 577 200 589 123 589 39 c 2
 589 16 l 2
 589 -19 588 -41 568 -41 c 2
 566 -41 l 1
 476 -21 382 -16 287 19 c 1
 268 27 119 77 119 285 c 2
 119 319 l 1
 150 421 l 1
 150 452 l 2
 150 476 156 552 179 636 c 1
 206 766 l 1
 196 846 178 863 178 898 c 0
 178 923 182 933 193 982 c 1
 204 996 208 1003 220 1003 c 1
 225 1006 231 1010 253 1025 c 1
 264 1035 287 1049 293 1054 c 2
 340 1098 l 1
 366 1130 l 1
 372 1141 380 1149 385 1157 c 1
 409 1161 l 1
EndSplineSet
Validated: 1
EndChar

StartChar: qamatsqatan
Encoding: 1479 1479 60
Width: 0
GlyphClass: 4
Flags: W
HStem: -278 144<-159 -42 42 159>
VStem: -42 84<-512.953 -278>
AnchorPoint: "A-18" -44 0 mark 0
AnchorPoint: "A-15" -44 0 mark 0
AnchorPoint: "A-12" -308 0 mark 0
AnchorPoint: "A-9" -154 0 mark 0
AnchorPoint: "A-50" 0 0 basemark 0
AnchorPoint: "A-49" -334.4 0 basemark 0
AnchorPoint: "A-48" -299.2 0 basemark 0
AnchorPoint: "A-47" 0 0 basemark 0
AnchorPoint: "A-46" 0 0 basemark 0
AnchorPoint: "A-45" 0 0 basemark 0
AnchorPoint: "A-44" 0 0 basemark 0
AnchorPoint: "A-43" 0 0 basemark 0
AnchorPoint: "A-5" 0 0 mark 0
LayerCount: 2
Fore
SplineSet
-42 -301 m 2
 -42 -278 l 1
 -159 -278 l 1
 -159 -134 l 1
 159 -134 l 1
 159 -278 l 1
 42 -278 l 1
 42 -299 l 2
 42 -362 47 -414 51 -425 c 2
 88 -525 l 1
 69 -581 59 -601 29 -635 c 1
 21 -636 11 -637 0 -637 c 0
 -20 -637 -27 -633 -30 -632 c 1
 -61 -605 -70 -580 -86 -524 c 1
 -49 -423 l 2
 -47 -420 -42 -371 -42 -301 c 2
EndSplineSet
Validated: 1
MultipleSubs2: "Add hairspace after last low mark subtable" qamatsqatan hairspace
MultipleSubs2: "Add thinspace before narrow letter subtable" qamatsqatan thinspace
MultipleSubs2: "Add hairspace before low marked Qof" qamatsqatan hairspace
EndChar

StartChar: alef
Encoding: 1488 1488 61
Width: 1154
GlyphClass: 2
Flags: W
VStem: 90 287<152.826 353.425> 708 341<800.588 1013.22>
AnchorPoint: "A-69" 572.28 0 basechar 0
AnchorPoint: "A-68" 572.28 0 basechar 0
AnchorPoint: "A-67" 572.28 0 basechar 0
AnchorPoint: "A-66" 572.28 0 basechar 0
AnchorPoint: "A-65" 572.28 0 basechar 0
AnchorPoint: "A-64" 572.28 0 basechar 0
AnchorPoint: "A-63" 572.28 0 basechar 0
AnchorPoint: "A-62" 572.28 0 basechar 0
AnchorPoint: "A-61" 572.28 0 basechar 0
AnchorPoint: "A-59" 48.6797 0 basechar 0
AnchorPoint: "A-55" 875.88 0 basechar 0
AnchorPoint: "A-42" 594.28 0 basechar 0
AnchorPoint: "A-39" 572.28 0 basechar 0
AnchorPoint: "A-36" 572.28 0 basechar 0
AnchorPoint: "A-21" -329.72 0 basechar 0
AnchorPoint: "A-16" 572.28 0 basechar 0
AnchorPoint: "A-15" 572.28 0 basechar 0
AnchorPoint: "A-14" 572.28 0 basechar 0
AnchorPoint: "A-13" 572.28 0 basechar 0
AnchorPoint: "A-12" 572.28 0 basechar 0
AnchorPoint: "A-11" 572.28 0 basechar 0
AnchorPoint: "A-10" 572.28 0 basechar 0
AnchorPoint: "A-9" 572.28 0 basechar 0
AnchorPoint: "A-8" 572.28 0 basechar 0
AnchorPoint: "A-41" 572.28 0 basechar 0
AnchorPoint: "A-40" 572.28 0 basechar 0
AnchorPoint: "A-32" 572.28 0 basechar 0
AnchorPoint: "A-31" 572.28 0 basechar 0
AnchorPoint: "A-30" 572.28 0 basechar 0
AnchorPoint: "A-29" 572.28 0 basechar 0
AnchorPoint: "A-28" 475.48 0 basechar 0
AnchorPoint: "A-27" 572.28 0 basechar 0
AnchorPoint: "A-26" 875.88 0 basechar 0
AnchorPoint: "A-25" 180.68 0 basechar 0
AnchorPoint: "A-24" 572.28 0 basechar 0
AnchorPoint: "A-23" 572.28 0 basechar 0
AnchorPoint: "A-20" 83.8799 0 basechar 0
AnchorPoint: "A-7" 572.28 0 basechar 0
AnchorPoint: "A-6" 572.28 0 basechar 0
AnchorPoint: "A-5" 572.28 0 basechar 0
AnchorPoint: "A-4" 572.28 0 basechar 0
AnchorPoint: "A-1" 572.28 0 basechar 0
LayerCount: 2
Fore
SplineSet
55 7 m 0
 55 12 55 17 55 22 c 0
 55 78 73 114 95 151 c 1
 91 190 90 226 90 261 c 0
 90 471 188 755 245 912 c 1
 245 914 l 2
 245 944 275 1047 275 1069 c 1
 330 1069 l 1
 344 1039 376 972 478 906 c 1
 565 834 589 704 708 616 c 9
 772 792 l 17
 742 804 708 819 708 864 c 0
 708 935 724 1117 810 1179 c 1
 885 1150 914 1071 983 1020 c 9
 983 1020 1043 1016 1048 981 c 1
 1048 970 1049 959 1049 948 c 0
 1049 806 1013 734 942 714 c 1
 895 662 840 586 821 508 c 1
 920 403 1041 293 1041 122 c 0
 1041 107 1034 -26 1005 -26 c 0
 996 -26 984 -19 966 0 c 2
 414 570 l 1
 367 615 336 620 316 620 c 0
 266 620 249 568 249 505 c 0
 249 465 255 422 264 384 c 1
 264 360 349 399 367 311 c 0
 375 279 377 249 377 220 c 0
 377 142 355 78 334 32 c 1
 245 17 186 -25 122 -66 c 9
 86 -68 l 17
 65 -60 55 -30 55 7 c 0
EndSplineSet
Validated: 1
LCarets2: 1 90 
MultipleSubs2: "Add hairspace before low marked Qof" alef hairspace
Substitution2: "'jalt' Wide Letter Alternatives in Hebrew subtable" alef.wide
EndChar

StartChar: bet
Encoding: 1489 1489 62
Width: 973
GlyphClass: 2
Flags: W
HStem: -49 351<157.191 477.414> 696 371<313.19 481.732>
AnchorPoint: "A-69" 460.812 0 basechar 0
AnchorPoint: "A-68" 460.812 0 basechar 0
AnchorPoint: "A-67" 460.812 0 basechar 0
AnchorPoint: "A-66" 460.812 0 basechar 0
AnchorPoint: "A-65" 460.812 0 basechar 0
AnchorPoint: "A-64" 460.812 0 basechar 0
AnchorPoint: "A-63" 460.812 0 basechar 0
AnchorPoint: "A-62" 460.812 0 basechar 0
AnchorPoint: "A-61" 460.812 0 basechar 0
AnchorPoint: "A-59" 16.4121 0 basechar 0
AnchorPoint: "A-55" 694.013 0 basechar 0
AnchorPoint: "A-42" 460.812 0 basechar 0
AnchorPoint: "A-39" 456.412 0 basechar 0
AnchorPoint: "A-36" 460.812 0 basechar 0
AnchorPoint: "A-21" -361.987 0 basechar 0
AnchorPoint: "A-16" 460.812 0 basechar 0
AnchorPoint: "A-15" 460.812 0 basechar 0
AnchorPoint: "A-14" 460.812 0 basechar 0
AnchorPoint: "A-13" 460.812 0 basechar 0
AnchorPoint: "A-12" 460.812 0 basechar 0
AnchorPoint: "A-11" 460.812 0 basechar 0
AnchorPoint: "A-10" 469.612 0 basechar 0
AnchorPoint: "A-9" 469.612 0 basechar 0
AnchorPoint: "A-8" 460.812 0 basechar 0
AnchorPoint: "A-41" 460.812 0 basechar 0
AnchorPoint: "A-40" 460.812 0 basechar 0
AnchorPoint: "A-32" 456.412 0 basechar 0
AnchorPoint: "A-31" 456.412 0 basechar 0
AnchorPoint: "A-30" 456.412 0 basechar 0
AnchorPoint: "A-29" 474.013 0 basechar 0
AnchorPoint: "A-28" 443.213 0 basechar 0
AnchorPoint: "A-27" 438.812 0 basechar 0
AnchorPoint: "A-26" 694.013 0 basechar 0
AnchorPoint: "A-25" 78.0127 0 basechar 0
AnchorPoint: "A-24" 460.812 0 basechar 0
AnchorPoint: "A-23" 456.412 0 basechar 0
AnchorPoint: "A-20" -1.1875 0 basechar 0
AnchorPoint: "A-7" 460.812 0 basechar 0
AnchorPoint: "A-6" 460.812 0 basechar 0
AnchorPoint: "A-5" 460.812 0 basechar 0
AnchorPoint: "A-4" 460.812 0 basechar 0
AnchorPoint: "A-1" 456.412 0 basechar 0
LayerCount: 2
Fore
SplineSet
284 696 m 0
 222 696 144 728 144 855 c 0
 144 888 147 1098 204 1142 c 1
 221 1142 242 1122 258 1108 c 9
 313 1069 l 17
 317 1068 325 1067 333 1067 c 0
 375 1067 449 1080 476 1080 c 0
 560 1080 570 1078 634 1078 c 0
 678 1078 706 1065 729 1036 c 1
 753 982 816 871 828 720 c 1
 828 665 833 549 833 506 c 0
 833 487 833 469 834 454 c 9
 892 500 l 25
 930 480 l 17
 948 434 963 380 963 342 c 0
 963 326 957 313 943 304 c 1
 760 43 445 -49 130 -49 c 0
 115 -49 100 -49 85 -49 c 1
 61 -54 66 -26 71 0 c 1
 77 52 62 151 156 281 c 1
 181 302 233 304 233 304 c 17
 260 303 287 302 314 302 c 0
 428 302 541 316 657 380 c 1
 640 386 661 721 493 742 c 1
 412 736 350 696 284 696 c 0
EndSplineSet
Validated: 1
LCarets2: 1 86 
MultipleSubs2: "Add hairspace before low marked Qof" bet hairspace
EndChar

StartChar: gimel
Encoding: 1490 1490 63
Width: 723
GlyphClass: 2
Flags: W
VStem: 185 393<814.417 961.012> 377 164<454.815 751.229>
AnchorPoint: "A-69" 328.44 0 basechar 0
AnchorPoint: "A-68" 302.04 0 basechar 0
AnchorPoint: "A-67" 328.44 0 basechar 0
AnchorPoint: "A-66" 328.44 0 basechar 0
AnchorPoint: "A-65" 328.44 0 basechar 0
AnchorPoint: "A-64" 328.44 0 basechar 0
AnchorPoint: "A-63" 328.44 0 basechar 0
AnchorPoint: "A-62" 328.44 0 basechar 0
AnchorPoint: "A-61" 328.44 0 basechar 0
AnchorPoint: "A-59" 11.6396 0 basechar 0
AnchorPoint: "A-55" 500.04 0 basechar 0
AnchorPoint: "A-42" 328.44 0 basechar 0
AnchorPoint: "A-39" 403.24 0 basechar 0
AnchorPoint: "A-36" 400.6 0 basechar 0
AnchorPoint: "A-22" -120.36 0 basechar 0
AnchorPoint: "A-21" -366.76 0 basechar 0
AnchorPoint: "A-16" 328.44 0 basechar 0
AnchorPoint: "A-15" 328.44 0 basechar 0
AnchorPoint: "A-14" 328.44 0 basechar 0
AnchorPoint: "A-13" 328.44 0 basechar 0
AnchorPoint: "A-12" 328.44 0 basechar 0
AnchorPoint: "A-11" 328.44 0 basechar 0
AnchorPoint: "A-10" 328.44 0 basechar 0
AnchorPoint: "A-9" 328.44 0 basechar 0
AnchorPoint: "A-8" 328.44 0 basechar 0
AnchorPoint: "A-41" 187.64 10 basechar 0
AnchorPoint: "A-40" 328.44 0 basechar 0
AnchorPoint: "A-32" 403.24 0 basechar 0
AnchorPoint: "A-31" 403.24 0 basechar 0
AnchorPoint: "A-30" 561.64 0 basechar 0
AnchorPoint: "A-29" 561.64 0 basechar 0
AnchorPoint: "A-28" 438.44 0 basechar 0
AnchorPoint: "A-27" 244.84 0 basechar 0
AnchorPoint: "A-26" 500.04 0 basechar 0
AnchorPoint: "A-25" 117.24 0 basechar 0
AnchorPoint: "A-24" 400.6 0 basechar 0
AnchorPoint: "A-23" 403.24 0 basechar 0
AnchorPoint: "A-20" 90.8398 0 basechar 0
AnchorPoint: "A-7" 328.44 0 basechar 0
AnchorPoint: "A-6" 328.44 0 basechar 0
AnchorPoint: "A-5" 328.44 0 basechar 0
AnchorPoint: "A-4" 328.44 0 basechar 0
AnchorPoint: "A-1" 403.24 0 basechar 0
LayerCount: 2
Fore
SplineSet
377 597 m 0x40
 377 638 383 652 383 666 c 0
 383 691 370 736 361 752 c 1
 309 788 231 781 185 864 c 1
 233 952 231 1062 329 1146 c 9
 372 1146 l 17
 416 1019 490 1013 561 962 c 1
 573 941 578 915 578 887 c 0x80
 578 833 560 774 541 736 c 1
 553 406 670 298 670 166 c 0
 670 61 621 3 564 -49 c 9
 530 -49 l 25
 477 157 l 17
 351 153 226 139 113 -30 c 9
 54 -33 l 25
 48 -20 l 17
 52 303 205 395 404 418 c 1
 393 494 377 539 377 597 c 0x40
EndSplineSet
Validated: 1
LCarets2: 1 61 
MultipleSubs2: "Add hairspace before narrowletter subtable subtable" hairspace gimel
MultipleSubs2: "Add hairspace before low marked Qof" gimel hairspace
EndChar

StartChar: dalet
Encoding: 1491 1491 64
Width: 953
GlyphClass: 2
Flags: W
HStem: 699 349<272.354 507.073>
VStem: 509 240<370.116 710.546> 630 184<37.0058 240.166>
AnchorPoint: "A-69" 613.3 0 basechar 0
AnchorPoint: "A-68" 542.9 0 basechar 0
AnchorPoint: "A-67" 437.3 0 basechar 0
AnchorPoint: "A-66" 613.3 0 basechar 0
AnchorPoint: "A-65" 525.3 0 basechar 0
AnchorPoint: "A-64" 437.3 0 basechar 0
AnchorPoint: "A-63" 613.3 0 basechar 0
AnchorPoint: "A-62" 525.3 0 basechar 0
AnchorPoint: "A-61" 437.3 0 basechar 0
AnchorPoint: "A-59" 111.7 0 basechar 0
AnchorPoint: "A-55" 815.7 -10 basechar 0
AnchorPoint: "A-42" 538.5 0 basechar 0
AnchorPoint: "A-39" 542.9 0 basechar 0
AnchorPoint: "A-36" 548.18 0 basechar 0
AnchorPoint: "A-21" -266.7 0 basechar 0
AnchorPoint: "A-19" 446.1 0 basechar 0
AnchorPoint: "A-18" 582.5 0 basechar 0
AnchorPoint: "A-17" 582.5 0 basechar 0
AnchorPoint: "A-16" 446.1 0 basechar 0
AnchorPoint: "A-15" 582.5 0 basechar 0
AnchorPoint: "A-14" 582.5 0 basechar 0
AnchorPoint: "A-13" 446.1 0 basechar 0
AnchorPoint: "A-12" 582.5 0 basechar 0
AnchorPoint: "A-11" 582.5 0 basechar 0
AnchorPoint: "A-10" 446.1 0 basechar 0
AnchorPoint: "A-9" 582.5 0 basechar 0
AnchorPoint: "A-8" 582.5 0 basechar 0
AnchorPoint: "A-41" 402.1 0 basechar 0
AnchorPoint: "A-40" 710.1 0 basechar 0
AnchorPoint: "A-32" 542.9 0 basechar 0
AnchorPoint: "A-31" 542.9 0 basechar 0
AnchorPoint: "A-30" 542.9 0 basechar 0
AnchorPoint: "A-29" 542.9 0 basechar 0
AnchorPoint: "A-28" 538.5 0 basechar 0
AnchorPoint: "A-27" 542.9 0 basechar 0
AnchorPoint: "A-26" 815.7 -10 basechar 0
AnchorPoint: "A-25" 94.0996 0 basechar 0
AnchorPoint: "A-24" 548.18 0 basechar 0
AnchorPoint: "A-23" 542.9 0 basechar 0
AnchorPoint: "A-20" 23.7002 0 basechar 0
AnchorPoint: "A-7" 534.1 0 basechar 0
AnchorPoint: "A-6" 591.3 0 basechar 0
AnchorPoint: "A-5" 714.5 0 basechar 0
AnchorPoint: "A-4" 714.5 0 basechar 0
AnchorPoint: "A-1" 542.9 0 basechar 0
LayerCount: 2
Fore
SplineSet
195 1186 m 1xc0
 215 1158 271 1048 397 1048 c 2
 426 1048 l 1
 554 1052 718 1063 753 1139 c 0
 761 1154 766 1173 790 1166 c 1
 807 1116 l 1
 825 996 868 970 868 845 c 0
 868 831 868 815 866 798 c 1
 780 744 749 692 749 638 c 0xc0
 749 628 750 618 752 608 c 1
 754 584 l 1
 754 489 814 310 814 194 c 0
 814 124 742 -36 722 -50 c 0
 711 -58 692 -62 674 -66 c 1
 657 -66 l 1
 630 14 l 1
 630 104 l 1xa0
 532 380 510 596 509 713 c 1
 449 701 332 699 238 699 c 0
 206 699 187 655 151 655 c 0
 150 655 147 656 145 656 c 2
 143 656 l 2
 137 656 118 668 118 726 c 2
 118 736 l 2
 118 743 117 752 124 770 c 1
 123 864 77 864 77 977 c 0
 77 1091 163 1181 168 1186 c 1
 195 1186 l 1xc0
EndSplineSet
Validated: 1
LCarets2: 1 79 
MultipleSubs2: "Add hairspace before low marked Qof" dalet hairspace
Substitution2: "'jalt' Wide Letter Alternatives in Hebrew subtable" dalet.wide
EndChar

StartChar: he
Encoding: 1492 1492 65
Width: 990
GlyphClass: 2
Flags: W
HStem: 732 319<429 671.652>
VStem: 170 47<1100.04 1170.47> 226 155<5.39616 585.932> 681 187<556.812 723.615>
AnchorPoint: "A-69" 519.04 0 basechar 0
AnchorPoint: "A-68" 519.04 0 basechar 0
AnchorPoint: "A-67" 519.04 0 basechar 0
AnchorPoint: "A-66" 519.04 0 basechar 0
AnchorPoint: "A-65" 519.04 0 basechar 0
AnchorPoint: "A-64" 519.04 0 basechar 0
AnchorPoint: "A-63" 519.04 0 basechar 0
AnchorPoint: "A-62" 519.04 0 basechar 0
AnchorPoint: "A-61" 519.04 0 basechar 0
AnchorPoint: "A-59" 4.24023 0 basechar 0
AnchorPoint: "A-55" 813.84 0 basechar 0
AnchorPoint: "A-42" 519.04 0 basechar 0
AnchorPoint: "A-39" 523.44 0 basechar 0
AnchorPoint: "A-36" 517.28 0 basechar 0
AnchorPoint: "A-21" -374.16 0 basechar 0
AnchorPoint: "A-16" 519.04 0 basechar 0
AnchorPoint: "A-15" 519.04 0 basechar 0
AnchorPoint: "A-14" 519.04 0 basechar 0
AnchorPoint: "A-13" 519.04 0 basechar 0
AnchorPoint: "A-12" 519.04 0 basechar 0
AnchorPoint: "A-11" 519.04 0 basechar 0
AnchorPoint: "A-10" 519.04 0 basechar 0
AnchorPoint: "A-9" 519.04 0 basechar 0
AnchorPoint: "A-8" 519.04 0 basechar 0
AnchorPoint: "A-41" 488.24 0 basechar 0
AnchorPoint: "A-40" 519.04 0 basechar 0
AnchorPoint: "A-32" 523.44 0 basechar 0
AnchorPoint: "A-31" 523.44 0 basechar 0
AnchorPoint: "A-30" 523.44 0 basechar 0
AnchorPoint: "A-29" 523.44 0 basechar 0
AnchorPoint: "A-28" 431.04 0 basechar 0
AnchorPoint: "A-27" 523.44 0 basechar 0
AnchorPoint: "A-26" 813.84 0 basechar 0
AnchorPoint: "A-25" 74.6396 0 basechar 0
AnchorPoint: "A-24" 517.28 0 basechar 0
AnchorPoint: "A-23" 523.44 0 basechar 0
AnchorPoint: "A-20" 4.24023 0 basechar 0
AnchorPoint: "A-7" 519.04 0 basechar 0
AnchorPoint: "A-6" 519.04 0 basechar 0
AnchorPoint: "A-5" 519.04 0 basechar 0
AnchorPoint: "A-4" 519.04 0 basechar 0
AnchorPoint: "A-1" 523.44 0 basechar 0
LayerCount: 2
Fore
SplineSet
917 433 m 1
 916 316 880 29 825 29 c 2
 805 29 l 1
 805 54 l 2
 805 55 805 55 805 56 c 1
 777 97 681 295 681 675 c 0
 681 694 679 716 672 724 c 0
 665 732 631 732 603 732 c 2
 429 732 l 1
 429 727 401 606 401 604 c 0
 389 549 381 498 381 451 c 0
 381 387 401 291 401 238 c 0
 401 236 401 234 401 232 c 0
 401 142 368 61 331 -8 c 1
 313 -33 l 1
 282 -33 l 1
 244 98 226 96 226 346 c 0
 226 621 331 652 389 732 c 1
 217 736 l 1
 189 741 147 756 147 756 c 1
 93 793 81 856 81 885 c 0
 81 991 161 1121 170 1148 c 1
 171 1177 217 1187 217 1147 c 0
 217 1101 250 1081 267 1071 c 1
 356 1059 430 1051 501 1051 c 0
 593 1051 678 1065 779 1100 c 1
 798 1090 879 1033 879 855 c 0
 879 790 868 770 868 736 c 0
 868 699 892 667 917 532 c 1
 917 433 l 1
EndSplineSet
Validated: 1
LCarets2: 1 79 
MultipleSubs2: "Add hairspace before low marked Qof" he hairspace
Substitution2: "'jalt' Wide Letter Alternatives in Hebrew subtable" he.wide
EndChar

StartChar: vav
Encoding: 1493 1493 66
Width: 598
GlyphClass: 2
Flags: W
VStem: 83 389<820.094 964.063> 339 184<75.875 608.732> 339 130<367.363 669.766>
AnchorPoint: "A-69" 317.8 0 basechar 0
AnchorPoint: "A-68" 304.6 0 basechar 0
AnchorPoint: "A-67" 353 0 basechar 0
AnchorPoint: "A-66" 317.8 0 basechar 0
AnchorPoint: "A-65" 247.4 0 basechar 0
AnchorPoint: "A-64" 317.8 0 basechar 0
AnchorPoint: "A-63" 317.8 0 basechar 0
AnchorPoint: "A-62" 247.4 0 basechar 0
AnchorPoint: "A-61" 317.8 0 basechar 0
AnchorPoint: "A-59" 102.2 0 basechar 0
AnchorPoint: "A-55" 445.4 0 basechar 0
AnchorPoint: "A-42" 405.8 0 basechar 0
AnchorPoint: "A-39" 348.6 0 basechar 0
AnchorPoint: "A-36" 348.6 0 basechar 0
AnchorPoint: "A-21" 207.8 0 basechar 0
AnchorPoint: "A-16" 348.6 0 basechar 0
AnchorPoint: "A-15" 357.4 0 basechar 0
AnchorPoint: "A-14" 388.2 0 basechar 0
AnchorPoint: "A-13" 357.4 0 basechar 0
AnchorPoint: "A-12" 405.8 0 basechar 0
AnchorPoint: "A-11" 405.8 0 basechar 0
AnchorPoint: "A-10" 357.4 0 basechar 0
AnchorPoint: "A-9" 405.8 0 basechar 0
AnchorPoint: "A-8" 405.8 0 basechar 0
AnchorPoint: "A-41" 102.2 0 basechar 0
AnchorPoint: "A-40" 344.2 0 basechar 0
AnchorPoint: "A-32" 348.6 0 basechar 0
AnchorPoint: "A-31" 348.6 0 basechar 0
AnchorPoint: "A-30" 489.4 0 basechar 0
AnchorPoint: "A-29" 542.2 0 basechar 0
AnchorPoint: "A-28" 529 0 basechar 0
AnchorPoint: "A-27" 190.2 0 basechar 0
AnchorPoint: "A-26" 445.4 0 basechar 0
AnchorPoint: "A-25" 119.8 0 basechar 0
AnchorPoint: "A-24" 348.6 0 basechar 0
AnchorPoint: "A-23" 348.6 0 basechar 0
AnchorPoint: "A-20" 207.8 0 basechar 0
AnchorPoint: "A-7" 357.4 0 basechar 0
AnchorPoint: "A-6" 357.4 0 basechar 0
AnchorPoint: "A-5" 405.8 0 basechar 0
AnchorPoint: "A-4" 405.8 0 basechar 0
AnchorPoint: "A-1" 348.6 0 basechar 0
LayerCount: 2
Fore
SplineSet
265 1154 m 1x80
 381 988 472 1004 472 867 c 0x80
 472 835 469 799 469 759 c 0x20
 469 735 469 710 473 684 c 1
 473 583 523 353 523 262 c 0
 523 245 521 237 521 234 c 0
 521 109 520 21 455 -17 c 1
 418 -64 l 1
 409 -37 l 1
 375 94 356 233 339 398 c 1
 339 475 l 2x40
 339 570 320 642 254 738 c 1
 231 764 206 774 160 781 c 1
 148 780 136 777 128 774 c 9
 83 820 l 18
 81 822 83 825 83 829 c 0
 83 887 193 1130 238 1152 c 1
 265 1154 l 1x80
EndSplineSet
Validated: 1
LCarets2: 1 55 
MultipleSubs2: "Add hairspace before narrowletter subtable subtable" hairspace vav
MultipleSubs2: "Add hairspace before low marked Qof" vav hairspace
EndChar

StartChar: zain
Encoding: 1494 1494 67
Width: 642
GlyphClass: 2
Flags: W
VStem: 264 165<120.653 611.25>
AnchorPoint: "A-69" 224.84 0 basechar 0
AnchorPoint: "A-68" 207.24 0 basechar 0
AnchorPoint: "A-67" 224.84 0 basechar 0
AnchorPoint: "A-66" 224.84 0 basechar 0
AnchorPoint: "A-65" 224.84 0 basechar 0
AnchorPoint: "A-64" 224.84 0 basechar 0
AnchorPoint: "A-63" 224.84 0 basechar 0
AnchorPoint: "A-62" 224.84 0 basechar 0
AnchorPoint: "A-61" 224.84 0 basechar 0
AnchorPoint: "A-59" 57.6396 0 basechar 0
AnchorPoint: "A-55" 497.64 0 basechar 0
AnchorPoint: "A-42" 321.64 0 basechar 0
AnchorPoint: "A-39" 326.04 0 basechar 0
AnchorPoint: "A-36" 339.24 0 basechar 0
AnchorPoint: "A-22" -171.16 0 basechar 0
AnchorPoint: "A-21" -320.76 0 basechar 0
AnchorPoint: "A-16" 295.24 0 basechar 0
AnchorPoint: "A-15" 260.04 0 basechar 0
AnchorPoint: "A-14" 304.04 0 basechar 0
AnchorPoint: "A-13" 312.84 0 basechar 0
AnchorPoint: "A-12" 321.64 0 basechar 0
AnchorPoint: "A-11" 321.64 0 basechar 0
AnchorPoint: "A-10" 312.84 0 basechar 0
AnchorPoint: "A-9" 321.64 0 basechar 0
AnchorPoint: "A-8" 321.64 0 basechar 0
AnchorPoint: "A-41" 4.83984 0 basechar 0
AnchorPoint: "A-40" 268.84 0 basechar 0
AnchorPoint: "A-32" 339.24 0 basechar 0
AnchorPoint: "A-31" 339.24 0 basechar 0
AnchorPoint: "A-30" 444.84 0 basechar 0
AnchorPoint: "A-29" 462.44 0 basechar 0
AnchorPoint: "A-28" 484.44 0 basechar 0
AnchorPoint: "A-27" 251.24 0 basechar 0
AnchorPoint: "A-26" 497.64 0 basechar 0
AnchorPoint: "A-25" 84.04 0 basechar 0
AnchorPoint: "A-24" 339.24 0 basechar 0
AnchorPoint: "A-23" 326.04 0 basechar 0
AnchorPoint: "A-20" 13.6396 0 basechar 0
AnchorPoint: "A-7" 312.84 0 basechar 0
AnchorPoint: "A-6" 312.84 0 basechar 0
AnchorPoint: "A-5" 321.64 0 basechar 0
AnchorPoint: "A-4" 321.64 0 basechar 0
AnchorPoint: "A-1" 326.04 0 basechar 0
LayerCount: 2
Fore
SplineSet
392 649 m 1
 392 649 429 331 429 310 c 2
 429 296 l 2
 429 227 361 -16 256 -16 c 2
 241 -16 l 1
 234 -6 l 1
 252 34 264 103 264 105 c 0
 264 408 256 617 228 692 c 1
 212 768 130 812 88 826 c 1
 83 881 l 1
 86 1086 208 1163 238 1163 c 2
 245 1163 l 1
 296 1116 l 1
 372 1038 569 887 569 880 c 0
 569 839 514 701 474 644 c 0
 472 642 460 640 446 640 c 0
 426 640 400 643 392 649 c 1
EndSplineSet
Validated: 1
LCarets2: 1 57 
MultipleSubs2: "Add hairspace before narrowletter subtable subtable" hairspace zain
MultipleSubs2: "Add hairspace before low marked Qof" zain hairspace
EndChar

StartChar: het
Encoding: 1495 1495 68
Width: 1021
GlyphClass: 2
Flags: W
HStem: 768 336<406.393 753> 768 298<373.856 650.699>
VStem: 193 170<212.761 700.033> 788 138<36.0684 77.824>
AnchorPoint: "A-69" 560.56 0 basechar 0
AnchorPoint: "A-68" 560.56 0 basechar 0
AnchorPoint: "A-67" 560.56 0 basechar 0
AnchorPoint: "A-66" 560.56 0 basechar 0
AnchorPoint: "A-65" 560.56 0 basechar 0
AnchorPoint: "A-64" 560.56 0 basechar 0
AnchorPoint: "A-63" 560.56 0 basechar 0
AnchorPoint: "A-62" 560.56 0 basechar 0
AnchorPoint: "A-61" 560.56 0 basechar 0
AnchorPoint: "A-59" 6.16016 0 basechar 0
AnchorPoint: "A-55" 859.76 0 basechar 0
AnchorPoint: "A-42" 560.56 0 basechar 0
AnchorPoint: "A-39" 551.76 0 basechar 0
AnchorPoint: "A-36" 551.76 0 basechar 0
AnchorPoint: "A-21" -372.24 0 basechar 0
AnchorPoint: "A-16" 560.56 0 basechar 0
AnchorPoint: "A-15" 560.56 0 basechar 0
AnchorPoint: "A-14" 560.56 0 basechar 0
AnchorPoint: "A-13" 560.56 0 basechar 0
AnchorPoint: "A-12" 560.56 0 basechar 0
AnchorPoint: "A-11" 560.56 0 basechar 0
AnchorPoint: "A-10" 560.56 0 basechar 0
AnchorPoint: "A-9" 560.56 0 basechar 0
AnchorPoint: "A-8" 560.56 0 basechar 0
AnchorPoint: "A-41" 516.56 0 basechar 0
AnchorPoint: "A-40" 560.56 0 basechar 0
AnchorPoint: "A-32" 551.76 0 basechar 0
AnchorPoint: "A-31" 551.76 0 basechar 0
AnchorPoint: "A-30" 551.76 0 basechar 0
AnchorPoint: "A-29" 551.76 0 basechar 0
AnchorPoint: "A-28" 432.96 0 basechar 0
AnchorPoint: "A-27" 551.76 0 basechar 0
AnchorPoint: "A-26" 859.76 0 basechar 0
AnchorPoint: "A-25" 76.5605 0 basechar 0
AnchorPoint: "A-24" 551.76 0 basechar 0
AnchorPoint: "A-23" 551.76 0 basechar 0
AnchorPoint: "A-20" 6.16016 0 basechar 0
AnchorPoint: "A-7" 560.56 0 basechar 0
AnchorPoint: "A-6" 560.56 0 basechar 0
AnchorPoint: "A-5" 560.56 0 basechar 0
AnchorPoint: "A-4" 560.56 0 basechar 0
AnchorPoint: "A-3" 535.4 0 basechar 0
AnchorPoint: "A-1" 551.76 0 basechar 0
LayerCount: 2
Fore
SplineSet
560 768 m 0xb0
 519 768 363 759 363 700 c 0
 363 697 363 695 364 692 c 0
 363 675 363 658 363 642 c 0
 363 446 409 341 409 165 c 0
 409 146 408 127 407 106 c 1
 389 33 341 -52 295 -64 c 9
 252 -44 l 17
 233 157 193 361 193 579 c 0
 193 620 195 660 198 702 c 1
 114 750 84 804 84 862 c 0
 84 955 162 1058 209 1158 c 9
 275 1160 l 17
 284 1095 330 1066 434 1066 c 0x70
 548 1066 733 1104 747 1104 c 0
 759 1104 768 1101 780 1092 c 9
 780 1092 883 972 910 846 c 1
 887 780 869 732 869 668 c 0
 869 564 926 449 926 216 c 0
 926 11 884 64 820 -26 c 25
 788 0 l 17
 655 722 l 1
 642 759 603 768 560 768 c 0xb0
EndSplineSet
Validated: 1
LCarets2: 1 77 
MultipleSubs2: "Add hairspace before low marked Qof" het hairspace
EndChar

StartChar: tet
Encoding: 1496 1496 69
Width: 1060
GlyphClass: 2
Flags: W
HStem: 778 316<612.951 763.041>
VStem: 86 333<817.12 972.594> 190 168<427.147 737.938> 480 61<609.508 688.773> 821 161<416.829 716.957>
AnchorPoint: "A-69" 551.955 0 basechar 0
AnchorPoint: "A-68" 551.955 0 basechar 0
AnchorPoint: "A-67" 551.955 0 basechar 0
AnchorPoint: "A-66" 551.955 0 basechar 0
AnchorPoint: "A-65" 551.955 0 basechar 0
AnchorPoint: "A-64" 551.955 0 basechar 0
AnchorPoint: "A-63" 551.955 0 basechar 0
AnchorPoint: "A-62" 551.955 0 basechar 0
AnchorPoint: "A-61" 551.955 0 basechar 0
AnchorPoint: "A-59" 32.7559 0 basechar 0
AnchorPoint: "A-55" 877.556 0 basechar 0
AnchorPoint: "A-42" 551.955 0 basechar 0
AnchorPoint: "A-39" 551.955 0 basechar 0
AnchorPoint: "A-36" 551.955 0 basechar 0
AnchorPoint: "A-21" -345.645 0 basechar 0
AnchorPoint: "A-16" 551.955 0 basechar 0
AnchorPoint: "A-15" 551.955 0 basechar 0
AnchorPoint: "A-14" 551.955 0 basechar 0
AnchorPoint: "A-13" 551.955 0 basechar 0
AnchorPoint: "A-12" 551.955 0 basechar 0
AnchorPoint: "A-11" 551.955 0 basechar 0
AnchorPoint: "A-10" 551.955 0 basechar 0
AnchorPoint: "A-9" 551.955 0 basechar 0
AnchorPoint: "A-8" 551.955 0 basechar 0
AnchorPoint: "A-41" 507.955 0 basechar 0
AnchorPoint: "A-40" 551.955 0 basechar 0
AnchorPoint: "A-32" 551.955 0 basechar 0
AnchorPoint: "A-31" 551.955 0 basechar 0
AnchorPoint: "A-30" 551.955 0 basechar 0
AnchorPoint: "A-29" 551.955 0 basechar 0
AnchorPoint: "A-28" 459.556 0 basechar 0
AnchorPoint: "A-27" 551.955 0 basechar 0
AnchorPoint: "A-26" 877.556 0 basechar 0
AnchorPoint: "A-25" 85.5557 0 basechar 0
AnchorPoint: "A-24" 551.955 0 basechar 0
AnchorPoint: "A-23" 551.955 0 basechar 0
AnchorPoint: "A-20" 15.1553 0 basechar 0
AnchorPoint: "A-7" 551.955 0 basechar 0
AnchorPoint: "A-6" 551.955 0 basechar 0
AnchorPoint: "A-5" 551.955 0 basechar 0
AnchorPoint: "A-4" 551.955 0 basechar 0
AnchorPoint: "A-1" 551.955 0 basechar 0
LayerCount: 2
Fore
SplineSet
162 1050 m 1xd8
 165 1102 163 1100 190 1140 c 9xb8
 223 1172 l 17
 273 1028 344 1034 407 974 c 1
 415 944 419 915 419 886 c 0xd8
 419 826 400 769 364 716 c 1
 360 691 358 666 358 642 c 0
 358 509 413 394 469 280 c 1
 569 309 670 337 770 398 c 1
 792 436 821 540 821 540 c 17
 821 550 l 2
 821 667 768 772 679 778 c 1
 677 778 l 2
 598 778 541 642 541 594 c 9
 506 608 l 17
 484 640 480 683 480 734 c 27
 480 920 583 1094 732 1094 c 27
 869 1094 976 972 981 782 c 0
 981 763 982 743 982 724 c 0
 982 538 963 331 828 150 c 1
 698 73 568 -4 413 -40 c 1
 406 -40 l 2
 366 -40 343 -25 321 -9 c 1
 250 184 190 377 190 577 c 0xb8
 190 639 196 701 208 764 c 1
 196 794 181 816 156 816 c 0
 143 816 128 811 109 798 c 9
 86 812 l 17
 85 820 86 828 86 835 c 0
 86 943 132 1003 162 1050 c 1xd8
EndSplineSet
Validated: 1
LCarets2: 1 88 
MultipleSubs2: "Add hairspace before low marked Qof" tet hairspace
EndChar

StartChar: yod
Encoding: 1497 1497 70
Width: 560
GlyphClass: 2
Flags: W
VStem: 369 119<414.875 665.203> 369 35<339.552 359.791>
AnchorPoint: "A-69" 305.1 0 basechar 0
AnchorPoint: "A-68" 296.3 0 basechar 0
AnchorPoint: "A-67" 305.1 0 basechar 0
AnchorPoint: "A-66" 305.1 0 basechar 0
AnchorPoint: "A-65" 305.1 0 basechar 0
AnchorPoint: "A-64" 305.1 0 basechar 0
AnchorPoint: "A-63" 305.1 0 basechar 0
AnchorPoint: "A-62" 305.1 0 basechar 0
AnchorPoint: "A-61" 305.1 0 basechar 0
AnchorPoint: "A-59" 120.3 0 basechar 0
AnchorPoint: "A-55" 472.3 0 basechar 0
AnchorPoint: "A-42" 331.5 0 basechar 0
AnchorPoint: "A-39" 344.7 0 basechar 0
AnchorPoint: "A-36" 366.7 0 basechar 0
AnchorPoint: "A-22" -134.9 0 basechar 0
AnchorPoint: "A-21" -258.1 0 basechar 0
AnchorPoint: "A-16" 322.7 0 basechar 0
AnchorPoint: "A-15" 322.7 0 basechar 0
AnchorPoint: "A-14" 322.7 0 basechar 0
AnchorPoint: "A-13" 322.7 0 basechar 0
AnchorPoint: "A-12" 322.7 0 basechar 0
AnchorPoint: "A-11" 322.7 0 basechar 0
AnchorPoint: "A-10" 322.7 0 basechar 0
AnchorPoint: "A-9" 340.3 0 basechar 0
AnchorPoint: "A-8" 322.7 0 basechar 0
AnchorPoint: "A-41" 49.9004 0 basechar 0
AnchorPoint: "A-40" 331.5 0 basechar 0
AnchorPoint: "A-32" 366.7 0 basechar 0
AnchorPoint: "A-31" 366.7 0 basechar 0
AnchorPoint: "A-30" 507.5 0 basechar 0
AnchorPoint: "A-29" 560.3 0 basechar 0
AnchorPoint: "A-28" 547.1 0 basechar 0
AnchorPoint: "A-27" 239.1 0 basechar 0
AnchorPoint: "A-26" 472.3 0 basechar 0
AnchorPoint: "A-25" 120.3 0 basechar 0
AnchorPoint: "A-24" 366.7 0 basechar 0
AnchorPoint: "A-23" 344.7 0 basechar 0
AnchorPoint: "A-20" 58.7002 0 basechar 0
AnchorPoint: "A-7" 322.7 0 basechar 0
AnchorPoint: "A-6" 322.7 0 basechar 0
AnchorPoint: "A-5" 322.7 0 basechar 0
AnchorPoint: "A-4" 322.7 0 basechar 0
AnchorPoint: "A-1" 344.7 0 basechar 0
LayerCount: 2
Fore
SplineSet
369 1044 m 0x40
 444 963 488 864 488 697 c 0
 488 694 488 691 488 688 c 0x80
 486 468 420 354 404 332 c 1
 404 323 l 1
 404 323 369 350 369 353 c 2
 369 390 l 2
 369 622 325 662 308 693 c 0
 278 746 245 771 206 771 c 0
 181 771 154 761 123 742 c 1
 84 799 l 1
 88 1000 183 1070 188 1100 c 1
 224 1180 244 1195 258 1195 c 1
 271 1189 274 1193 282 1177 c 0
 295 1152 300 1104 308 1100 c 0
 324 1093 349 1065 369 1044 c 0x40
EndSplineSet
Validated: 1
LCarets2: 1 52 
MultipleSubs2: "Add hairspace before narrowletter subtable subtable" hairspace yod
MultipleSubs2: "Add hairspace before low marked Qof" yod hairspace
EndChar

StartChar: finalkaf
Encoding: 1498 1498 71
Width: 845
GlyphClass: 2
Flags: W
HStem: 802 253<217.147 446.63> 838 217<229.729 477.971>
VStem: 479 197<377.856 835.557> 622 149<-307.5 64.8815>
AnchorPoint: "A-69" 239.86 0 basechar 0
AnchorPoint: "A-68" 178.26 0 basechar 0
AnchorPoint: "A-67" 72.6602 0 basechar 0
AnchorPoint: "A-66" 239.86 0 basechar 0
AnchorPoint: "A-65" 178.26 0 basechar 0
AnchorPoint: "A-64" 72.6602 0 basechar 0
AnchorPoint: "A-63" 239.86 0 basechar 0
AnchorPoint: "A-62" 178.26 0 basechar 0
AnchorPoint: "A-61" 72.6602 0 basechar 0
AnchorPoint: "A-59" 37.46 0 basechar 0
AnchorPoint: "A-55" 741.46 0 basechar 0
AnchorPoint: "A-42" 160.66 0 basechar 0
AnchorPoint: "A-39" 468.66 0 basechar 0
AnchorPoint: "A-36" 473.94 0 basechar 0
AnchorPoint: "A-21" -340.94 0 basechar 0
AnchorPoint: "A-16" 81.46 0 basechar 0
AnchorPoint: "A-15" 187.06 0 basechar 0
AnchorPoint: "A-14" 310.26 0 basechar 0
AnchorPoint: "A-13" -68.1396 0 basechar 0
AnchorPoint: "A-12" 37.46 0 basechar 0
AnchorPoint: "A-11" 160.66 0 basechar 0
AnchorPoint: "A-10" 81.46 0 basechar 0
AnchorPoint: "A-9" 187.06 0 basechar 0
AnchorPoint: "A-8" 310.26 0 basechar 0
AnchorPoint: "A-41" 459.86 0 basechar 0
AnchorPoint: "A-40" 354.26 0 basechar 0
AnchorPoint: "A-32" 468.66 0 basechar 0
AnchorPoint: "A-31" 468.66 0 basechar 0
AnchorPoint: "A-30" 468.66 0 basechar 0
AnchorPoint: "A-29" 468.66 0 basechar 0
AnchorPoint: "A-28" 464.26 0 basechar 0
AnchorPoint: "A-27" 468.66 0 basechar 0
AnchorPoint: "A-26" 741.46 0 basechar 0
AnchorPoint: "A-25" 37.46 0 basechar 0
AnchorPoint: "A-24" 473.94 0 basechar 0
AnchorPoint: "A-23" 468.66 0 basechar 0
AnchorPoint: "A-20" -32.9395 0 basechar 0
AnchorPoint: "A-7" 169.46 0 basechar 0
AnchorPoint: "A-6" 239.86 0 basechar 0
AnchorPoint: "A-5" 336.66 0 basechar 0
AnchorPoint: "A-4" 354.26 0 basechar 0
AnchorPoint: "A-1" 468.66 0 basechar 0
LayerCount: 2
Fore
SplineSet
226 802 m 0xa0
 156 802 104 815 104 893 c 0
 104 904 106 918 108 933 c 1
 82 952 70 980 70 1018 c 0
 70 1063 89 1123 127 1200 c 9
 161 1203 l 17
 184 1088 267 1055 355 1055 c 0
 462 1055 576 1102 605 1107 c 9
 641 1070 l 17
 674 1070 716 1003 718 957 c 1
 714 911 681 859 681 814 c 0
 681 810 681 806 682 802 c 1
 678 752 676 707 676 666 c 0xa0
 676 511 699 411 708 276 c 1
 726 134 771 52 771 -77 c 0
 771 -86 771 -95 770 -105 c 10
 754 -249 l 17
 742 -284 717 -327 682 -378 c 9
 622 -339 l 17x90
 605 15 530 288 511 468 c 1
 503 554 479 667 479 789 c 0
 479 801 478 813 479 825 c 1
 457 834 438 838 418 838 c 0x60
 357 838 306 802 226 802 c 0xa0
EndSplineSet
Validated: 1
LCarets2: 1 67 
MultipleSubs2: "Add hairspace before low marked Qof" finalkaf hairspace
EndChar

StartChar: kaf
Encoding: 1499 1499 72
Width: 934
GlyphClass: 2
Flags: W
HStem: 813 257<287.094 606.766>
VStem: 691 158<309.976 545.356>
AnchorPoint: "A-69" 403.22 0 basechar 0
AnchorPoint: "A-68" 403.22 0 basechar 0
AnchorPoint: "A-67" 403.22 0 basechar 0
AnchorPoint: "A-66" 403.22 0 basechar 0
AnchorPoint: "A-65" 403.22 0 basechar 0
AnchorPoint: "A-64" 403.22 0 basechar 0
AnchorPoint: "A-63" 403.22 0 basechar 0
AnchorPoint: "A-62" 403.22 0 basechar 0
AnchorPoint: "A-61" 403.22 0 basechar 0
AnchorPoint: "A-59" -1.58008 0 basechar 0
AnchorPoint: "A-55" 667.22 0 basechar 0
AnchorPoint: "A-42" 403.22 0 basechar 0
AnchorPoint: "A-39" 429.62 0 basechar 0
AnchorPoint: "A-36" 429.62 0 basechar 0
AnchorPoint: "A-21" -379.98 0 basechar 0
AnchorPoint: "A-16" 403.22 0 basechar 0
AnchorPoint: "A-15" 403.22 0 basechar 0
AnchorPoint: "A-14" 403.22 0 basechar 0
AnchorPoint: "A-13" 403.22 0 basechar 0
AnchorPoint: "A-12" 403.22 0 basechar 0
AnchorPoint: "A-11" 403.22 0 basechar 0
AnchorPoint: "A-10" 403.22 0 basechar 0
AnchorPoint: "A-9" 403.22 0 basechar 0
AnchorPoint: "A-8" 403.22 0 basechar 0
AnchorPoint: "A-41" 332.82 0 basechar 0
AnchorPoint: "A-40" 403.22 0 basechar 0
AnchorPoint: "A-32" 429.62 0 basechar 0
AnchorPoint: "A-31" 429.62 0 basechar 0
AnchorPoint: "A-30" 447.22 0 basechar 0
AnchorPoint: "A-29" 464.82 0 basechar 0
AnchorPoint: "A-28" 425.22 0 basechar 0
AnchorPoint: "A-27" 394.42 0 basechar 0
AnchorPoint: "A-26" 667.22 0 basechar 0
AnchorPoint: "A-25" 51.2207 0 basechar 0
AnchorPoint: "A-24" 429.62 0 basechar 0
AnchorPoint: "A-23" 429.62 0 basechar 0
AnchorPoint: "A-20" -36.7793 0 basechar 0
AnchorPoint: "A-7" 403.22 0 basechar 0
AnchorPoint: "A-6" 403.22 0 basechar 0
AnchorPoint: "A-5" 403.22 0 basechar 0
AnchorPoint: "A-4" 403.22 0 basechar 0
AnchorPoint: "A-1" 429.62 0 basechar 0
LayerCount: 2
Fore
SplineSet
218 1190 m 1
 265 1127 318 1069 384 1069 c 2
 386 1069 l 9
 582 1070 l 17
 589 1070 l 2
 718 1070 790 984 815 831 c 1
 839 667 840 503 849 339 c 1
 852 309 854 282 854 259 c 0
 854 83 765 57 686 15 c 1
 493 -43 301 -41 108 -62 c 9
 90 0 l 17
 104 87 137 224 178 244 c 9
 239 270 l 17
 274 269 310 268 344 268 c 0
 426 268 504 273 578 288 c 1
 670 297 691 350 691 416 c 0
 691 438 689 462 686 486 c 9
 634 722 l 17
 610 788 558 813 490 813 c 0
 416 813 322 783 223 746 c 9
 161 696 l 25
 134 720 l 17
 130 744 122 759 122 787 c 0
 122 798 124 812 127 828 c 1
 126 859 130 889 102 930 c 1
 127 1044 174 1136 218 1190 c 1
EndSplineSet
Validated: 1
LCarets2: 1 79 
MultipleSubs2: "Add hairspace before low marked Qof" kaf hairspace
Substitution2: "'jalt' Wide Letter Alternatives in Hebrew subtable" kaf.wide
EndChar

StartChar: lamed
Encoding: 1500 1500 73
Width: 858
GlyphClass: 2
Flags: HW
HStem: 792 255<313.765 517.688>
VStem: -4 258<1512.72 1666.7> 60 136<1101.28 1392.17> 450 29<138 193.611>
AnchorPoint: "A-69" 295.86 0 basechar 0
AnchorPoint: "A-68" 269.46 0 basechar 0
AnchorPoint: "A-67" 295.86 0 basechar 0
AnchorPoint: "A-66" 295.86 0 basechar 0
AnchorPoint: "A-65" 269.46 0 basechar 0
AnchorPoint: "A-64" 295.86 0 basechar 0
AnchorPoint: "A-63" 295.86 0 basechar 0
AnchorPoint: "A-62" 269.46 0 basechar 0
AnchorPoint: "A-61" 295.86 0 basechar 0
AnchorPoint: "A-59" 23.0605 0 basechar 0
AnchorPoint: "A-55" 709.46 0 basechar 0
AnchorPoint: "A-42" 383.86 0 basechar 0
AnchorPoint: "A-39" 507.06 0 basechar 0
AnchorPoint: "A-36" 568.66 0 basechar 0
AnchorPoint: "A-21" -355.34 0 basechar 0
AnchorPoint: "A-16" 383.86 0 basechar 0
AnchorPoint: "A-15" 383.86 0 basechar 0
AnchorPoint: "A-14" 383.86 0 basechar 0
AnchorPoint: "A-13" 383.86 0 basechar 0
AnchorPoint: "A-12" 383.86 0 basechar 0
AnchorPoint: "A-11" 383.86 0 basechar 0
AnchorPoint: "A-10" 392.66 0 basechar 0
AnchorPoint: "A-9" 401.46 0 basechar 0
AnchorPoint: "A-8" 392.66 0 basechar 0
AnchorPoint: "A-41" 243.06 0 basechar 0
AnchorPoint: "A-40" 383.86 0 basechar 0
AnchorPoint: "A-32" 753.46 0 basechar 0
AnchorPoint: "A-31" 595.06 0 basechar 0
AnchorPoint: "A-30" 251.86 0 basechar 0
AnchorPoint: "A-29" 225.46 0 basechar 0
AnchorPoint: "A-28" 185.86 0 basechar 0
AnchorPoint: "A-27" 445.46 0 basechar 0
AnchorPoint: "A-26" 709.46 0 basechar 0
AnchorPoint: "A-25" -170.54 0 basechar 0
AnchorPoint: "A-24" 568.66 0 basechar 0
AnchorPoint: "A-23" 507.06 0 basechar 0
AnchorPoint: "A-20" -276.14 0 basechar 0
AnchorPoint: "A-7" 401.46 0 basechar 0
AnchorPoint: "A-6" 383.86 0 basechar 0
AnchorPoint: "A-5" 401.46 0 basechar 0
AnchorPoint: "A-4" 401.46 0 basechar 0
AnchorPoint: "A-1" 550 328 basechar 0
LayerCount: 2
Fore
SplineSet
164 1780 m 1xd0
 216 1736 237 1656 254 1572 c 1xd0
 212 1452 196 1362 196 1289 c 0
 196 1181 232 1113 270 1047 c 1
 299 1047 l 2
 428 1047 548 1065 666 1092 c 9
 772 1023 l 17
 780 985 784 948 784 911 c 0
 784 871 779 833 769 795 c 9
 649 651 l 17
 554 497 524 314 479 138 c 9
 450 123 l 17
 438 203 421 279 421 367 c 0
 421 470 444 588 524 744 c 9
 515 792 l 25
 136 765 l 17
 96 882 60 1004 60 1169 c 0xb0
 60 1246 101 1360 120 1460 c 1
 120 1500 105 1509 86 1509 c 0
 72 1509 55 1504 39 1502 c 1
 9 1503 0 1525 -4 1550 c 1
 35 1676 65 1741 164 1780 c 1xd0
EndSplineSet
LCarets2: 1 62 
MultipleSubs2: "Add hairspace before low marked Qof" lamed hairspace
MultipleSubs2: "Add thispace after Lamed subtable" lamed thinspace
Substitution2: "'jalt' Wide Letter Alternatives in Hebrew subtable" lamed.wide
EndChar

StartChar: finalmem
Encoding: 1501 1501 74
Width: 914
GlyphClass: 2
Flags: W
HStem: 831 303<466.25 596.101>
VStem: 648 204<387.942 765.024>
AnchorPoint: "A-69" 470.12 0 basechar 0
AnchorPoint: "A-68" 470.12 0 basechar 0
AnchorPoint: "A-67" 470.12 0 basechar 0
AnchorPoint: "A-66" 470.12 0 basechar 0
AnchorPoint: "A-65" 470.12 0 basechar 0
AnchorPoint: "A-64" 470.12 0 basechar 0
AnchorPoint: "A-63" 470.12 0 basechar 0
AnchorPoint: "A-62" 470.12 0 basechar 0
AnchorPoint: "A-61" 470.12 0 basechar 0
AnchorPoint: "A-59" -27.0801 0 basechar 0
AnchorPoint: "A-55" 764.92 0 basechar 0
AnchorPoint: "A-42" 470.12 0 basechar 0
AnchorPoint: "A-39" 474.521 0 basechar 0
AnchorPoint: "A-36" 474.521 0 basechar 0
AnchorPoint: "A-21" -405.48 0 basechar 0
AnchorPoint: "A-16" 470.12 0 basechar 0
AnchorPoint: "A-15" 470.12 0 basechar 0
AnchorPoint: "A-14" 470.12 0 basechar 0
AnchorPoint: "A-13" 470.12 0 basechar 0
AnchorPoint: "A-12" 470.12 0 basechar 0
AnchorPoint: "A-11" 470.12 0 basechar 0
AnchorPoint: "A-10" 470.12 0 basechar 0
AnchorPoint: "A-9" 470.12 0 basechar 0
AnchorPoint: "A-8" 470.12 0 basechar 0
AnchorPoint: "A-41" 377.72 0 basechar 0
AnchorPoint: "A-40" 470.12 0 basechar 0
AnchorPoint: "A-32" 474.521 0 basechar 0
AnchorPoint: "A-31" -27.0801 0 basechar 0
AnchorPoint: "A-30" 474.521 0 basechar 0
AnchorPoint: "A-29" 474.521 0 basechar 0
AnchorPoint: "A-28" 399.72 0 basechar 0
AnchorPoint: "A-27" 474.521 0 basechar 0
AnchorPoint: "A-26" 764.92 0 basechar 0
AnchorPoint: "A-25" 8.12012 0 basechar 0
AnchorPoint: "A-24" 474.521 0 basechar 0
AnchorPoint: "A-23" 474.521 0 basechar 0
AnchorPoint: "A-20" -62.2793 0 basechar 0
AnchorPoint: "A-7" 470.12 0 basechar 0
AnchorPoint: "A-6" 470.12 0 basechar 0
AnchorPoint: "A-5" 470.12 0 basechar 0
AnchorPoint: "A-4" 470.12 0 basechar 0
AnchorPoint: "A-3" 487.4 20 basechar 0
AnchorPoint: "A-1" 474.521 0 basechar 0
LayerCount: 2
Fore
SplineSet
561 831 m 1
 475 827 467 840 343 767 c 1
 328 750 311 740 305 693 c 1
 315 566 352 455 379 337 c 1
 387 306 400 296 415 296 c 0
 418 296 420 296 423 297 c 0
 517 314 547 329 644 387 c 1
 647 407 648 433 648 464 c 0
 648 595 622 800 561 831 c 1
207 828 m 9
 170 868 78 904 78 982 c 0
 78 1020 114 1042 131 1083 c 1
 147 1134 168 1161 191 1186 c 9
 222 1184 l 17
 245 1133 287 1108 323 1074 c 1
 351 1074 l 2
 477 1074 577 1134 630 1134 c 0
 755 1134 852 719 852 429 c 2
 852 422 l 1
 844 348 844 262 791 206 c 0
 721 130 587 21 363 -42 c 1
 340 -39 323 -31 323 0 c 0
 323 3 323 10 324 14 c 1
 271 177 168 278 168 526 c 0
 168 608 179 706 207 828 c 9
EndSplineSet
Validated: 1
LCarets2: 1 72 
MultipleSubs2: "Add hairspace before low marked Qof" finalmem hairspace
Substitution2: "'jalt' Wide Letter Alternatives in Hebrew subtable" finalmem.wide
EndChar

StartChar: mem
Encoding: 1502 1502 75
Width: 1056
GlyphClass: 2
Flags: W
HStem: -30 297<348.211 621.428>
AnchorPoint: "A-69" 517.3 0 basechar 0
AnchorPoint: "A-68" 517.3 0 basechar 0
AnchorPoint: "A-67" 517.3 0 basechar 0
AnchorPoint: "A-66" 517.3 0 basechar 0
AnchorPoint: "A-65" 517.3 0 basechar 0
AnchorPoint: "A-64" 517.3 0 basechar 0
AnchorPoint: "A-63" 517.3 0 basechar 0
AnchorPoint: "A-62" 517.3 0 basechar 0
AnchorPoint: "A-61" 517.3 0 basechar 0
AnchorPoint: "A-59" 15.7002 0 basechar 0
AnchorPoint: "A-55" 860.5 0 basechar 0
AnchorPoint: "A-42" 517.3 0 basechar 0
AnchorPoint: "A-39" 543.7 0 basechar 0
AnchorPoint: "A-36" 543.7 0 basechar 0
AnchorPoint: "A-21" -362.7 0 basechar 0
AnchorPoint: "A-16" 517.3 0 basechar 0
AnchorPoint: "A-15" 517.3 0 basechar 0
AnchorPoint: "A-14" 517.3 0 basechar 0
AnchorPoint: "A-13" 517.3 0 basechar 0
AnchorPoint: "A-12" 517.3 0 basechar 0
AnchorPoint: "A-11" 517.3 0 basechar 0
AnchorPoint: "A-10" 517.3 0 basechar 0
AnchorPoint: "A-9" 517.3 0 basechar 0
AnchorPoint: "A-8" 517.3 0 basechar 0
AnchorPoint: "A-41" 499.7 0 basechar 0
AnchorPoint: "A-40" 517.3 0 basechar 0
AnchorPoint: "A-32" 543.7 10 basechar 0
AnchorPoint: "A-31" 543.7 0 basechar 0
AnchorPoint: "A-30" 543.7 0 basechar 0
AnchorPoint: "A-29" 543.7 0 basechar 0
AnchorPoint: "A-28" 442.5 0 basechar 0
AnchorPoint: "A-27" 543.7 0 basechar 0
AnchorPoint: "A-26" 860.5 0 basechar 0
AnchorPoint: "A-25" 121.3 0 basechar 0
AnchorPoint: "A-24" 543.7 0 basechar 0
AnchorPoint: "A-23" 543.7 0 basechar 0
AnchorPoint: "A-20" 50.9004 0 basechar 0
AnchorPoint: "A-7" 517.3 0 basechar 0
AnchorPoint: "A-6" 517.3 0 basechar 0
AnchorPoint: "A-5" 517.3 0 basechar 0
AnchorPoint: "A-4" 517.3 0 basechar 0
AnchorPoint: "A-1" 543.7 0 basechar 0
LayerCount: 2
Fore
SplineSet
487 984 m 1
 580 1046 674 1097 780 1101 c 1
 1001 891 941 522 1001 318 c 1
 994 102 742 -18 286 -30 c 1
 282 -18 279 -4 279 10 c 0
 279 81 328 173 367 267 c 1
 547 287 690 319 809 378 c 1
 809 394 l 2
 809 528 742 771 650 774 c 1
 526 768 321 468 102 110 c 9
 88 154 l 17
 135 327 210 558 286 699 c 1
 290 717 292 733 292 747 c 0
 292 843 188 835 127 927 c 9
 161 1011 l 17
 178 1119 210 1139 238 1188 c 9
 302 1188 l 17
 341 1112 391 1040 487 984 c 1
EndSplineSet
Validated: 1
LCarets2: 1 88 
MultipleSubs2: "Add hairspace before low marked Qof" mem hairspace
EndChar

StartChar: finalnun
Encoding: 1503 1503 76
Width: 586
GlyphClass: 2
Flags: W
VStem: 84 405<823.311 973.197> 197 174<294.487 718.922>
AnchorPoint: "A-69" -84.46 0 basechar 0
AnchorPoint: "A-68" -163.66 0 basechar 0
AnchorPoint: "A-67" -278.06 0 basechar 0
AnchorPoint: "A-66" -84.46 0 basechar 0
AnchorPoint: "A-65" -163.66 0 basechar 0
AnchorPoint: "A-64" -278.06 0 basechar 0
AnchorPoint: "A-63" -84.46 0 basechar 0
AnchorPoint: "A-62" -163.66 0 basechar 0
AnchorPoint: "A-61" -278.06 0 basechar 0
AnchorPoint: "A-59" 117.94 0 basechar 0
AnchorPoint: "A-55" 461.14 0 basechar 0
AnchorPoint: "A-42" -128.46 0 basechar 0
AnchorPoint: "A-39" 364.34 0 basechar 0
AnchorPoint: "A-36" 364.34 0 basechar 0
AnchorPoint: "A-21" -260.46 0 basechar 0
AnchorPoint: "A-16" -260.46 0 basechar 0
AnchorPoint: "A-15" -163.66 0 basechar 0
AnchorPoint: "A-14" -36.0605 0 basechar 0
AnchorPoint: "A-13" -410.06 0 basechar 0
AnchorPoint: "A-12" -286.86 0 basechar 0
AnchorPoint: "A-11" -185.66 0 basechar 0
AnchorPoint: "A-10" -260.46 0 basechar 0
AnchorPoint: "A-9" -163.66 0 basechar 0
AnchorPoint: "A-8" -36.0605 0 basechar 0
AnchorPoint: "A-41" 144.34 0 basechar 0
AnchorPoint: "A-40" 56.3398 0 basechar 0
AnchorPoint: "A-32" 364.34 0 basechar 0
AnchorPoint: "A-31" 364.34 0 basechar 0
AnchorPoint: "A-30" 522.74 0 basechar 0
AnchorPoint: "A-29" 575.54 0 basechar 0
AnchorPoint: "A-28" 544.74 0 basechar 0
AnchorPoint: "A-27" 188.34 0 basechar 0
AnchorPoint: "A-26" 461.14 0 basechar 0
AnchorPoint: "A-25" 117.94 0 basechar 0
AnchorPoint: "A-24" 364.34 0 basechar 0
AnchorPoint: "A-23" 364.34 0 basechar 0
AnchorPoint: "A-20" 56.3398 0 basechar 0
AnchorPoint: "A-7" -146.06 0 basechar 0
AnchorPoint: "A-6" -110.86 0 basechar 0
AnchorPoint: "A-5" 3.54004 0 basechar 0
AnchorPoint: "A-4" 117.94 0 basechar 0
AnchorPoint: "A-3" 81.2998 0 basechar 0
AnchorPoint: "A-1" 364.34 0 basechar 0
LayerCount: 2
Fore
SplineSet
371 591 m 0x40
 371 341 459 245 459 -44 c 0
 459 -165 440 -265 416 -336 c 9
 363 -378 l 17
 280 -182 197 134 197 462 c 0x40
 197 549 204 636 216 723 c 9
 92 822 l 17
 86 850 84 876 84 900 c 0
 84 1053 185 1139 228 1206 c 9
 267 1194 l 17
 293 1030 383 1043 444 978 c 1
 476 941 489 909 489 879 c 0x80
 489 797 396 736 372 666 c 1
 372 638 371 613 371 591 c 0x40
EndSplineSet
Validated: 1
LCarets2: 1 52 
MultipleSubs2: "Add hairspace before narrowletter subtable subtable" hairspace finalnun
MultipleSubs2: "Add hairspace before low marked Qof" finalnun hairspace
EndChar

StartChar: nun
Encoding: 1504 1504 77
Width: 692
GlyphClass: 2
Flags: W
VStem: 410 125<485.089 730.692>
AnchorPoint: "A-69" 270.071 0 basechar 0
AnchorPoint: "A-68" 270.071 0 basechar 0
AnchorPoint: "A-67" 270.071 0 basechar 0
AnchorPoint: "A-66" 270.071 0 basechar 0
AnchorPoint: "A-65" 270.071 0 basechar 0
AnchorPoint: "A-64" 270.071 0 basechar 0
AnchorPoint: "A-63" 270.071 0 basechar 0
AnchorPoint: "A-62" 270.071 0 basechar 0
AnchorPoint: "A-61" 270.071 0 basechar 0
AnchorPoint: "A-59" 50.0713 0 basechar 0
AnchorPoint: "A-55" 534.071 0 basechar 0
AnchorPoint: "A-42" 331.671 0 basechar 0
AnchorPoint: "A-39" 384.471 0 basechar 0
AnchorPoint: "A-36" 402.071 0 basechar 0
AnchorPoint: "A-22" -108.329 0 basechar 0
AnchorPoint: "A-21" -306.329 0 basechar 0
AnchorPoint: "A-16" 331.671 0 basechar 0
AnchorPoint: "A-15" 331.671 0 basechar 0
AnchorPoint: "A-14" 331.671 0 basechar 0
AnchorPoint: "A-13" 331.671 0 basechar 0
AnchorPoint: "A-12" 331.671 0 basechar 0
AnchorPoint: "A-11" 331.671 0 basechar 0
AnchorPoint: "A-10" 331.671 0 basechar 0
AnchorPoint: "A-9" 331.671 0 basechar 0
AnchorPoint: "A-8" 331.671 0 basechar 0
AnchorPoint: "A-41" 120.472 0 basechar 0
AnchorPoint: "A-40" 331.671 0 basechar 0
AnchorPoint: "A-32" 402.071 0 basechar 0
AnchorPoint: "A-31" 402.071 0 basechar 0
AnchorPoint: "A-30" 534.071 0 basechar 0
AnchorPoint: "A-29" 551.671 0 basechar 0
AnchorPoint: "A-28" 476.871 0 basechar 0
AnchorPoint: "A-27" 278.871 0 basechar 0
AnchorPoint: "A-26" 534.071 0 basechar 0
AnchorPoint: "A-25" 155.671 0 basechar 0
AnchorPoint: "A-24" 402.071 0 basechar 0
AnchorPoint: "A-23" 384.471 0 basechar 0
AnchorPoint: "A-20" 102.871 0 basechar 0
AnchorPoint: "A-7" 331.671 0 basechar 0
AnchorPoint: "A-6" 331.671 0 basechar 0
AnchorPoint: "A-5" 331.671 0 basechar 0
AnchorPoint: "A-4" 331.671 0 basechar 0
AnchorPoint: "A-1" 384.471 0 basechar 0
LayerCount: 2
Fore
SplineSet
314 1198 m 9
 349 1182 l 17
 349 1179 348 1177 348 1174 c 0
 348 1108 447 1067 520 1020 c 1
 560 1002 573 972 573 939 c 0
 572 889 545 829 535 782 c 1
 543 566 626 316 626 316 c 17
 626 303 l 2
 626 -15 251 47 86 -25 c 9
 48 57 l 17
 51 211 101 247 140 311 c 9
 368 366 l 17
 391 389 391 392 410 438 c 1
 401 788 311 834 207 940 c 1
 213 1096 247 1143 314 1198 c 9
EndSplineSet
Validated: 1
LCarets2: 1 59 
MultipleSubs2: "Add hairspace before narrowletter subtable subtable" hairspace nun
MultipleSubs2: "Add hairspace before low marked Qof" nun hairspace
EndChar

StartChar: samekh
Encoding: 1505 1505 78
Width: 951
GlyphClass: 2
Flags: W
HStem: 798 272<526.491 683.102>
VStem: 175 133<366 674.227> 727 105<388 721.806>
AnchorPoint: "A-69" 505.86 0 basechar 0
AnchorPoint: "A-68" 505.86 0 basechar 0
AnchorPoint: "A-67" 505.86 0 basechar 0
AnchorPoint: "A-66" 505.86 0 basechar 0
AnchorPoint: "A-65" 505.86 0 basechar 0
AnchorPoint: "A-64" 505.86 0 basechar 0
AnchorPoint: "A-63" 505.86 0 basechar 0
AnchorPoint: "A-62" 505.86 0 basechar 0
AnchorPoint: "A-61" 505.86 0 basechar 0
AnchorPoint: "A-59" -4.54004 0 basechar 0
AnchorPoint: "A-55" 805.06 0 basechar 0
AnchorPoint: "A-42" 505.86 0 basechar 0
AnchorPoint: "A-39" 497.06 0 basechar 0
AnchorPoint: "A-36" 505.86 0 basechar 0
AnchorPoint: "A-21" -374.14 0 basechar 0
AnchorPoint: "A-16" 505.86 0 basechar 0
AnchorPoint: "A-15" 505.86 0 basechar 0
AnchorPoint: "A-14" 505.86 0 basechar 0
AnchorPoint: "A-13" 505.86 0 basechar 0
AnchorPoint: "A-12" 505.86 0 basechar 0
AnchorPoint: "A-11" 505.86 0 basechar 0
AnchorPoint: "A-10" 505.86 0 basechar 0
AnchorPoint: "A-9" 505.86 0 basechar 0
AnchorPoint: "A-8" 505.86 0 basechar 0
AnchorPoint: "A-41" 435.46 0 basechar 0
AnchorPoint: "A-40" 505.86 0 basechar 0
AnchorPoint: "A-32" 497.06 0 basechar 0
AnchorPoint: "A-31" 497.06 0 basechar 0
AnchorPoint: "A-30" 497.06 0 basechar 0
AnchorPoint: "A-29" 497.06 0 basechar 0
AnchorPoint: "A-28" 422.26 0 basechar 0
AnchorPoint: "A-27" 497.06 0 basechar 0
AnchorPoint: "A-26" 805.06 0 basechar 0
AnchorPoint: "A-25" 48.2598 0 basechar 0
AnchorPoint: "A-24" 505.86 0 basechar 0
AnchorPoint: "A-23" 497.06 0 basechar 0
AnchorPoint: "A-20" -4.54004 0 basechar 0
AnchorPoint: "A-7" 505.86 0 basechar 0
AnchorPoint: "A-6" 505.86 0 basechar 0
AnchorPoint: "A-5" 505.86 0 basechar 0
AnchorPoint: "A-4" 505.86 0 basechar 0
AnchorPoint: "A-1" 497.06 0 basechar 0
LayerCount: 2
Fore
SplineSet
309 598 m 0
 355 342 450 268 512 222 c 9
 560 248 l 17
 613 290 696 386 727 456 c 1
 728 474 727 495 727 516 c 0
 727 638 702 795 626 798 c 9
 390 764 l 17
 348 751 308 681 308 616 c 0
 308 610 308 604 309 598 c 0
175 1200 m 1
 210 1182 l 1
 211 1080 302 1068 371 1068 c 0
 388 1068 405 1069 418 1069 c 10
 779 1070 l 17
 853 986 874 855 874 730 c 0
 874 555 832 392 832 388 c 1
 688 27 546 0 461 -59 c 9
 376 -51 l 17
 220 131 175 298 175 434 c 0
 175 564 216 665 237 722 c 1
 208 773 194 827 96 878 c 1
 88 908 79 939 79 971 c 0
 79 992 83 1014 94 1034 c 1
 109 1117 138 1174 175 1200 c 1
EndSplineSet
Validated: 1
LCarets2: 1 73 
MultipleSubs2: "Add hairspace before low marked Qof" samekh hairspace
EndChar

StartChar: ayin
Encoding: 1506 1506 79
Width: 1107
GlyphClass: 2
Flags: W
VStem: 271 41<1156.37 1194> 719 314<784.22 979.267>
AnchorPoint: "A-69" 479.7 0 basechar 0
AnchorPoint: "A-68" 479.7 0 basechar 0
AnchorPoint: "A-67" 479.7 0 basechar 0
AnchorPoint: "A-66" 479.7 0 basechar 0
AnchorPoint: "A-65" 479.7 0 basechar 0
AnchorPoint: "A-64" 479.7 0 basechar 0
AnchorPoint: "A-63" 479.7 0 basechar 0
AnchorPoint: "A-62" 479.7 0 basechar 0
AnchorPoint: "A-61" 479.7 0 basechar 0
AnchorPoint: "A-59" 30.9004 0 basechar 0
AnchorPoint: "A-55" 849.3 0 basechar 0
AnchorPoint: "A-42" 479.7 0 basechar 0
AnchorPoint: "A-39" 506.1 0 basechar 0
AnchorPoint: "A-36" 506.1 0 basechar 0
AnchorPoint: "A-21" -347.5 0 basechar 0
AnchorPoint: "A-16" 514.9 0 basechar 0
AnchorPoint: "A-15" 479.7 0 basechar 0
AnchorPoint: "A-14" 479.7 0 basechar 0
AnchorPoint: "A-13" 514.9 0 basechar 0
AnchorPoint: "A-12" 479.7 0 basechar 0
AnchorPoint: "A-11" 479.7 0 basechar 0
AnchorPoint: "A-10" 514.9 0 basechar 0
AnchorPoint: "A-9" 479.7 0 basechar 0
AnchorPoint: "A-8" 479.7 0 basechar 0
AnchorPoint: "A-41" 338.9 0 basechar 0
AnchorPoint: "A-40" 479.7 0 basechar 0
AnchorPoint: "A-32" 506.1 0 basechar 0
AnchorPoint: "A-31" 506.1 0 basechar 0
AnchorPoint: "A-30" 506.1 0 basechar 0
AnchorPoint: "A-29" 506.1 0 basechar 0
AnchorPoint: "A-28" 457.7 0 basechar 0
AnchorPoint: "A-27" 506.1 0 basechar 0
AnchorPoint: "A-26" 849.3 0 basechar 0
AnchorPoint: "A-25" 92.5 0 basechar 0
AnchorPoint: "A-24" 506.1 0 basechar 0
AnchorPoint: "A-23" 506.1 0 basechar 0
AnchorPoint: "A-20" 13.2998 0 basechar 0
AnchorPoint: "A-7" 444.5 0 basechar 0
AnchorPoint: "A-6" 514.9 0 basechar 0
AnchorPoint: "A-5" 479.7 0 basechar 0
AnchorPoint: "A-4" 479.7 0 basechar 0
AnchorPoint: "A-3" 572.3 40 basechar 0
AnchorPoint: "A-1" 506.1 0 basechar 0
LayerCount: 2
Fore
SplineSet
866 1137 m 17
 890 1031 942 1010 991 981 c 1
 1022 944 1033 909 1033 873 c 0
 1033 813 1001 753 974 687 c 9
 919 651 l 17
 808 363 659 -105 72 -153 c 9
 50 -123 l 25
 93 168 l 25
 312 216 l 17
 313 260 316 321 316 387 c 0
 316 594 295 858 175 858 c 1
 156 860 151 906 144 945 c 1
 164 1107 206 1041 271 1194 c 9
 312 1194 l 17
 312 1192 l 2
 312 1146 340 1113 367 1075 c 9
 494 993 l 17
 495 981 495 970 495 958 c 0
 495 857 469 762 405 702 c 1
 449 557 455 399 472 246 c 1
 605 339 718 530 825 711 c 1
 788 769 719 802 719 889 c 0
 719 917 726 951 744 993 c 9
 852 1185 l 25
 866 1137 l 17
EndSplineSet
Validated: 1
LCarets2: 1 94 
Substitution2: "Automatic Alternate Ayin Subtable" ayin.alt
MultipleSubs2: "Add hairspace before low marked Qof" ayin hairspace
Substitution2: "'salt' Stylistic Alternatives in Hebrew subtable" ayin.alt
EndChar

StartChar: finalpe
Encoding: 1507 1507 80
Width: 845
GlyphClass: 2
Flags: W
VStem: 87 316<359.275 480.595> 129 173<650.84 822.038>
AnchorPoint: "A-69" 309.08 0 basechar 0
AnchorPoint: "A-68" 212.28 0 basechar 0
AnchorPoint: "A-67" 115.48 0 basechar 0
AnchorPoint: "A-66" 309.08 0 basechar 0
AnchorPoint: "A-65" 212.28 0 basechar 0
AnchorPoint: "A-64" 115.48 0 basechar 0
AnchorPoint: "A-63" 309.08 0 basechar 0
AnchorPoint: "A-62" 212.28 0 basechar 0
AnchorPoint: "A-61" 115.48 0 basechar 0
AnchorPoint: "A-59" 9.87988 0 basechar 0
AnchorPoint: "A-55" 669.88 0 basechar 0
AnchorPoint: "A-42" 238.68 0 basechar 0
AnchorPoint: "A-39" 449.88 0 basechar 0
AnchorPoint: "A-36" 449.88 0 basechar 0
AnchorPoint: "A-21" -368.52 0 basechar 0
AnchorPoint: "A-16" 89.0801 0 basechar 0
AnchorPoint: "A-15" 221.08 0 basechar 0
AnchorPoint: "A-14" 335.48 0 basechar 0
AnchorPoint: "A-13" -25.3203 0 basechar 0
AnchorPoint: "A-12" 80.2793 0 basechar 0
AnchorPoint: "A-11" 203.48 0 basechar 0
AnchorPoint: "A-10" 89.0801 0 basechar 0
AnchorPoint: "A-9" 221.08 0 basechar 0
AnchorPoint: "A-8" 335.48 0 basechar 0
AnchorPoint: "A-41" 511.479 0 basechar 0
AnchorPoint: "A-40" 414.68 0 basechar 0
AnchorPoint: "A-32" 449.88 0 basechar 0
AnchorPoint: "A-31" 449.88 0 basechar 0
AnchorPoint: "A-30" 485.08 0 basechar 0
AnchorPoint: "A-29" 502.68 0 basechar 0
AnchorPoint: "A-28" 436.68 0 basechar 0
AnchorPoint: "A-27" 397.08 0 basechar 0
AnchorPoint: "A-26" 669.88 0 basechar 0
AnchorPoint: "A-25" 89.0801 0 basechar 0
AnchorPoint: "A-24" 449.88 0 basechar 0
AnchorPoint: "A-23" 449.88 0 basechar 0
AnchorPoint: "A-20" 9.87988 0 basechar 0
AnchorPoint: "A-7" 238.68 0 basechar 0
AnchorPoint: "A-6" 291.48 0 basechar 0
AnchorPoint: "A-5" 388.28 0 basechar 0
AnchorPoint: "A-4" 414.68 0 basechar 0
AnchorPoint: "A-1" 449.88 0 basechar 0
LayerCount: 2
Fore
SplineSet
123 272 m 1x80
 118 274 87 283 87 345 c 2
 87 354 l 2x80
 87 426 127 476 154 513 c 1
 140 551 129 619 129 671 c 0
 129 822 199 949 239 999 c 1
 256 1019 l 1
 262 1057 l 2
 263 1057 281 1215 335 1215 c 2
 349 1215 l 1
 363 1186 l 1
 367 1171 395 1122 427 1108 c 2
 539 1062 l 1
 608 1025 699 987 699 789 c 0
 699 408 803 -19 803 -148 c 1
 789 -306 745 -360 733 -387 c 2
 719 -416 l 1
 660 -341 l 1
 587 -111 656 -87 558 566 c 1
 526 747 484 835 382 835 c 0
 358 835 302 808 302 742 c 2
 302 729 l 2x40
 302 619 388 667 388 616 c 2
 388 596 l 1
 390 567 403 515 403 483 c 0
 403 422 382 382 335 332 c 1
 311 332 l 1
 305 334 289 334 279 334 c 0
 166 331 154 280 123 272 c 1x80
EndSplineSet
Validated: 1
LCarets2: 1 72 
MultipleSubs2: "Add hairspace before low marked Qof" finalpe hairspace
EndChar

StartChar: pe
Encoding: 1508 1508 81
Width: 879
GlyphClass: 2
Flags: W
HStem: -31 332<119.109 549.473>
VStem: 137 161<688.758 794.113> 174 275<443.75 655.72> 674 157<352.131 608.241>
AnchorPoint: "A-69" 423.92 0 basechar 0
AnchorPoint: "A-68" 423.92 0 basechar 0
AnchorPoint: "A-67" 423.92 0 basechar 0
AnchorPoint: "A-66" 423.92 0 basechar 0
AnchorPoint: "A-65" 423.92 0 basechar 0
AnchorPoint: "A-64" 423.92 0 basechar 0
AnchorPoint: "A-63" 423.92 0 basechar 0
AnchorPoint: "A-62" 423.92 0 basechar 0
AnchorPoint: "A-61" 423.92 0 basechar 0
AnchorPoint: "A-59" -7.2793 0 basechar 0
AnchorPoint: "A-55" 731.92 0 basechar 0
AnchorPoint: "A-42" 423.92 0 basechar 0
AnchorPoint: "A-39" 494.32 0 basechar 0
AnchorPoint: "A-36" 495.2 0 basechar 0
AnchorPoint: "A-21" -385.68 0 basechar 0
AnchorPoint: "A-16" 432.72 0 basechar 0
AnchorPoint: "A-15" 432.72 0 basechar 0
AnchorPoint: "A-14" 432.72 0 basechar 0
AnchorPoint: "A-13" 432.72 0 basechar 0
AnchorPoint: "A-12" 432.72 0 basechar 0
AnchorPoint: "A-11" 432.72 0 basechar 0
AnchorPoint: "A-10" 432.72 0 basechar 0
AnchorPoint: "A-9" 432.72 0 basechar 0
AnchorPoint: "A-8" 432.72 0 basechar 0
AnchorPoint: "A-41" 353.52 0 basechar 0
AnchorPoint: "A-40" 423.92 0 basechar 0
AnchorPoint: "A-32" 494.32 0 basechar 0
AnchorPoint: "A-31" 494.32 0 basechar 0
AnchorPoint: "A-30" 538.32 0 basechar 0
AnchorPoint: "A-29" 555.92 0 basechar 0
AnchorPoint: "A-28" 419.521 0 basechar 0
AnchorPoint: "A-27" 432.72 0 basechar 0
AnchorPoint: "A-26" 731.92 0 basechar 0
AnchorPoint: "A-25" 124.72 0 basechar 0
AnchorPoint: "A-24" 495.2 0 basechar 0
AnchorPoint: "A-23" 494.32 0 basechar 0
AnchorPoint: "A-20" 63.1201 0 basechar 0
AnchorPoint: "A-7" 432.72 0 basechar 0
AnchorPoint: "A-6" 432.72 0 basechar 0
AnchorPoint: "A-5" 432.72 0 basechar 0
AnchorPoint: "A-4" 432.72 0 basechar 0
AnchorPoint: "A-1" 494.32 0 basechar 0
LayerCount: 2
Fore
SplineSet
174 527 m 0xb0
 174 609 137 615 137 670 c 27
 137 728 158 758 170 814 c 17
 182 887 214 959 276 1032 c 1
 298 1092 340 1134 372 1206 c 9
 399 1190 l 17
 406 1152 412 1114 436 1086 c 1
 778 1022 790 604 820 432 c 1
 827 401 831 369 831 337 c 0
 831 258 807 178 751 96 c 1
 607 4 375 -31 190 -31 c 0
 145 -31 102 -29 65 -25 c 1
 65 -20 l 2
 65 92 92 198 137 301 c 1
 191 299 245 297 299 297 c 1
 318 296 336 295 354 295 c 0
 482 295 588 324 674 374 c 1
 674 396 l 2
 674 608 551 798 388 798 c 2
 383 798 l 1
 344 794 298 811 298 709 c 2
 298 704 l 1xd0
 351 684 449 662 449 572 c 27
 449 468 385 394 290 392 c 1
 220 394 199 420 170 456 c 1
 170 484 174 504 174 527 c 0xb0
EndSplineSet
Validated: 1
LCarets2: 1 72 
MultipleSubs2: "Add hairspace before low marked Qof" pe hairspace
EndChar

StartChar: finaltsadi
Encoding: 1509 1509 82
Width: 866
GlyphClass: 2
Flags: W
VStem: 80 296<847.963 1067.91> 192 115<633.912 778.324> 499 297<797.925 979.42>
AnchorPoint: "A-69" 657.7 0 basechar 0
AnchorPoint: "A-68" 701.7 0 basechar 0
AnchorPoint: "A-67" 701.7 0 basechar 0
AnchorPoint: "A-66" 657.7 0 basechar 0
AnchorPoint: "A-65" 701.7 0 basechar 0
AnchorPoint: "A-64" 701.7 0 basechar 0
AnchorPoint: "A-63" 657.7 0 basechar 0
AnchorPoint: "A-62" 701.7 0 basechar 0
AnchorPoint: "A-61" 701.7 0 basechar 0
AnchorPoint: "A-59" 191.3 0 basechar 0
AnchorPoint: "A-55" 912.9 0 basechar 0
AnchorPoint: "A-42" 789.7 0 basechar 0
AnchorPoint: "A-39" 613.7 0 basechar 0
AnchorPoint: "A-36" 613.7 0 basechar 0
AnchorPoint: "A-21" -187.1 0 basechar 0
AnchorPoint: "A-16" 974.5 0 basechar 0
AnchorPoint: "A-15" 877.7 0 basechar 0
AnchorPoint: "A-14" 754.5 0 basechar 0
AnchorPoint: "A-13" 974.5 0 basechar 0
AnchorPoint: "A-12" 877.7 0 basechar 0
AnchorPoint: "A-11" 754.5 0 basechar 0
AnchorPoint: "A-10" 974.5 0 basechar 0
AnchorPoint: "A-9" 877.7 0 basechar 0
AnchorPoint: "A-8" 754.5 0 basechar 0
AnchorPoint: "A-41" 516.9 0 basechar 0
AnchorPoint: "A-40" 763.3 0 basechar 0
AnchorPoint: "A-32" 613.7 0 basechar 0
AnchorPoint: "A-31" 613.7 0 basechar 0
AnchorPoint: "A-30" 613.7 0 basechar 0
AnchorPoint: "A-29" 613.7 0 basechar 0
AnchorPoint: "A-28" 618.1 0 basechar 0
AnchorPoint: "A-27" 578.5 0 basechar 0
AnchorPoint: "A-26" 912.9 0 basechar 0
AnchorPoint: "A-25" 191.3 0 basechar 0
AnchorPoint: "A-24" 613.7 0 basechar 0
AnchorPoint: "A-23" 613.7 0 basechar 0
AnchorPoint: "A-20" 129.7 0 basechar 0
AnchorPoint: "A-7" 956.9 0 basechar 0
AnchorPoint: "A-6" 904.1 0 basechar 0
AnchorPoint: "A-5" 798.5 0 basechar 0
AnchorPoint: "A-4" 701.7 0 basechar 0
AnchorPoint: "A-3" 217.7 0 basechar 0
AnchorPoint: "A-1" 613.7 0 basechar 0
LayerCount: 2
Fore
SplineSet
331 1107 m 1xa0
 352 1097 366 1084 376 1069 c 1
 376 1060 376 1051 376 1042 c 0xa0
 376 904 348 843 307 807 c 1
 311 727 332 651 372 579 c 1
 402 676 448 755 499 828 c 1
 499 847 l 2
 499 1051 576 1101 631 1128 c 1
 668 1046 721 989 796 963 c 1
 778 855 748 774 708 714 c 1
 688 723 670 727 652 727 c 0
 555 727 477 600 405 438 c 1
 479 246 515 66 515 -102 c 0
 515 -191 504 -277 484 -360 c 9
 446 -348 l 17
 389 97 192 227 192 675 c 0
 192 699 192 723 192 747 c 1x60
 144 776 109 809 93 846 c 1
 85 888 80 922 80 953 c 0
 80 1018 115 1140 165 1146 c 1
 176 1105 201 1069 232 1069 c 2
 248 1069 l 2
 282 1069 306 1071 331 1107 c 1xa0
EndSplineSet
Validated: 1
LCarets2: 1 71 
MultipleSubs2: "Add hairspace before low marked Qof" finaltsadi hairspace
EndChar

StartChar: tsadi
Encoding: 1510 1510 83
Width: 1012
GlyphClass: 2
Flags: W
HStem: -42 312<156.733 463.5>
VStem: 136 296<806.393 1012.51> 269 155<621.915 769.523> 597 342<840.823 995.842>
AnchorPoint: "A-69" 420.3 0 basechar 0
AnchorPoint: "A-68" 420.3 0 basechar 0
AnchorPoint: "A-67" 420.3 0 basechar 0
AnchorPoint: "A-66" 420.3 0 basechar 0
AnchorPoint: "A-65" 420.3 0 basechar 0
AnchorPoint: "A-64" 420.3 0 basechar 0
AnchorPoint: "A-63" 420.3 0 basechar 0
AnchorPoint: "A-62" 420.3 0 basechar 0
AnchorPoint: "A-61" 420.3 0 basechar 0
AnchorPoint: "A-59" 15.5 0 basechar 0
AnchorPoint: "A-55" 763.5 0 basechar 0
AnchorPoint: "A-42" 420.3 0 basechar 0
AnchorPoint: "A-39" 455.5 0 basechar 0
AnchorPoint: "A-36" 455.5 0 basechar 0
AnchorPoint: "A-21" -362.9 0 basechar 0
AnchorPoint: "A-16" 420.3 0 basechar 0
AnchorPoint: "A-15" 420.3 0 basechar 0
AnchorPoint: "A-14" 420.3 0 basechar 0
AnchorPoint: "A-13" 420.3 0 basechar 0
AnchorPoint: "A-12" 420.3 0 basechar 0
AnchorPoint: "A-11" 420.3 0 basechar 0
AnchorPoint: "A-10" 420.3 0 basechar 0
AnchorPoint: "A-9" 420.3 0 basechar 0
AnchorPoint: "A-8" 420.3 0 basechar 0
AnchorPoint: "A-41" 297.1 0 basechar 0
AnchorPoint: "A-40" 420.3 0 basechar 0
AnchorPoint: "A-32" 455.5 0 basechar 0
AnchorPoint: "A-31" 455.5 0 basechar 0
AnchorPoint: "A-30" 455.5 0 basechar 0
AnchorPoint: "A-29" 473.1 0 basechar 0
AnchorPoint: "A-28" 442.3 0 basechar 0
AnchorPoint: "A-27" 420.3 0 basechar 0
AnchorPoint: "A-26" 763.5 0 basechar 0
AnchorPoint: "A-25" 50.7002 0 basechar 0
AnchorPoint: "A-24" 455.5 0 basechar 0
AnchorPoint: "A-23" 455.5 0 basechar 0
AnchorPoint: "A-20" -37.2998 0 basechar 0
AnchorPoint: "A-7" 420.3 0 basechar 0
AnchorPoint: "A-6" 420.3 0 basechar 0
AnchorPoint: "A-5" 420.3 0 basechar 0
AnchorPoint: "A-4" 420.3 0 basechar 0
AnchorPoint: "A-1" 455.5 0 basechar 0
LayerCount: 2
Fore
SplineSet
607 839 m 1xb0
 599 878 597 910 597 940 c 0
 597 961 598 984 606 1011 c 1
 622 1039 625 1043 627 1052 c 1
 728 1172 l 1
 740 1135 l 1
 787 995 939 1014 939 948 c 2
 939 911 l 1
 934 890 913 775 826 707 c 1
 765 745 l 1
 751 745 l 2
 616 745 588 503 584 487 c 1
 594 452 l 1
 653 322 772 328 782 234 c 1
 782 232 l 2
 782 207 770 132 731 97 c 1
 604 -4 341 -42 142 -42 c 2
 46 -42 l 1
 56 -9 l 2
 84 83 132 166 152 211 c 1
 165 261 192 266 206 270 c 1
 209 270 l 2
 380 270 438 285 471 316 c 1
 450 334 416 359 398 388 c 2
 334 482 l 1
 286 563 269 669 269 731 c 2
 269 749 l 1xb0
 194 777 146 836 136 881 c 1
 136 893 l 2
 136 904 137 917 142 931 c 2
 162 994 l 2
 178 1044 195 1089 213 1128 c 1
 232 1165 l 1
 242 1165 l 1
 246 1162 252 1168 262 1153 c 0
 322 1064 323 1045 402 1007 c 0
 430 994 432 960 432 904 c 2
 432 878 l 2xd0
 432 794 424 794 424 773 c 0
 426 712 454 646 476 607 c 1
 492 701 547 775 607 839 c 1xb0
EndSplineSet
Validated: 1
LCarets2: 1 83 
MultipleSubs2: "Add hairspace before low marked Qof" tsadi hairspace
EndChar

StartChar: kof
Encoding: 1511 1511 84
Width: 868
GlyphClass: 2
Flags: W
HStem: 808 248<353.781 642.986>
VStem: 136 182<313.518 716.761> 288 120<-304.79 12.318> 644 148<727 807.985>
AnchorPoint: "A-69" 544.96 0 basechar 0
AnchorPoint: "A-68" 544.96 0 basechar 0
AnchorPoint: "A-67" 544.96 0 basechar 0
AnchorPoint: "A-66" 544.96 0 basechar 0
AnchorPoint: "A-65" 544.96 0 basechar 0
AnchorPoint: "A-64" 544.96 0 basechar 0
AnchorPoint: "A-63" 544.96 0 basechar 0
AnchorPoint: "A-62" 544.96 0 basechar 0
AnchorPoint: "A-61" 544.96 0 basechar 0
AnchorPoint: "A-59" 69.7598 0 basechar 0
AnchorPoint: "A-55" 879.36 0 basechar 0
AnchorPoint: "A-42" 747.36 0 basechar 0
AnchorPoint: "A-39" 571.36 0 basechar 0
AnchorPoint: "A-36" 571.36 0 basechar 0
AnchorPoint: "A-21" -308.64 0 basechar 0
AnchorPoint: "A-16" 782.56 0 basechar 0
AnchorPoint: "A-15" 685.76 0 basechar 0
AnchorPoint: "A-14" 580.16 0 basechar 0
AnchorPoint: "A-13" 782.56 0 basechar 0
AnchorPoint: "A-12" 685.76 0 basechar 0
AnchorPoint: "A-11" 580.16 0 basechar 0
AnchorPoint: "A-10" 791.36 0 basechar 0
AnchorPoint: "A-9" 782.56 0 basechar 0
AnchorPoint: "A-8" 720.96 0 basechar 0
AnchorPoint: "A-41" 421.76 0 basechar 0
AnchorPoint: "A-40" 597.76 0 basechar 0
AnchorPoint: "A-32" 571.36 0 basechar 0
AnchorPoint: "A-31" 571.36 0 basechar 0
AnchorPoint: "A-30" 571.36 0 basechar 0
AnchorPoint: "A-29" 571.36 0 basechar 0
AnchorPoint: "A-28" 496.56 0 basechar 0
AnchorPoint: "A-27" 571.36 0 basechar 0
AnchorPoint: "A-26" 879.36 0 basechar 0
AnchorPoint: "A-25" 113.76 0 basechar 0
AnchorPoint: "A-24" 571.36 0 basechar 0
AnchorPoint: "A-23" 571.36 0 basechar 0
AnchorPoint: "A-20" 52.1602 0 basechar 0
AnchorPoint: "A-7" 782.56 0 basechar 0
AnchorPoint: "A-6" 729.76 0 basechar 0
AnchorPoint: "A-5" 650.56 0 basechar 0
AnchorPoint: "A-4" 544.96 0 basechar 0
AnchorPoint: "A-1" 571.36 0 basechar 0
LayerCount: 2
Fore
SplineSet
644 748 m 1xb0
 644 765 l 2
 644 787 643 808 600 808 c 0
 501 808 441 802 403 792 c 2
 353 778 l 1
 345 751 l 1
 324 669 l 1
 322 658 321 643 321 617 c 0
 321 594 318 577 318 560 c 0xd0
 318 388 403 247 403 60 c 0
 403 -11 408 -16 408 -81 c 2
 408 -128 l 2
 408 -187 405 -269 375 -360 c 1
 363 -399 l 1
 282 -306 l 1
 286 -280 288 -266 288 -240 c 0xb0
 288 -9 136 232 136 470 c 0xd0
 136 634 188 735 205 778 c 1
 199 843 165 841 140 846 c 1
 100 846 l 1
 87 861 86 868 86 929 c 2
 86 963 l 2
 86 1072 94 1104 153 1181 c 1
 180 1216 l 1
 189 1216 l 1
 200 1211 201 1214 210 1201 c 0
 225 1179 255 1093 269 1077 c 1
 288 1061 l 1
 297 1057 319 1056 340 1056 c 0
 458 1056 620 1073 653 1083 c 1
 703 1101 l 1
 736 1043 792 992 792 812 c 1
 792 812 790 720 782 704 c 1
 771 673 l 1
 745 618 l 1
 724 581 722 561 685 535 c 1
 610 518 545 459 420 360 c 1
 413 360 l 2
 401 360 385 367 385 394 c 0
 385 397 384 403 384 409 c 0
 384 516 608 665 638 727 c 1
 644 748 l 1xb0
EndSplineSet
Validated: 1
LCarets2: 1 64 
MultipleSubs2: "Add hairspace before low marked Qof" kof hairspace
EndChar

StartChar: resh
Encoding: 1512 1512 85
Width: 932
GlyphClass: 2
Flags: W
HStem: 0 21G<710 752.5> 784 286<283.604 596.561>
VStem: 710 146<52.8283 441.732>
AnchorPoint: "A-69" 644.66 0 basechar 0
AnchorPoint: "A-68" 556.66 0 basechar 0
AnchorPoint: "A-67" 468.66 0 basechar 0
AnchorPoint: "A-66" 644.66 0 basechar 0
AnchorPoint: "A-65" 556.66 0 basechar 0
AnchorPoint: "A-64" 468.66 0 basechar 0
AnchorPoint: "A-63" 644.66 0 basechar 0
AnchorPoint: "A-62" 556.66 0 basechar 0
AnchorPoint: "A-61" 468.66 0 basechar 0
AnchorPoint: "A-59" 37.46 0 basechar 0
AnchorPoint: "A-55" 723.86 0 basechar 0
AnchorPoint: "A-42" 565.46 0 basechar 0
AnchorPoint: "A-39" 433.46 0 basechar 0
AnchorPoint: "A-36" 433.46 0 basechar 0
AnchorPoint: "A-21" -340.94 0 basechar 0
AnchorPoint: "A-19" 486.26 0 basechar 0
AnchorPoint: "A-18" 565.46 0 basechar 0
AnchorPoint: "A-17" 609.46 0 basechar 0
AnchorPoint: "A-16" 486.26 0 basechar 0
AnchorPoint: "A-15" 565.46 0 basechar 0
AnchorPoint: "A-14" 609.46 0 basechar 0
AnchorPoint: "A-13" 459.86 0 basechar 0
AnchorPoint: "A-12" 539.06 0 basechar 0
AnchorPoint: "A-11" 583.06 0 basechar 0
AnchorPoint: "A-10" 486.26 0 basechar 0
AnchorPoint: "A-9" 565.46 0 basechar 0
AnchorPoint: "A-8" 609.46 0 basechar 0
AnchorPoint: "A-41" 433.46 0 basechar 0
AnchorPoint: "A-40" 653.46 0 basechar 0
AnchorPoint: "A-32" 433.46 0 basechar 0
AnchorPoint: "A-31" 433.46 0 basechar 0
AnchorPoint: "A-30" 433.46 0 basechar 0
AnchorPoint: "A-29" 433.46 0 basechar 0
AnchorPoint: "A-28" 464.26 0 basechar 0
AnchorPoint: "A-27" 433.46 0 basechar 0
AnchorPoint: "A-26" 723.86 0 basechar 0
AnchorPoint: "A-25" 37.46 0 basechar 0
AnchorPoint: "A-24" 433.46 0 basechar 0
AnchorPoint: "A-23" 433.46 0 basechar 0
AnchorPoint: "A-20" -41.7402 0 basechar 0
AnchorPoint: "A-7" 525.86 0 basechar 0
AnchorPoint: "A-6" 583.06 0 basechar 0
AnchorPoint: "A-5" 706.26 0 basechar 0
AnchorPoint: "A-4" 741.46 0 basechar 0
AnchorPoint: "A-1" 433.46 0 basechar 0
LayerCount: 2
Fore
SplineSet
120 745 m 1
 104 766 84 781 84 850 c 0
 84 898 96 903 96 946 c 1
 94 962 93 978 93 992 c 0
 93 1158 186 1213 207 1213 c 0
 208 1213 228 1187 228 1181 c 2
 228 1185 l 1
 232 1173 271 1114 338 1070 c 1
 637 1070 l 1
 702 1061 766 1037 789 931 c 1
 800 882 l 1
 838 700 856 531 856 377 c 1
 854 320 851 250 851 236 c 0
 848 35 768 0 737 0 c 2
 710 0 l 1
 710 27 l 2
 710 37 657 536 649 570 c 1
 638 608 629 677 616 693 c 1
 607 720 l 1
 580 778 547 784 491 784 c 2
 464 784 l 2
 264 784 297 745 167 745 c 2
 120 745 l 1
EndSplineSet
Validated: 1
LCarets2: 1 79 
MultipleSubs2: "Add hairspace before low marked Qof" resh hairspace
Substitution2: "'jalt' Wide Letter Alternatives in Hebrew subtable" resh.wide
EndChar

StartChar: shin
Encoding: 1513 1513 86
Width: 1356
GlyphClass: 2
Flags: W
VStem: 217 158<511.666 774.719> 609 337<834.297 1027.4>
AnchorPoint: "A-69" 653.46 0 basechar 0
AnchorPoint: "A-68" 653.46 0 basechar 0
AnchorPoint: "A-67" 653.46 0 basechar 0
AnchorPoint: "A-66" 653.46 0 basechar 0
AnchorPoint: "A-65" 653.46 0 basechar 0
AnchorPoint: "A-64" 653.46 0 basechar 0
AnchorPoint: "A-63" 653.46 0 basechar 0
AnchorPoint: "A-62" 653.46 0 basechar 0
AnchorPoint: "A-61" 653.46 0 basechar 0
AnchorPoint: "A-59" 68.2598 0 basechar 0
AnchorPoint: "A-55" 1168.26 0 basechar 0
AnchorPoint: "A-42" 653.46 0 basechar 0
AnchorPoint: "A-39" 675.46 0 basechar 0
AnchorPoint: "A-36" 675.46 0 basechar 0
AnchorPoint: "A-21" -310.14 0 basechar 0
AnchorPoint: "A-16" 653.46 0 basechar 0
AnchorPoint: "A-15" 653.46 0 basechar 0
AnchorPoint: "A-14" 653.46 0 basechar 0
AnchorPoint: "A-13" 653.46 0 basechar 0
AnchorPoint: "A-12" 653.46 0 basechar 0
AnchorPoint: "A-11" 653.46 0 basechar 0
AnchorPoint: "A-10" 653.46 0 basechar 0
AnchorPoint: "A-9" 653.46 0 basechar 0
AnchorPoint: "A-8" 653.46 0 basechar 0
AnchorPoint: "A-41" 653.46 0 basechar 0
AnchorPoint: "A-40" 653.46 0 basechar 0
AnchorPoint: "A-32" 675.46 0 basechar 0
AnchorPoint: "A-31" 675.46 0 basechar 0
AnchorPoint: "A-30" 508.26 0 basechar 0
AnchorPoint: "A-29" 596.26 0 basechar 0
AnchorPoint: "A-28" 495.06 0 basechar 0
AnchorPoint: "A-27" 754.66 0 basechar 0
AnchorPoint: "A-26" 1168.26 0 basechar 0
AnchorPoint: "A-25" 112.26 0 basechar 0
AnchorPoint: "A-24" 675.46 0 basechar 0
AnchorPoint: "A-23" 675.46 0 basechar 0
AnchorPoint: "A-20" -50 0 basechar 0
AnchorPoint: "A-7" 653.46 0 basechar 0
AnchorPoint: "A-6" 653.46 0 basechar 0
AnchorPoint: "A-5" 653.46 0 basechar 0
AnchorPoint: "A-4" 653.46 0 basechar 0
AnchorPoint: "A-1" 675.46 0 basechar 0
LayerCount: 2
Fore
SplineSet
371 1034 m 2
 393 1000 l 1
 393 985 l 2
 393 910 375 841 375 734 c 1
 377 615 403 543 422 507 c 1
 426 517 483 652 612 807 c 1
 635 834 l 1
 626 853 l 1
 613 894 609 909 609 923 c 0
 609 993 708 1099 713 1104 c 1
 726 1122 l 1
 738 1135 l 1
 741 1135 744 1135 746 1135 c 0
 831 1135 942 1006 946 957 c 1
 946 941 l 2
 946 787 834 721 798 714 c 0
 666 691 576 449 502 365 c 1
 511 361 530 357 558 357 c 2
 569 357 l 2
 894 357 1020 714 1038 771 c 1
 1033 780 1020 794 1019 795 c 2
 986 866 l 1
 991 908 l 1
 1022 1060 1104 1113 1142 1113 c 0
 1168 1113 1259 1004 1262 999 c 1
 1265 998 1266 997 1268 996 c 1
 1274 975 1282 940 1282 886 c 0
 1282 806 1242 740 1159 653 c 1
 994 474 1110 176 450 4 c 1
 410 -8 l 1
 386 0 l 1
 264 220 217 510 217 628 c 0
 217 649 218 665 222 673 c 1
 226 722 l 1
 227 763 228 769 229 775 c 1
 206 801 103 885 85 907 c 1
 78 924 78 936 78 943 c 0
 79 967 102 1062 156 1132 c 1
 180 1156 l 1
 193 1155 206 1152 217 1148 c 1
 272 1125 357 1055 371 1034 c 2
EndSplineSet
Validated: 1
LCarets2: 1 114 
MultipleSubs2: "Add hairspace before low marked Qof" shin hairspace
EndChar

StartChar: tav
Encoding: 1514 1514 87
Width: 1022
GlyphClass: 2
Flags: W
HStem: 741 323<461.607 745.99>
VStem: 145 761<772.424 1020.44> 254 176<343.514 711.624> 834 115<136.829 527.105>
AnchorPoint: "A-69" 557.38 0 basechar 0
AnchorPoint: "A-68" 557.38 0 basechar 0
AnchorPoint: "A-67" 557.38 0 basechar 0
AnchorPoint: "A-66" 557.38 0 basechar 0
AnchorPoint: "A-65" 557.38 0 basechar 0
AnchorPoint: "A-64" 557.38 0 basechar 0
AnchorPoint: "A-63" 557.38 0 basechar 0
AnchorPoint: "A-62" 557.38 0 basechar 0
AnchorPoint: "A-61" 557.38 0 basechar 0
AnchorPoint: "A-59" -10.2207 0 basechar 0
AnchorPoint: "A-55" 878.58 0 basechar 0
AnchorPoint: "A-42" 557.38 0 basechar 0
AnchorPoint: "A-39" 579.38 0 basechar 0
AnchorPoint: "A-36" 593.46 0 basechar 0
AnchorPoint: "A-21" -366.62 0 basechar 0
AnchorPoint: "A-16" 557.38 0 basechar 0
AnchorPoint: "A-15" 557.38 0 basechar 0
AnchorPoint: "A-14" 557.38 0 basechar 0
AnchorPoint: "A-13" 557.38 0 basechar 0
AnchorPoint: "A-12" 557.38 0 basechar 0
AnchorPoint: "A-11" 557.38 0 basechar 0
AnchorPoint: "A-10" 557.38 0 basechar 0
AnchorPoint: "A-9" 557.38 0 basechar 0
AnchorPoint: "A-8" 557.38 0 basechar 0
AnchorPoint: "A-41" 535.38 0 basechar 0
AnchorPoint: "A-40" 557.38 0 basechar 0
AnchorPoint: "A-32" 579.38 0 basechar 0
AnchorPoint: "A-31" 579.38 0 basechar 0
AnchorPoint: "A-30" 579.38 0 basechar 0
AnchorPoint: "A-29" 579.38 0 basechar 0
AnchorPoint: "A-28" 416.58 0 basechar 0
AnchorPoint: "A-27" 579.38 0 basechar 0
AnchorPoint: "A-26" 878.58 0 basechar 0
AnchorPoint: "A-25" 95.3799 0 basechar 0
AnchorPoint: "A-24" 593.46 0 basechar 0
AnchorPoint: "A-23" 579.38 0 basechar 0
AnchorPoint: "A-20" 24.9795 0 basechar 0
AnchorPoint: "A-7" 557.38 0 basechar 0
AnchorPoint: "A-6" 557.38 0 basechar 0
AnchorPoint: "A-5" 557.38 0 basechar 0
AnchorPoint: "A-4" 557.38 0 basechar 0
AnchorPoint: "A-1" 579.38 0 basechar 0
LayerCount: 2
Fore
SplineSet
834 90 m 1x90
 768 730 778 690 747 727 c 1
 726 740 670 741 618 741 c 0
 524 741 478 732 456 688 c 1
 439 646 430 602 430 553 c 0
 430 480 446 411 473 348 c 1
 485 318 l 1
 485 275 l 2
 485 99 390 46 390 46 c 0
 315 9 274 6 190 -39 c 1
 68 -95 l 1
 68 -61 68 -28 68 6 c 0
 68 35 70 108 117 215 c 1
 128 245 l 1
 288 279 l 1
 268 323 254 393 254 510 c 0xb0
 254 625 266 690 282 733 c 1
 234 744 169 775 153 807 c 0
 147 818 145 838 145 863 c 0
 145 1004 213 1195 258 1195 c 1
 260 1194 273 1196 282 1174 c 0
 292 1148 306 1064 418 1064 c 2
 441 1064 l 2
 524 1064 715 1085 772 1085 c 0
 812 1085 846 1073 870 1044 c 2
 889 1021 l 1
 895 1009 906 996 906 879 c 0xc0
 906 696 949 713 949 422 c 0
 949 368 948 325 945 292 c 1
 927 191 904 113 866 75 c 1
 834 67 l 1
 834 90 l 1x90
EndSplineSet
Validated: 1
LCarets2: 1 78 
MultipleSubs2: "Add hairspace before low marked Qof" tav hairspace
Substitution2: "'jalt' Wide Letter Alternatives in Hebrew subtable" tav.wide
EndChar

StartChar: geresh
Encoding: 1523 1523 91
Width: 537
GlyphClass: 2
Flags: W
HStem: 854 488
VStem: 45 442
LayerCount: 2
Fore
SplineSet
487 1267 m 0
 491 1254 493 1240 493 1226 c 0
 493 1198 484 1169 463 1146 c 2
 235 905 l 1
 45 854 l 1
 182 1187 l 2
 214 1263 254 1315 318 1332 c 0
 344 1339 365 1342 384 1342 c 0
 454 1342 478 1299 487 1267 c 0
EndSplineSet
Validated: 1
EndChar

StartChar: zerononjoin
Encoding: 8204 8204 95
Width: 0
GlyphClass: 2
Flags: MW
LayerCount: 2
Fore
SplineSet
-108 1894 m 1
 0 1786 l 1
 106 1893 l 1
 140 1860 l 1
 33 1753 l 1
 140 1646 l 1
 106 1613 l 1
 0 1719 l 1
 -108 1612 l 1
 -141 1646 l 1
 -34 1753 l 1
 -141 1860 l 1
 -108 1894 l 1
EndSplineSet
Validated: 1
EndChar

StartChar: zerojoin
Encoding: 8205 8205 96
Width: 0
GlyphClass: 2
Flags: MW
LayerCount: 2
Fore
SplineSet
157 1637 m 1
 157 1730 l 1
 -156 1730 l 1
 -156 1637 l 1
 -203 1637 l 1
 -203 1777 l 1
 204 1777 l 1
 204 1637 l 1
 157 1637 l 1
EndSplineSet
Validated: 1
EndChar

StartChar: lrm
Encoding: 8206 8206 97
Width: 0
GlyphClass: 2
Flags: MW
LayerCount: 2
Fore
SplineSet
21 1860 m 1
 54 1894 l 1
 195 1753 l 1
 54 1612 l 1
 21 1646 l 1
 105 1730 l 1
 -154 1730 l 1
 -154 1777 l 1
 104 1777 l 1
 21 1860 l 1
EndSplineSet
Validated: 1
EndChar

StartChar: rlm
Encoding: 8207 8207 98
Width: 0
GlyphClass: 2
Flags: MW
LayerCount: 2
Fore
SplineSet
-20 1647 m 1
 -53 1613 l 1
 -194 1754 l 1
 -53 1895 l 1
 -20 1861 l 1
 -104 1777 l 1
 155 1777 l 1
 155 1730 l 1
 -103 1730 l 1
 -20 1647 l 1
EndSplineSet
Validated: 1
EndChar

StartChar: quoteleft
Encoding: 8216 8216 99
Width: 594
GlyphClass: 2
Flags: W
VStem: 55 178<962.295 1243>
LayerCount: 2
Fore
SplineSet
521 1313 m 2
 516 1302 233 1279 233 1008 c 0
 233 875 263 842 263 812 c 0
 263 798 233 792 221 788 c 0
 210 784 198 788 191 799 c 0
 92 969 55 1018 55 1180 c 0
 55 1306 126 1404 271 1494 c 1
 305 1516 l 1
 480 1516 503 1474 539 1356 c 1
 521 1313 l 2
EndSplineSet
Validated: 1
EndChar

StartChar: quoteright
Encoding: 8217 8217 100
Width: 594
GlyphClass: 2
Flags: W
VStem: 361 178<962.295 1243>
LayerCount: 2
Fore
SplineSet
73 1313 m 2
 55 1356 l 1
 91 1474 114 1516 289 1516 c 1
 323 1494 l 1
 468 1404 539 1306 539 1180 c 0
 539 1018 502 969 403 799 c 0
 396 788 384 784 373 788 c 0
 361 792 331 798 331 812 c 0
 331 842 361 875 361 1008 c 0
 361 1279 78 1302 73 1313 c 2
EndSplineSet
Validated: 1
EndChar

StartChar: quotesinglbase
Encoding: 8218 8218 101
Width: 515
GlyphClass: 2
Flags: W
VStem: 222 238<-176.663 80.0482>
LayerCount: 2
Fore
SplineSet
82 192 m 2
 88 238 l 1
 139 286 173 300 222 300 c 0
 259 300 306 284 372 246 c 1
 390 210 l 1
 436 124 460 47 460 -23 c 0
 460 -75 447 -123 420 -170 c 0
 339 -311 283 -335 112 -432 c 0
 101 -438 88 -436 81 -427 c 0
 72 -417 49 -397 56 -385 c 0
 71 -359 114 -346 180 -230 c 0
 211 -177 222 -128 222 -84 c 1
 222 68 116 163 114 166 c 1
 82 192 l 2
EndSplineSet
Validated: 1
EndChar

StartChar: newshekel
Encoding: 8362 8362 105
Width: 1483
GlyphClass: 2
Flags: W
HStem: 956 284<351.324 435 451 738.313>
VStem: 125 206<420.726 948.883> 190 212<171.317 479.939> 732 197<624.095 960.757> 1183 131<421 705.969> 1183 114<421.062 876.192>
LayerCount: 2
Fore
SplineSet
872 278 m 1xd0
 941 285 944 280 948 286 c 1
 961 286 l 2
 976 286 990 288 1004 292 c 1
 1138 383 1148 409 1183 456 c 1xd8
 1183 925 l 1
 1029 986 l 1
 1027 1003 1026 1008 1026 1029 c 0
 1026 1031 l 0
 1026 1043 1027 1074 1050 1114 c 1
 1042 1133 1038 1152 1038 1172 c 0
 1038 1200 1045 1245 1096 1314 c 2
 1118 1344 l 1
 1138 1312 l 2
 1152 1287 1187 1261 1258 1227 c 2
 1385 1166 l 1
 1385 926 l 1
 1355 902 1334 891 1330 879 c 0
 1305 819 1297 765 1297 710 c 0x94
 1297 624 1314 539 1314 425 c 2
 1314 421 l 1
 1277 317 l 1
 1187 161 1118 57 1000 -52 c 0
 977 -73 939 -114 886 -114 c 0
 854 -114 830 -101 806 -74 c 1
 693 119 599 146 534 329 c 1
 506 449 521 516 473 608 c 1
 434 622 436 612 360 645 c 1
 360 661 l 2
 360 696 366 732 388 763 c 1
 387 773 386 783 386 793 c 0
 386 833 396 878 422 929 c 2
 435 956 l 1
 373 956 l 1
 344 916 331 849 331 762 c 0xd8
 331 567 402 331 402 251 c 2
 402 245 l 1
 388 219 345 137 235 -3 c 2
 190 -60 l 1
 190 12 l 2xb0
 190 243 125 531 125 745 c 0
 125 791 126 878 158 951 c 1
 40 951 l 1
 40 976 l 2
 40 1050 50 1082 62 1101 c 1
 59 1115 58 1128 58 1140 c 0
 58 1198 93 1257 109 1296 c 2
 125 1330 l 1
 150 1304 l 2
 191 1263 242 1240 286 1240 c 0
 358 1240 556 1234 627 1234 c 0
 738 1234 850 1242 966 1261 c 2
 992 1265 l 1
 1021 1006 l 1
 990 990 929 968 929 828 c 0
 929 666 988 632 1009 503 c 1
 872 278 l 1xd0
451 956 m 1
 466 930 l 2
 502 868 544 850 560 845 c 1
 614 823 628 815 673 798 c 2
 692 791 l 1
 664 613 l 1
 635 597 627 592 627 586 c 0
 627 541 635 496 645 454 c 1
 703 323 766 285 808 275 c 1
 805 523 732 619 732 851 c 0
 732 891 734 928 740 962 c 1
 704 958 669 956 635 956 c 2
 451 956 l 1
EndSplineSet
Validated: 1
EndChar

StartChar: Euro
Encoding: 8364 8364 106
Width: 1348
VWidth: 3089
GlyphClass: 2
Flags: W
HStem: -71 284<618.925 909.809> 427 210<554.709 1113> 507 154<38.1211 98> 691 213<393 1229.21> 1255 193<611.08 909.925>
VStem: 947 272<1059.83 1215.91>
LayerCount: 2
Fore
SplineSet
58 707 m 1xbc
 49 734 35 773 35 803 c 0
 35 825 39 837 48 857 c 1
 67 870 87 887 153 902 c 1
 240 1167 460 1448 804 1448 c 0
 921 1448 1022 1416 1097 1386 c 1
 1193 1308 1219 1235 1219 1141 c 0
 1219 1112 1217 1084 1217 1056 c 2
 1217 1015 l 1
 1181 1034 l 2
 1143 1053 1107 1059 1075 1059 c 0
 1039 1059 1000 1052 956 1036 c 2
 897 1016 l 1
 926 1071 l 2
 941 1100 947 1123 947 1143 c 0
 947 1210 870 1254 750 1255 c 1
 527 1213 424 1092 393 905 c 1
 489 905 585 904 680 904 c 0
 885 904 1087 909 1285 937 c 2
 1322 942 l 1
 1255 691 l 1
 1236 691 l 2
 955 691 662 699 363 699 c 1
 359 668 l 1
 521 640 676 634 831 634 c 0
 941 634 1050 637 1160 637 c 2
 1197 637 l 1
 1113 427 l 1
 1096 427 l 2xdc
 859 427 624 457 390 496 c 1
 454 368 597 213 797 213 c 0
 905 213 999 258 1066 299 c 1
 1082 303 1095 305 1107 305 c 0
 1150 305 1168 280 1168 249 c 0
 1168 234 1162 207 1157 199 c 0
 1051 21 884 -71 711 -71 c 0
 464 -71 214 119 116 507 c 1
 31 507 l 1
 31 532 l 2
 31 541 30 552 30 565 c 0
 30 623 53 643 69 661 c 1
 98 661 l 1
 104 707 l 1
 58 707 l 1xbc
EndSplineSet
Validated: 1
EndChar

StartChar: dottedcircle
Encoding: 9676 9676 107
Width: 1309
GlyphClass: 2
Flags: W
HStem: -35 193<568.986 738.893> 23 195<335.13 495.957 803.13 963.957> 199 193<160.986 330.893 976.986 1146.89> 433 193<100.986 270.893 1036.99 1206.89> 667 193<160.986 330.893 976.986 1146.89> 841 193<334.986 504.893 802.986 972.893> 901 193<568.986 738.893>
VStem: 90 193<445.072 614.052> 150 193<211.072 380.052 679.072 848.052> 324 193<47.8016 206.052 853.072 1022.05> 558 193<-22.9279 146.052 913.072 1082.05> 792 193<47.8016 206.052 853.072 1022.05> 966 193<211.072 380.052 679.072 848.052> 1026 193<445.072 614.052>
AnchorPoint: "A-69" 695.95 0 basechar 0
AnchorPoint: "A-68" 695.95 0 basechar 0
AnchorPoint: "A-67" 695.95 0 basechar 0
AnchorPoint: "A-66" 695.95 0 basechar 0
AnchorPoint: "A-65" 695.95 0 basechar 0
AnchorPoint: "A-64" 695.95 0 basechar 0
AnchorPoint: "A-63" 695.95 0 basechar 0
AnchorPoint: "A-62" 695.95 0 basechar 0
AnchorPoint: "A-61" 695.95 0 basechar 0
AnchorPoint: "A-59" -32.25 0 basechar 0
AnchorPoint: "A-55" 1102.95 0 basechar 0
AnchorPoint: "A-42" 695.95 0 basechar 0
AnchorPoint: "A-39" 651.95 0 basechar 0
AnchorPoint: "A-36" 651.95 0 basechar 0
AnchorPoint: "A-21" -505.25 0 basechar 0
AnchorPoint: "A-16" 651.95 0 basechar 0
AnchorPoint: "A-15" 651.95 0 basechar 0
AnchorPoint: "A-14" 651.95 0 basechar 0
AnchorPoint: "A-13" 651.95 0 basechar 0
AnchorPoint: "A-12" 651.95 0 basechar 0
AnchorPoint: "A-11" 651.95 0 basechar 0
AnchorPoint: "A-10" 651.95 0 basechar 0
AnchorPoint: "A-9" 651.95 0 basechar 0
AnchorPoint: "A-8" 651.95 0 basechar 0
AnchorPoint: "A-60" 651.95 0 basechar 0
AnchorPoint: "A-41" 660.75 0 basechar 0
AnchorPoint: "A-40" 695.95 0 basechar 0
AnchorPoint: "A-32" 651.95 0 basechar 0
AnchorPoint: "A-31" 651.95 0 basechar 0
AnchorPoint: "A-30" 517.75 0 basechar 0
AnchorPoint: "A-29" 651.95 0 basechar 0
AnchorPoint: "A-28" 501.25 0 basechar 0
AnchorPoint: "A-27" 651.95 0 basechar 0
AnchorPoint: "A-26" 1102.95 0 basechar 0
AnchorPoint: "A-25" 132.75 0 basechar 0
AnchorPoint: "A-24" 651.95 0 basechar 0
AnchorPoint: "A-23" 651.95 0 basechar 0
AnchorPoint: "A-20" -120.25 0 basechar 0
AnchorPoint: "A-7" 651.95 0 basechar 0
AnchorPoint: "A-6" 651.95 0 basechar 0
AnchorPoint: "A-5" 651.95 0 basechar 0
AnchorPoint: "A-4" 651.95 0 basechar 0
AnchorPoint: "A-3" 651.95 0 basechar 0
AnchorPoint: "A-1" 651.95 0 basechar 0
LayerCount: 2
Fore
SplineSet
186 626 m 0x1120
 243 626 283 596 283 529 c 0
 283 473 252 433 186 433 c 0
 130 433 90 463 90 529 c 0
 90 596 130 626 186 626 c 0x1120
1122 626 m 0
 1179 626 1219 596 1219 529 c 0
 1219 473 1188 433 1122 433 c 0
 1066 433 1026 463 1026 529 c 0x1024
 1026 596 1066 626 1122 626 c 0
654 1094 m 0x1220
 711 1094 751 1064 751 997 c 0
 751 941 720 901 654 901 c 0
 598 901 558 931 558 997 c 0
 558 1064 598 1094 654 1094 c 0x1220
654 158 m 0x9020
 711 158 751 128 751 61 c 0
 751 5 720 -35 654 -35 c 0
 598 -35 558 -5 558 61 c 0
 558 128 598 158 654 158 c 0x9020
1062 860 m 0x1828
 1119 860 1159 830 1159 763 c 0
 1159 707 1128 667 1062 667 c 0
 1006 667 966 697 966 763 c 0
 966 830 1006 860 1062 860 c 0x1828
1062 392 m 0x3028
 1119 392 1159 362 1159 295 c 0
 1159 239 1128 199 1062 199 c 0
 1006 199 966 229 966 295 c 0
 966 362 1006 392 1062 392 c 0x3028
246 860 m 0x18a0
 303 860 343 830 343 763 c 0
 343 707 312 667 246 667 c 0
 190 667 150 697 150 763 c 0
 150 830 190 860 246 860 c 0x18a0
246 392 m 0x30a0
 303 392 343 362 343 295 c 0
 343 239 312 199 246 199 c 0
 190 199 150 229 150 295 c 0
 150 362 190 392 246 392 c 0x30a0
420 1034 m 0x1460
 477 1034 517 1004 517 937 c 0
 517 881 486 841 420 841 c 0
 364 841 324 871 324 937 c 0
 324 1004 364 1034 420 1034 c 0x1460
888 1034 m 0
 945 1034 985 1004 985 937 c 0
 985 881 954 841 888 841 c 0
 832 841 792 871 792 937 c 0x1430
 792 1004 832 1034 888 1034 c 0
420 218 m 0x5060
 477 218 517 188 517 121 c 0
 517 65 456 23 390 23 c 0
 334 23 324 55 324 121 c 0
 324 188 364 218 420 218 c 0x5060
888 218 m 0
 945 218 985 188 985 121 c 0
 985 65 924 23 858 23 c 0
 802 23 792 55 792 121 c 0x5030
 792 188 832 218 888 218 c 0
EndSplineSet
Validated: 1
LCarets2: 1 -62 
MultipleSubs2: "Add hairspace before low marked Qof" dottedcircle hairspace
EndChar

StartChar: jsvarika
Encoding: 64286 64286 109
Width: 0
GlyphClass: 4
Flags: W
HStem: 1135 258
VStem: -244 488
AnchorPoint: "A-55" -242 0 mark 0
AnchorPoint: "A-57" -550 0 basemark 0
AnchorPoint: "A-56" 0 0 basemark 0
AnchorPoint: "A-57" 0 0 mark 0
AnchorPoint: "A-24" 0 0 mark 0
LayerCount: 2
Fore
SplineSet
0 1135 m 1
 -68 1167 -136 1262 -244 1322 c 1
 -244 1354 l 1
 -239 1373 -227 1382 -216 1393 c 1
 -188 1385 -202 1391 0 1286 c 1
 84 1330 129 1349 220 1377 c 1
 236 1361 244 1353 244 1336 c 2
 244 1304 l 1
 149 1267 64 1160 0 1135 c 1
EndSplineSet
Validated: 1
LCarets2: 1 0 
EndChar

StartChar: ayin.alt
Encoding: 64288 64288 111
Width: 1125
GlyphClass: 2
Flags: W
HStem: -25 285<99.564 323.127>
VStem: 288 41<1152.13 1194> 736 315<785.131 979.267>
AnchorPoint: "A-69" 451.62 0 basechar 0
AnchorPoint: "A-68" 451.62 0 basechar 0
AnchorPoint: "A-67" 451.62 0 basechar 0
AnchorPoint: "A-66" 451.62 0 basechar 0
AnchorPoint: "A-65" 451.62 0 basechar 0
AnchorPoint: "A-64" 451.62 0 basechar 0
AnchorPoint: "A-63" 451.62 0 basechar 0
AnchorPoint: "A-62" 451.62 0 basechar 0
AnchorPoint: "A-61" 451.62 0 basechar 0
AnchorPoint: "A-59" 20.4199 0 basechar 0
AnchorPoint: "A-55" 847.62 0 basechar 0
AnchorPoint: "A-42" 451.62 0 basechar 0
AnchorPoint: "A-39" 522.02 0 basechar 0
AnchorPoint: "A-36" 522.02 0 basechar 0
AnchorPoint: "A-21" -357.98 0 basechar 0
AnchorPoint: "A-16" 451.62 0 basechar 0
AnchorPoint: "A-15" 451.62 0 basechar 0
AnchorPoint: "A-14" 451.62 0 basechar 0
AnchorPoint: "A-13" 451.62 0 basechar 0
AnchorPoint: "A-12" 451.62 0 basechar 0
AnchorPoint: "A-11" 451.62 0 basechar 0
AnchorPoint: "A-10" 451.62 0 basechar 0
AnchorPoint: "A-9" 451.62 0 basechar 0
AnchorPoint: "A-8" 451.62 0 basechar 0
AnchorPoint: "A-41" 328.42 0 basechar 0
AnchorPoint: "A-40" 451.62 0 basechar 0
AnchorPoint: "A-32" 522.02 0 basechar 0
AnchorPoint: "A-31" 20.4199 0 basechar 0
AnchorPoint: "A-30" 522.02 0 basechar 0
AnchorPoint: "A-29" 522.02 0 basechar 0
AnchorPoint: "A-28" 447.22 0 basechar 0
AnchorPoint: "A-27" 522.02 0 basechar 0
AnchorPoint: "A-26" 847.62 0 basechar 0
AnchorPoint: "A-25" 90.8203 0 basechar 0
AnchorPoint: "A-24" 522.02 0 basechar 0
AnchorPoint: "A-23" 522.02 0 basechar 0
AnchorPoint: "A-20" 20.4199 0 basechar 0
AnchorPoint: "A-7" 451.62 0 basechar 0
AnchorPoint: "A-6" 451.62 0 basechar 0
AnchorPoint: "A-5" 451.62 0 basechar 0
AnchorPoint: "A-4" 451.62 0 basechar 0
AnchorPoint: "A-3" 574.1 50 basechar 0
AnchorPoint: "A-1" 522.02 0 basechar 0
LayerCount: 2
Fore
SplineSet
884 1137 m 17
 908 1031 960 1010 1008 981 c 1
 1040 944 1051 909 1051 873 c 0
 1051 813 1019 753 992 687 c 9
 936 651 l 17
 678 150 644 -25 72 -25 c 9
 50 31 l 17
 50 128 56 199 96 296 c 1
 172 274 250 260 329 260 c 1
 329 304 333 321 333 387 c 0
 333 594 312 858 192 858 c 1
 173 860 168 906 161 945 c 1
 182 1107 224 1041 288 1194 c 9
 329 1194 l 17
 329 1193 329 1193 329 1192 c 0
 329 1146 357 1113 384 1075 c 9
 512 993 l 17
 512 981 512 970 512 958 c 0
 512 857 487 762 423 702 c 1
 467 557 470 465 488 312 c 1
 620 405 736 530 843 711 c 1
 806 769 736 802 736 889 c 0
 736 917 744 951 761 993 c 9
 869 1185 l 25
 884 1137 l 17
EndSplineSet
LCarets2: 1 91 
MultipleSubs2: "Add hairspace before low marked Qof" ayin.alt hairspace
EndChar

StartChar: alef.wide
Encoding: 64289 64289 112
Width: 1996
GlyphClass: 2
Flags: W
VStem: 365 68<987.784 1068> 1480 426<776.389 981.22>
AnchorPoint: "A-69" 1039.6 0 basechar 0
AnchorPoint: "A-68" 1039.6 0 basechar 0
AnchorPoint: "A-67" 1039.6 0 basechar 0
AnchorPoint: "A-66" 1039.6 0 basechar 0
AnchorPoint: "A-65" 1039.6 0 basechar 0
AnchorPoint: "A-64" 1039.6 0 basechar 0
AnchorPoint: "A-63" 1039.6 0 basechar 0
AnchorPoint: "A-62" 1039.6 0 basechar 0
AnchorPoint: "A-61" 1039.6 0 basechar 0
AnchorPoint: "A-59" 16.5996 0 basechar 0
AnchorPoint: "A-55" 1721.6 0 basechar 0
AnchorPoint: "A-42" 1039.6 0 basechar 0
AnchorPoint: "A-39" 1017.6 0 basechar 0
AnchorPoint: "A-36" 1017.6 0 basechar 0
AnchorPoint: "A-21" -456.4 0 basechar 0
AnchorPoint: "A-16" 1039.6 0 basechar 0
AnchorPoint: "A-15" 1039.6 0 basechar 0
AnchorPoint: "A-14" 1039.6 0 basechar 0
AnchorPoint: "A-13" 1039.6 0 basechar 0
AnchorPoint: "A-12" 1039.6 0 basechar 0
AnchorPoint: "A-11" 1039.6 0 basechar 0
AnchorPoint: "A-10" 1039.6 0 basechar 0
AnchorPoint: "A-9" 1039.6 0 basechar 0
AnchorPoint: "A-8" 1039.6 0 basechar 0
AnchorPoint: "A-41" 1369.6 0 basechar 0
AnchorPoint: "A-40" 1039.6 0 basechar 0
AnchorPoint: "A-32" 1017.6 0 basechar 0
AnchorPoint: "A-31" 1017.6 0 basechar 0
AnchorPoint: "A-30" 687.6 0 basechar 0
AnchorPoint: "A-29" 797.6 0 basechar 0
AnchorPoint: "A-28" 550.1 0 basechar 0
AnchorPoint: "A-27" 1237.6 0 basechar 0
AnchorPoint: "A-26" 1721.6 0 basechar 0
AnchorPoint: "A-25" 181.6 0 basechar 0
AnchorPoint: "A-24" 1017.6 0 basechar 0
AnchorPoint: "A-23" 1017.6 0 basechar 0
AnchorPoint: "A-20" 27.5996 0 basechar 0
AnchorPoint: "A-7" 1039.6 0 basechar 0
AnchorPoint: "A-6" 1039.6 0 basechar 0
AnchorPoint: "A-5" 1039.6 0 basechar 0
AnchorPoint: "A-4" 1039.6 0 basechar 0
AnchorPoint: "A-3" 1061.6 -450 basechar 0
AnchorPoint: "A-1" 1017.6 0 basechar 0
LayerCount: 2
Fore
SplineSet
433 1068 m 1
 451 1038 469 915 597 849 c 1
 705 777 1310 643 1458 555 c 9
 1560 760 l 17
 1523 772 1480 787 1480 832 c 0
 1480 903 1500 1085 1608 1147 c 1
 1701 1118 1737 1039 1824 988 c 9
 1824 988 1899 984 1905 949 c 1
 1905 938 1906 927 1906 916 c 0
 1906 774 1861 702 1773 682 c 1
 1714 630 1629 525 1605 447 c 1
 1729 342 1896 261 1896 90 c 0
 1896 52 1889 11 1875 -32 c 1
 1871 -46 1864 -58 1851 -58 c 0
 1840 -58 1825 -51 1803 -32 c 1
 1472 320 982 404 539 569 c 1
 514 588 487 603 465 611 c 1
 446 617 430 619 416 619 c 0
 353 619 332 567 332 504 c 0
 332 464 340 421 351 383 c 1
 351 359 471 390 494 302 c 1
 503 270 506 240 506 211 c 0
 506 133 478 69 452 23 c 1
 341 8 253 -26 174 -67 c 9
 129 -69 l 17
 102 -61 90 -31 90 6 c 0
 90 8 90 11 90 14 c 1
 90 16 90 19 90 21 c 0
 90 77 112 113 140 150 c 1
 135 189 133 225 133 260 c 0
 133 470 256 754 327 911 c 1
 327 912 327 912 327 913 c 0
 327 943 365 1046 365 1068 c 1
 433 1068 l 1
EndSplineSet
Validated: 1
LCarets2: 1 -91 
MultipleSubs2: "Add hairspace before low marked Qof" alef.wide hairspace
EndChar

StartChar: dalet.wide
Encoding: 64290 64290 113
Width: 1849
GlyphClass: 2
Flags: W
HStem: 712 349<337.154 965.292> 740 335<645.498 1308.24>
VStem: 1310 300<437.176 737.546> 1461 230<87.5436 231.611>
AnchorPoint: "A-69" 1429.85 0 basechar 0
AnchorPoint: "A-68" 1319.85 0 basechar 0
AnchorPoint: "A-67" 1209.85 0 basechar 0
AnchorPoint: "A-66" 1429.85 0 basechar 0
AnchorPoint: "A-65" 1319.85 0 basechar 0
AnchorPoint: "A-64" 1209.85 0 basechar 0
AnchorPoint: "A-63" 1429.85 0 basechar 0
AnchorPoint: "A-62" 1319.85 0 basechar 0
AnchorPoint: "A-61" 1209.85 0 basechar 0
AnchorPoint: "A-59" 43.8496 0 basechar 0
AnchorPoint: "A-55" 1561.85 0 basechar 0
AnchorPoint: "A-42" 1297.85 0 basechar 0
AnchorPoint: "A-39" 945.85 0 basechar 0
AnchorPoint: "A-36" 945.85 0 basechar 0
AnchorPoint: "A-21" -429.15 0 basechar 0
AnchorPoint: "A-19" 1198.85 0 basechar 0
AnchorPoint: "A-18" 1363.85 0 basechar 0
AnchorPoint: "A-17" 1352.85 0 basechar 0
AnchorPoint: "A-16" 1198.85 0 basechar 0
AnchorPoint: "A-15" 1363.85 0 basechar 0
AnchorPoint: "A-14" 1352.85 0 basechar 0
AnchorPoint: "A-13" 1033.85 0 basechar 0
AnchorPoint: "A-12" 1198.85 0 basechar 0
AnchorPoint: "A-11" 1187.85 0 basechar 0
AnchorPoint: "A-10" 1198.85 0 basechar 0
AnchorPoint: "A-9" 1363.85 0 basechar 0
AnchorPoint: "A-8" 1352.85 0 basechar 0
AnchorPoint: "A-41" 1143.85 0 basechar 0
AnchorPoint: "A-40" 1539.85 0 basechar 0
AnchorPoint: "A-32" 945.85 0 basechar 0
AnchorPoint: "A-31" 945.85 0 basechar 0
AnchorPoint: "A-30" 615.85 0 basechar 0
AnchorPoint: "A-29" 725.85 0 basechar 0
AnchorPoint: "A-28" 577.35 0 basechar 0
AnchorPoint: "A-27" 1165.85 0 basechar 0
AnchorPoint: "A-26" 1561.85 0 basechar 0
AnchorPoint: "A-25" 21.8496 0 basechar 0
AnchorPoint: "A-24" 945.85 0 basechar 0
AnchorPoint: "A-23" 945.85 0 basechar 0
AnchorPoint: "A-20" -66.1504 0 basechar 0
AnchorPoint: "A-7" 1314.35 0 basechar 0
AnchorPoint: "A-6" 1385.85 0 basechar 0
AnchorPoint: "A-5" 1550.85 0 basechar 0
AnchorPoint: "A-4" 1550.85 0 basechar 0
AnchorPoint: "A-3" 868.85 0 basechar 0
AnchorPoint: "A-1" 945.85 0 basechar 0
LayerCount: 2
Fore
SplineSet
1207 1075 m 1x60
 1367 1079 1571 1090 1615 1166 c 1
 1625 1181 1631 1200 1661 1193 c 1
 1683 1143 l 1
 1705 1023 1759 997 1759 872 c 0
 1759 858 1759 842 1757 825 c 1
 1649 771 1610 719 1610 665 c 0x60
 1610 655 1611 645 1614 635 c 1
 1617 611 l 1
 1617 516 1691 337 1691 221 c 0
 1691 151 1601 -9 1577 -23 c 1
 1564 -33 1540 -37 1517 -39 c 1
 1495 -39 l 1
 1461 41 l 1
 1461 131 l 1x50
 1339 407 1311 623 1310 740 c 1x60
 1235 728 409 712 291 712 c 0xa0
 252 712 228 668 183 668 c 0
 181 668 178 669 175 669 c 1
 175 669 174 669 173 669 c 0
 165 669 142 682 142 740 c 0x60
 142 743 142 746 142 749 c 0
 142 756 140 765 149 783 c 1
 148 877 90 877 90 990 c 0
 90 1104 198 1194 204 1199 c 1
 238 1199 l 1
 266 1167 299 1104 431 1065 c 0
 442 1061 463 1061 490 1061 c 0xa0
 501 1061 1194 1075 1207 1075 c 1x60
EndSplineSet
Validated: 1
LCarets2: 1 -82 
MultipleSubs2: "Add hairspace before low marked Qof" dalet.wide hairspace
EndChar

StartChar: he.wide
Encoding: 64291 64291 114
Width: 1940
GlyphClass: 2
Flags: W
HStem: 737 319<275.571 474 524 1543.55>
VStem: 201 58<1098.21 1166.68> 271 194<30.8252 561.766> 1556 233<610.877 728.615>
AnchorPoint: "A-69" 982.75 0 basechar 0
AnchorPoint: "A-68" 982.75 0 basechar 0
AnchorPoint: "A-67" 982.75 0 basechar 0
AnchorPoint: "A-66" 982.75 0 basechar 0
AnchorPoint: "A-65" 982.75 0 basechar 0
AnchorPoint: "A-64" 982.75 0 basechar 0
AnchorPoint: "A-63" 982.75 0 basechar 0
AnchorPoint: "A-62" 982.75 0 basechar 0
AnchorPoint: "A-61" 982.75 0 basechar 0
AnchorPoint: "A-59" -29.25 0 basechar 0
AnchorPoint: "A-55" 1708.75 0 basechar 0
AnchorPoint: "A-42" 982.75 0 basechar 0
AnchorPoint: "A-39" 982.75 0 basechar 0
AnchorPoint: "A-36" 982.75 0 basechar 0
AnchorPoint: "A-21" -502.25 0 basechar 0
AnchorPoint: "A-16" 960.75 0 basechar 0
AnchorPoint: "A-15" 960.75 0 basechar 0
AnchorPoint: "A-14" 960.75 0 basechar 0
AnchorPoint: "A-13" 960.75 0 basechar 0
AnchorPoint: "A-12" 960.75 0 basechar 0
AnchorPoint: "A-11" 960.75 0 basechar 0
AnchorPoint: "A-10" 960.75 0 basechar 0
AnchorPoint: "A-9" 960.75 0 basechar 0
AnchorPoint: "A-8" 960.75 0 basechar 0
AnchorPoint: "A-41" 1290.75 0 basechar 0
AnchorPoint: "A-40" 982.75 0 basechar 0
AnchorPoint: "A-32" 982.75 0 basechar 0
AnchorPoint: "A-31" 982.75 0 basechar 0
AnchorPoint: "A-30" 652.75 0 basechar 0
AnchorPoint: "A-29" 762.75 0 basechar 0
AnchorPoint: "A-28" 504.25 0 basechar 0
AnchorPoint: "A-27" 1202.75 0 basechar 0
AnchorPoint: "A-26" 1708.75 0 basechar 0
AnchorPoint: "A-25" 58.75 0 basechar 0
AnchorPoint: "A-24" 982.75 0 basechar 0
AnchorPoint: "A-23" 982.75 0 basechar 0
AnchorPoint: "A-20" -29.25 0 basechar 0
AnchorPoint: "A-7" 960.75 0 basechar 0
AnchorPoint: "A-6" 960.75 0 basechar 0
AnchorPoint: "A-5" 960.75 0 basechar 0
AnchorPoint: "A-4" 960.75 0 basechar 0
AnchorPoint: "A-3" 960.75 0 basechar 0
AnchorPoint: "A-1" 982.75 0 basechar 0
LayerCount: 2
Fore
SplineSet
1458 737 m 2
 1415 737 l 1
 524 730 l 1
 524 725 490 604 490 602 c 0
 475 547 465 496 465 449 c 0
 465 437 466 426 467 415 c 0
 474 351 490 277 490 236 c 0
 490 234 490 232 490 230 c 0
 490 140 448 59 402 -10 c 1
 379 -35 l 1
 341 -35 l 1
 293 96 271 94 271 344 c 0
 271 619 402 650 474 730 c 1
 260 734 l 1
 225 739 172 754 172 754 c 0
 105 791 90 854 90 883 c 0
 90 989 190 1119 201 1146 c 1
 202 1175 259 1185 259 1145 c 0
 259 1099 301 1079 322 1069 c 1
 433 1057 1242 1056 1331 1056 c 0
 1446 1056 1552 1070 1678 1105 c 1
 1702 1095 1803 1038 1803 860 c 0
 1803 795 1789 775 1789 741 c 0
 1789 704 1819 672 1850 537 c 1
 1850 438 l 1
 1848 253 1793 85 1762 48 c 0
 1755 40 1746 34 1735 34 c 2
 1710 34 l 1
 1710 59 l 2
 1710 60 1710 60 1711 61 c 1
 1676 102 1556 300 1556 680 c 0
 1556 699 1553 721 1544 729 c 0
 1535 737 1493 737 1458 737 c 2
EndSplineSet
Validated: 1
LCarets2: 1 -91 
MultipleSubs2: "Add hairspace before low marked Qof" he.wide hairspace
EndChar

StartChar: kaf.wide
Encoding: 64292 64292 115
Width: 1771
GlyphClass: 2
Flags: W
HStem: -65 332<276 764.825> 798 257<632.13 1371.17>
VStem: 1477 204<156 609.781>
AnchorPoint: "A-69" 839.65 0 basechar 0
AnchorPoint: "A-68" 839.65 0 basechar 0
AnchorPoint: "A-67" 839.65 0 basechar 0
AnchorPoint: "A-66" 839.65 0 basechar 0
AnchorPoint: "A-65" 839.65 0 basechar 0
AnchorPoint: "A-64" 839.65 0 basechar 0
AnchorPoint: "A-63" 839.65 0 basechar 0
AnchorPoint: "A-62" 839.65 0 basechar 0
AnchorPoint: "A-61" 839.65 0 basechar 0
AnchorPoint: "A-59" 3.65039 0 basechar 0
AnchorPoint: "A-55" 1521.65 0 basechar 0
AnchorPoint: "A-42" 839.65 0 basechar 0
AnchorPoint: "A-39" 883.65 0 basechar 0
AnchorPoint: "A-36" 883.65 0 basechar 0
AnchorPoint: "A-21" -469.35 0 basechar 0
AnchorPoint: "A-16" 839.65 0 basechar 0
AnchorPoint: "A-15" 839.65 0 basechar 0
AnchorPoint: "A-14" 839.65 0 basechar 0
AnchorPoint: "A-13" 839.65 0 basechar 0
AnchorPoint: "A-12" 839.65 0 basechar 0
AnchorPoint: "A-11" 839.65 0 basechar 0
AnchorPoint: "A-10" 839.65 0 basechar 0
AnchorPoint: "A-9" 839.65 0 basechar 0
AnchorPoint: "A-8" 839.65 0 basechar 0
AnchorPoint: "A-41" 1114.65 0 basechar 0
AnchorPoint: "A-40" 839.65 0 basechar 0
AnchorPoint: "A-32" 883.65 0 basechar 0
AnchorPoint: "A-31" 883.65 0 basechar 0
AnchorPoint: "A-30" 663.65 0 basechar 0
AnchorPoint: "A-29" 663.65 0 basechar 0
AnchorPoint: "A-28" 537.15 0 basechar 0
AnchorPoint: "A-27" 1103.65 0 basechar 0
AnchorPoint: "A-26" 1521.65 0 basechar 0
AnchorPoint: "A-25" 69.6504 0 basechar 0
AnchorPoint: "A-24" 883.65 0 basechar 0
AnchorPoint: "A-23" 883.65 0 basechar 0
AnchorPoint: "A-20" -18.3496 0 basechar 0
AnchorPoint: "A-7" 839.65 0 basechar 0
AnchorPoint: "A-6" 839.65 0 basechar 0
AnchorPoint: "A-5" 839.65 0 basechar 0
AnchorPoint: "A-4" 839.65 0 basechar 0
AnchorPoint: "A-3" 861.65 0 basechar 0
AnchorPoint: "A-1" 883.65 0 basechar 0
LayerCount: 2
Fore
SplineSet
250 1187 m 1
 308 1124 374 1066 457 1066 c 0
 459 1066 l 9
 1341 1055 l 17
 1344 1055 1347 1055 1349 1055 c 0
 1510 1055 1600 969 1632 816 c 1
 1662 652 1663 488 1674 324 c 1
 1678 294 1681 267 1681 244 c 0
 1681 68 1569 42 1470 0 c 1
 1229 -58 353 -44 112 -65 c 9
 90 -3 l 17
 107 84 148 221 200 241 c 9
 276 267 l 17
 320 266 364 265 407 265 c 0
 456 265 653 263 853 263 c 0
 1068 263 1288 265 1336 273 c 1
 1450 282 1477 335 1477 401 c 0
 1477 423 1474 447 1470 471 c 9
 1406 707 l 17
 1375 773 1311 798 1226 798 c 0
 1133 798 380 780 256 743 c 9
 178 693 l 25
 144 717 l 17
 140 741 130 756 130 784 c 0
 130 795 132 809 136 825 c 1
 135 856 140 886 104 927 c 1
 136 1041 194 1133 250 1187 c 1
EndSplineSet
Validated: 1
LCarets2: 1 -80 
MultipleSubs2: "Add hairspace before low marked Qof" kaf.wide hairspace
EndChar

StartChar: lamed.wide
Encoding: 64293 64293 116
Width: 1761
GlyphClass: 2
Flags: W
HStem: 765 282<443.37 1122.38>
VStem: 212 169<1122.2 1455.9> 246 135<1172.62 1482.48>
AnchorPoint: "A-69" 1082.5 0 basechar 0
AnchorPoint: "A-68" 1082.5 0 basechar 0
AnchorPoint: "A-67" 1082.5 0 basechar 0
AnchorPoint: "A-66" 1082.5 0 basechar 0
AnchorPoint: "A-65" 1082.5 0 basechar 0
AnchorPoint: "A-64" 1082.5 0 basechar 0
AnchorPoint: "A-63" 1082.5 0 basechar 0
AnchorPoint: "A-62" 1082.5 0 basechar 0
AnchorPoint: "A-61" 1082.5 0 basechar 0
AnchorPoint: "A-59" 59.5 0 basechar 0
AnchorPoint: "A-55" 1544.5 0 basechar 0
AnchorPoint: "A-42" 1192.5 0 basechar 0
AnchorPoint: "A-39" 917.5 0 basechar 0
AnchorPoint: "A-36" 917.5 0 basechar 0
AnchorPoint: "A-21" -413.5 0 basechar 0
AnchorPoint: "A-16" 1192.5 0 basechar 0
AnchorPoint: "A-15" 1192.5 0 basechar 0
AnchorPoint: "A-14" 1192.5 0 basechar 0
AnchorPoint: "A-13" 1027.5 0 basechar 0
AnchorPoint: "A-12" 1027.5 0 basechar 0
AnchorPoint: "A-11" 1027.5 0 basechar 0
AnchorPoint: "A-10" 1192.5 0 basechar 0
AnchorPoint: "A-9" 1192.5 0 basechar 0
AnchorPoint: "A-8" 1192.5 0 basechar 0
AnchorPoint: "A-41" 1016.5 0 basechar 0
AnchorPoint: "A-40" 1192.5 0 basechar 0
AnchorPoint: "A-32" 994.5 0 basechar 0
AnchorPoint: "A-31" 917.5 0 basechar 0
AnchorPoint: "A-30" 345.5 0 basechar 0
AnchorPoint: "A-29" 312.5 0 basechar 0
AnchorPoint: "A-28" 263 0 basechar 0
AnchorPoint: "A-27" 1137.5 0 basechar 0
AnchorPoint: "A-26" 1544.5 0 basechar 0
AnchorPoint: "A-25" -182.5 0 basechar 0
AnchorPoint: "A-24" 917.5 0 basechar 0
AnchorPoint: "A-23" 917.5 0 basechar 0
AnchorPoint: "A-20" -313.4 0 basechar 0
AnchorPoint: "A-7" 1192.5 0 basechar 0
AnchorPoint: "A-6" 1192.5 0 basechar 0
AnchorPoint: "A-5" 1192.5 0 basechar 0
AnchorPoint: "A-4" 1192.5 0 basechar 0
AnchorPoint: "A-3" 851.5 0 basechar 0
AnchorPoint: "A-1" 917.5 0 basechar 0
LayerCount: 2
Fore
SplineSet
342 1780 m 1xa0
 407 1736 433 1656 454 1572 c 1
 401 1452 381 1362 381 1289 c 0
 381 1181 426 1113 474 1047 c 1
 486 1047 498 1047 510 1047 c 0
 671 1047 1377 1047 1524 1074 c 1
 1530 1075 1536 1075 1542 1075 c 0
 1593 1075 1645 1042 1656 1005 c 1
 1666 967 1671 930 1671 893 c 0
 1671 853 1665 815 1653 777 c 9
 1503 633 l 17
 1384 479 1346 296 1290 120 c 9
 1254 105 l 17
 1239 185 1218 261 1218 349 c 0
 1218 452 1247 570 1347 726 c 9
 1335 774 l 25
 306 765 l 17
 256 882 212 1004 212 1169 c 0xc0
 212 1246 222 1334 246 1434 c 1
 246 1474 227 1483 203 1483 c 0
 185 1483 164 1478 144 1476 c 1
 107 1477 96 1499 90 1524 c 1
 139 1650 218 1741 342 1780 c 1xa0
EndSplineSet
Validated: 1
LCarets2: 1 -76 
MultipleSubs2: "Add hairspace before low marked Qof" lamed.wide hairspace
MultipleSubs2: "Add thispace after Lamed subtable" lamed.wide thinspace
EndChar

StartChar: finalmem.wide
Encoding: 64294 64294 117
Width: 1991
GlyphClass: 2
Flags: W
HStem: 802 263<421.108 1017.5>
VStem: 1652 249<385.942 699.766>
AnchorPoint: "A-69" 1004.8 0 basechar 0
AnchorPoint: "A-68" 1004.8 0 basechar 0
AnchorPoint: "A-67" 1004.8 0 basechar 0
AnchorPoint: "A-66" 1004.8 0 basechar 0
AnchorPoint: "A-65" 1004.8 0 basechar 0
AnchorPoint: "A-64" 1004.8 0 basechar 0
AnchorPoint: "A-63" 1004.8 0 basechar 0
AnchorPoint: "A-62" 1004.8 0 basechar 0
AnchorPoint: "A-61" 1004.8 0 basechar 0
AnchorPoint: "A-59" 36.7998 0 basechar 0
AnchorPoint: "A-55" 1752.8 0 basechar 0
AnchorPoint: "A-42" 1004.8 0 basechar 0
AnchorPoint: "A-39" 1026.8 0 basechar 0
AnchorPoint: "A-36" 1026.8 0 basechar 0
AnchorPoint: "A-21" -436.2 0 basechar 0
AnchorPoint: "A-16" 1004.8 0 basechar 0
AnchorPoint: "A-15" 1004.8 0 basechar 0
AnchorPoint: "A-14" 1004.8 0 basechar 0
AnchorPoint: "A-13" 1004.8 0 basechar 0
AnchorPoint: "A-12" 1004.8 0 basechar 0
AnchorPoint: "A-11" 1004.8 0 basechar 0
AnchorPoint: "A-10" 1004.8 0 basechar 0
AnchorPoint: "A-9" 1004.8 0 basechar 0
AnchorPoint: "A-8" 1004.8 0 basechar 0
AnchorPoint: "A-41" 1290.8 0 basechar 0
AnchorPoint: "A-40" 1004.8 0 basechar 0
AnchorPoint: "A-32" 1026.8 0 basechar 0
AnchorPoint: "A-31" 1026.8 0 basechar 0
AnchorPoint: "A-30" 696.8 0 basechar 0
AnchorPoint: "A-29" 696.8 0 basechar 0
AnchorPoint: "A-28" 570.3 0 basechar 0
AnchorPoint: "A-27" 1246.8 0 basechar 0
AnchorPoint: "A-26" 1752.8 0 basechar 0
AnchorPoint: "A-25" 80.7998 0 basechar 0
AnchorPoint: "A-24" 1026.8 0 basechar 0
AnchorPoint: "A-23" 1026.8 0 basechar 0
AnchorPoint: "A-20" -7.2002 0 basechar 0
AnchorPoint: "A-7" 1004.8 0 basechar 0
AnchorPoint: "A-6" 1004.8 0 basechar 0
AnchorPoint: "A-5" 1004.8 0 basechar 0
AnchorPoint: "A-4" 1004.8 0 basechar 0
AnchorPoint: "A-3" 1026.8 0 basechar 0
AnchorPoint: "A-1" 1026.8 0 basechar 0
LayerCount: 2
Fore
SplineSet
1537 795 m 1
 1532 795 1524 795 1515 795 c 0
 1433 795 1208 802 981 802 c 0
 740 802 497 794 422 758 c 1
 403 741 382 731 374 684 c 1
 386 557 433 446 466 328 c 1
 477 297 493 287 511 287 c 1
 529 271 603 265 704 265 c 0
 893 265 1177 285 1371 295 c 1
 1488 312 1525 327 1647 385 c 1
 1650 405 1652 431 1652 462 c 0
 1652 593 1613 764 1537 795 c 1
232 1177 m 9
 270 1175 l 17
 299 1124 352 1099 396 1065 c 1
 405 1065 413 1065 422 1065 c 1
 425 1065 429 1065 432 1065 c 0
 568 1065 1467 1071 1603 1096 c 1
 1610 1098 1617 1098 1623 1098 c 0
 1780 1098 1901 683 1901 393 c 0
 1901 391 1901 388 1901 386 c 1
 1891 312 1891 226 1825 170 c 1
 1737 94 726 12 446 -51 c 1
 418 -48 397 -40 397 -9 c 0
 397 -6 397 1 398 5 c 1
 332 168 203 269 203 517 c 0
 203 599 217 697 252 819 c 9
 190 872 116 877 94 955 c 16
 92 962 90 968 90 973 c 0
 90 1011 135 1033 156 1074 c 1
 176 1125 203 1152 232 1177 c 9
EndSplineSet
Validated: 1
LCarets2: 1 -88 
MultipleSubs2: "Add hairspace before low marked Qof" finalmem.wide hairspace
EndChar

StartChar: resh.wide
Encoding: 64295 64295 118
Width: 1850
GlyphClass: 2
Flags: W
HStem: 0 21G<1577 1630> 786 286<338.809 1216.92>
VStem: 1577 183<73.6816 363.296>
AnchorPoint: "A-69" 1506.1 0 basechar 0
AnchorPoint: "A-68" 1396.1 0 basechar 0
AnchorPoint: "A-67" 1286.1 0 basechar 0
AnchorPoint: "A-66" 1506.1 0 basechar 0
AnchorPoint: "A-65" 1396.1 0 basechar 0
AnchorPoint: "A-64" 1286.1 0 basechar 0
AnchorPoint: "A-63" 1506.1 0 basechar 0
AnchorPoint: "A-62" 1396.1 0 basechar 0
AnchorPoint: "A-61" 1286.1 0 basechar 0
AnchorPoint: "A-59" 54.0996 0 basechar 0
AnchorPoint: "A-55" 1605.1 0 basechar 0
AnchorPoint: "A-42" 1407.1 0 basechar 0
AnchorPoint: "A-39" 901.1 0 basechar 0
AnchorPoint: "A-36" 901.1 0 basechar 0
AnchorPoint: "A-21" -418.9 0 basechar 0
AnchorPoint: "A-19" 1297.1 0 basechar 0
AnchorPoint: "A-18" 1396.1 0 basechar 0
AnchorPoint: "A-17" 1462.1 0 basechar 0
AnchorPoint: "A-16" 1297.1 0 basechar 0
AnchorPoint: "A-15" 1396.1 0 basechar 0
AnchorPoint: "A-14" 1462.1 0 basechar 0
AnchorPoint: "A-13" 1132.1 0 basechar 0
AnchorPoint: "A-12" 1231.1 0 basechar 0
AnchorPoint: "A-11" 1297.1 0 basechar 0
AnchorPoint: "A-10" 1297.1 0 basechar 0
AnchorPoint: "A-9" 1396.1 0 basechar 0
AnchorPoint: "A-8" 1462.1 0 basechar 0
AnchorPoint: "A-41" 1242.1 0 basechar 0
AnchorPoint: "A-40" 1517.1 0 basechar 0
AnchorPoint: "A-32" 901.1 0 basechar 0
AnchorPoint: "A-31" 901.1 0 basechar 0
AnchorPoint: "A-30" 571.1 0 basechar 0
AnchorPoint: "A-29" 681.1 0 basechar 0
AnchorPoint: "A-28" 587.6 0 basechar 0
AnchorPoint: "A-27" 1121.1 0 basechar 0
AnchorPoint: "A-26" 1605.1 0 basechar 0
AnchorPoint: "A-25" 54.0996 0 basechar 0
AnchorPoint: "A-24" 901.1 0 basechar 0
AnchorPoint: "A-23" 901.1 0 basechar 0
AnchorPoint: "A-20" -44.9004 0 basechar 0
AnchorPoint: "A-7" 1363.1 0 basechar 0
AnchorPoint: "A-6" 1429.1 0 basechar 0
AnchorPoint: "A-5" 1583.1 0 basechar 0
AnchorPoint: "A-4" 1627.1 0 basechar 0
AnchorPoint: "A-3" 879.1 0 basechar 0
AnchorPoint: "A-1" 901.1 0 basechar 0
LayerCount: 2
Fore
SplineSet
133 747 m 1
 112 768 90 783 90 852 c 0
 90 900 104 905 104 948 c 1
 102 964 101 980 101 994 c 0
 101 1160 217 1215 243 1215 c 0
 244 1215 269 1189 270 1183 c 2
 270 1187 l 1
 274 1175 323 1116 407 1072 c 1
 1486 1071 l 1
 1567 1062 1647 1038 1676 932 c 2
 1690 883 l 1
 1737 701 1760 532 1760 378 c 1
 1757 321 1753 251 1753 237 c 0
 1749 36 1649 0 1611 0 c 2
 1577 0 l 1
 1577 28 l 2
 1577 38 1511 537 1501 571 c 1
 1487 609 1476 678 1459 694 c 1
 1448 721 l 1
 1414 779 668 786 598 786 c 2
 565 786 l 2
 315 786 356 747 193 747 c 2
 133 747 l 1
EndSplineSet
Validated: 1
LCarets2: 1 -79 
MultipleSubs2: "Add hairspace before low marked Qof" resh.wide hairspace
EndChar

StartChar: tav.wide
Encoding: 64296 64296 119
Width: 2108
GlyphClass: 2
Flags: W
HStem: 706 344<1134.82 1764.7> 719 353<565.063 1242.84>
VStem: 322 221<372.75 702.043> 1874 144<124.875 397.285>
AnchorPoint: "A-69" 1099.55 0 basechar 0
AnchorPoint: "A-68" 1099.55 0 basechar 0
AnchorPoint: "A-67" 1099.55 0 basechar 0
AnchorPoint: "A-66" 1099.55 0 basechar 0
AnchorPoint: "A-65" 1099.55 0 basechar 0
AnchorPoint: "A-64" 1099.55 0 basechar 0
AnchorPoint: "A-63" 1099.55 0 basechar 0
AnchorPoint: "A-62" 1099.55 0 basechar 0
AnchorPoint: "A-61" 1099.55 0 basechar 0
AnchorPoint: "A-59" -11.4502 0 basechar 0
AnchorPoint: "A-55" 1869.55 0 basechar 0
AnchorPoint: "A-42" 1099.55 0 basechar 0
AnchorPoint: "A-39" 1088.55 0 basechar 0
AnchorPoint: "A-36" 1088.55 0 basechar 0
AnchorPoint: "A-21" -456.95 0 basechar 0
AnchorPoint: "A-16" 1099.55 0 basechar 0
AnchorPoint: "A-15" 1099.55 0 basechar 0
AnchorPoint: "A-14" 1099.55 0 basechar 0
AnchorPoint: "A-13" 1099.55 0 basechar 0
AnchorPoint: "A-12" 1099.55 0 basechar 0
AnchorPoint: "A-11" 1099.55 0 basechar 0
AnchorPoint: "A-10" 1099.55 0 basechar 0
AnchorPoint: "A-9" 1099.55 0 basechar 0
AnchorPoint: "A-8" 1099.55 0 basechar 0
AnchorPoint: "A-41" 1429.55 0 basechar 0
AnchorPoint: "A-40" 1099.55 0 basechar 0
AnchorPoint: "A-32" 1088.55 0 basechar 0
AnchorPoint: "A-31" 1088.55 0 basechar 0
AnchorPoint: "A-30" 758.55 0 basechar 0
AnchorPoint: "A-29" 868.55 0 basechar 0
AnchorPoint: "A-28" 522.05 0 basechar 0
AnchorPoint: "A-27" 1308.55 0 basechar 0
AnchorPoint: "A-26" 1869.55 0 basechar 0
AnchorPoint: "A-25" 120.55 0 basechar 0
AnchorPoint: "A-24" 1088.55 0 basechar 0
AnchorPoint: "A-23" 1088.55 0 basechar 0
AnchorPoint: "A-20" 32.5498 0 basechar 0
AnchorPoint: "A-7" 1099.55 0 basechar 0
AnchorPoint: "A-6" 1099.55 0 basechar 0
AnchorPoint: "A-5" 1099.55 0 basechar 0
AnchorPoint: "A-4" 1099.55 0 basechar 0
AnchorPoint: "A-3" 1099.55 0 basechar 0
AnchorPoint: "A-1" 1088.55 0 basechar 0
LayerCount: 2
Fore
SplineSet
1766 692 m 1xb0
 1739 705 1669 706 1604 706 c 0xb0
 1533 706 1179 719 905 719 c 0
 729 719 586 713 575 696 c 1
 554 654 543 610 543 561 c 0
 543 488 562 419 596 356 c 1
 611 326 l 1
 611 283 l 2
 611 107 493 55 492 54 c 0
 399 17 347 14 242 -31 c 1
 90 -87 l 1
 90 8 l 2
 90 9 90 12 90 14 c 0
 90 43 92 116 151 223 c 1
 165 253 l 1
 365 287 l 1
 340 331 322 401 322 518 c 1
 323 633 338 698 358 741 c 1
 298 752 216 783 196 815 c 0
 189 826 186 846 186 871 c 0
 186 965 232 1136 306 1195 c 0
 311 1199 319 1203 327 1203 c 1
 330 1202 346 1204 357 1182 c 0
 370 1156 388 1072 527 1072 c 2
 556 1072 l 2x70
 660 1072 1726 1050 1797 1050 c 0
 1847 1050 1889 1038 1919 1009 c 2
 1943 986 l 1
 1951 974 1964 961 1964 844 c 0
 1964 661 2018 678 2018 387 c 0
 2018 333 2017 290 2013 257 c 1
 1991 156 1962 78 1915 40 c 1
 1874 32 l 1
 1874 55 l 2
 1874 55 1811 540 1806 584 c 0
 1800 641 1801 659 1766 692 c 1xb0
EndSplineSet
Validated: 1
LCarets2: 1 -95 
MultipleSubs2: "Add hairspace before low marked Qof" tav.wide hairspace
EndChar

StartChar: hebrewplussign
Encoding: 64297 64297 120
Width: 1302
GlyphClass: 2
Flags: W
HStem: 317 176<100 554 740 1202>
VStem: 554 186<493 948>
LayerCount: 2
Fore
SplineSet
100 317 m 1
 100 493 l 1
 554 493 l 1
 554 948 l 1
 740 948 l 1
 740 493 l 1
 1202 493 l 1
 1202 317 l 1
 100 317 l 1
EndSplineSet
Validated: 1
EndChar

StartChar: aleflamed
Encoding: 64335 64335 153
Width: 1105
GlyphClass: 3
Flags: W
VStem: 126 154<904.505 1441.36>
AnchorPoint: "A-63" 839.78 0 basechar 0
AnchorPoint: "A-62" 980.58 0 basechar 0
AnchorPoint: "A-61" 1033.38 0 basechar 0
AnchorPoint: "A-20" -215.5 -100 basechar 0
AnchorPoint: "A-7" 630.34 0 basechar 0
AnchorPoint: "A-6" 716.58 0 basechar 0
AnchorPoint: "A-5" 672.58 0 basechar 0
AnchorPoint: "A-4" 628.58 0 basechar 0
LayerCount: 2
Fore
SplineSet
290 1023 m 0
 290 824 535 720 673 564 c 1
 722 620 748 664 748 704 c 0
 748 752 710 792 632 840 c 9
 623 912 l 25
 733 1122 l 25
 791 1107 l 17
 836 1045 864 972 971 951 c 9
 1000 912 l 17
 1000 901 1000 890 1000 879 c 0
 1000 777 968 690 863 636 c 1
 828 583 787 535 776 459 c 1
 776 454 775 448 775 444 c 0
 775 417 787 400 800 384 c 1
 883 309 930 220 930 113 c 0
 930 72 923 28 908 -18 c 9
 848 -54 l 17
 581 380 153 543 126 759 c 1
 126 862 114 964 114 1065 c 0
 114 1176 126 1286 126 1395 c 9
 114 1446 l 17
 89 1446 61 1427 36 1427 c 0
 20 1427 6 1434 -4 1455 c 1
 16 1569 60 1673 152 1755 c 9
 210 1728 l 17
 278 1620 280 1514 280 1359 c 0
 280 1338 l 0
 280 1264 290 1038 290 1023 c 0
EndSplineSet
Ligature2: "'ccmp' Alef Lamed Ligature subtable" alef .null lamed
Ligature2: "'ccmp' Alef Lamed Ligature subtable" alef cgj lamed
LCarets2: 2 88 88 
MultipleSubs2: "Add thispace after Lamed subtable" aleflamed thinspace
Ligature2: "'ccmp' Alef Lamed Ligature subtable" alef zerojoin lamed
EndChar

StartChar: hatafsegol_meteg
Encoding: 65546 -1 163
Width: 0
GlyphClass: 4
Flags: W
HStem: -586 214<-249.612 -109.447 218.643 356.424> -332 214<-360.891 -220.447 -138.553 1.61246 218.643 356.424>
VStem: -376 171<-319.469 -130.531> -265 171<-573.469 -384.531> -154 171<-319.469 -130.531> 56 108<-575 -135> 202 171<-573.933 -386.531 -319.933 -132.531>
AnchorPoint: "A-48" 96.9004 1 basemark 0
AnchorPoint: "A-47" 96.9004 1 basemark 0
AnchorPoint: "A-46" 123.3 1 basemark 0
AnchorPoint: "A-45" -528.3 0 basemark 0
AnchorPoint: "A-44" -528.3 0 basemark 0
AnchorPoint: "A-43" -510.7 0 basemark 0
AnchorPoint: "A-7" 17.7002 1 mark 0
LayerCount: 2
Fore
SplineSet
164 -575 m 1xc6
 56 -575 l 1
 56 -135 l 1
 164 -135 l 1
 164 -575 l 1xc6
288 -586 m 0
 238 -586 202 -542 202 -481 c 0
 202 -419 239 -374 288 -374 c 0
 337 -374 373 -420 373 -481 c 0
 373 -543 336 -586 288 -586 c 0
288 -332 m 0
 238 -332 202 -288 202 -227 c 0
 202 -165 239 -120 288 -120 c 0
 337 -120 373 -166 373 -227 c 0
 373 -289 336 -332 288 -332 c 0
-68 -118 m 0
 -19 -118 17 -164 17 -225 c 0
 17 -287 -20 -332 -68 -332 c 0
 -118 -332 -154 -286 -154 -225 c 0xce
 -154 -163 -117 -118 -68 -118 c 0
-180 -372 m 0
 -130 -372 -94 -418 -94 -479 c 0
 -94 -541 -131 -586 -180 -586 c 0
 -229 -586 -265 -540 -265 -479 c 0xd6
 -265 -417 -228 -372 -180 -372 c 0
-291 -118 m 0
 -241 -118 -205 -164 -205 -225 c 0
 -205 -287 -242 -332 -291 -332 c 0
 -340 -332 -376 -286 -376 -225 c 0xe6
 -376 -163 -340 -118 -291 -118 c 0
EndSplineSet
Validated: 1
Ligature2: "'ccmp' Hataf Meteg substitutions subtable" hatafsegol zerojoin meteg
LCarets2: 2 0 0 
Ligature2: "'ccmp' Hataf Meteg substitutions subtable" hatafsegol .null meteg
MultipleSubs2: "Add hairspace after last low mark subtable" hatafsegol_meteg hairspace
MultipleSubs2: "Add thinspace before narrow letter subtable" hatafsegol_meteg thinspace
MultipleSubs2: "Add hairspace before low marked Qof" hatafsegol_meteg hairspace
EndChar

StartChar: hatafpatah_meteg
Encoding: 65547 -1 164
Width: 0
GlyphClass: 4
Flags: W
HStem: -588 214<218.507 358.951> -334 214<218.507 358.951> -286 145<-374 -38>
VStem: 34 108<-575 -135> 203 171<-575.469 -386.531 -321.469 -132.531>
AnchorPoint: "A-48" 44.9199 0 basemark 0
AnchorPoint: "A-47" 44.9199 0 basemark 0
AnchorPoint: "A-46" 71.3203 0 basemark 0
AnchorPoint: "A-45" -509.48 0 basemark 0
AnchorPoint: "A-44" -509.48 0 basemark 0
AnchorPoint: "A-43" -509.48 0 basemark 0
AnchorPoint: "A-7" 0.919922 0 mark 0
LayerCount: 2
Fore
SplineSet
-38 -286 m 1xb8
 -374 -286 l 1
 -374 -141 l 1
 -38 -141 l 1
 -38 -286 l 1xb8
142 -575 m 1
 34 -575 l 1
 34 -135 l 1
 142 -135 l 1
 142 -575 l 1
290 -588 m 0
 240 -588 203 -542 203 -481 c 0
 203 -419 240 -374 290 -374 c 0
 339 -374 374 -420 374 -481 c 0
 374 -543 338 -588 290 -588 c 0
290 -334 m 0xd8
 240 -334 203 -288 203 -227 c 0
 203 -165 240 -120 290 -120 c 0
 339 -120 374 -166 374 -227 c 0
 374 -289 338 -334 290 -334 c 0xd8
EndSplineSet
Validated: 1
Ligature2: "'ccmp' Hataf Meteg substitutions subtable" hatafpatah zerojoin meteg
LCarets2: 2 0 0 
Ligature2: "'ccmp' Hataf Meteg substitutions subtable" hatafpatah .null meteg
MultipleSubs2: "Add hairspace after last low mark subtable" hatafpatah_meteg hairspace
MultipleSubs2: "Add thinspace before narrow letter subtable" hatafpatah_meteg thinspace
MultipleSubs2: "Add hairspace before low marked Qof" hatafpatah_meteg hairspace
EndChar

StartChar: hatafqamats_meteg
Encoding: 65548 -1 165
Width: 0
GlyphClass: 4
Flags: W
HStem: -593 214<218.447 358.612> -339 214<218.447 358.612> -281 144<-376 -243 -163 -27>
VStem: -243 80<-446.484 -281> 38 108<-588 -148> 203 171<-580.469 -391.531 -326.469 -137.531>
AnchorPoint: "A-48" 43.6396 0 basemark 0
AnchorPoint: "A-47" 43.6396 0 basemark 0
AnchorPoint: "A-46" 70.04 0 basemark 0
AnchorPoint: "A-45" -510.76 0 basemark 0
AnchorPoint: "A-44" -510.76 0 basemark 0
AnchorPoint: "A-43" -510.76 0 basemark 0
AnchorPoint: "A-7" -0.360352 0 mark 0
LayerCount: 2
Fore
SplineSet
-253 -366 m 1xbc
 -247 -354 -243 -302 -243 -294 c 2
 -243 -281 l 1
 -376 -281 l 1
 -376 -137 l 1
 -27 -137 l 1
 -27 -281 l 1
 -163 -281 l 1
 -163 -290 l 2
 -163 -291 -163 -292 -163 -293 c 0
 -163 -322 -160 -348 -153 -368 c 2
 -116 -468 l 1
 -119 -478 l 2
 -130 -509 -144 -542 -171 -572 c 2
 -175 -576 l 1
 -181 -578 l 2
 -188 -579 -195 -580 -203 -580 c 0
 -211 -580 -220 -579 -228 -576 c 2
 -232 -575 l 1
 -235 -572 l 2
 -263 -547 -277 -513 -287 -476 c 2
 -290 -467 l 1
 -253 -366 l 1xbc
146 -588 m 1
 38 -588 l 1
 38 -148 l 1
 146 -148 l 1
 146 -588 l 1
289 -593 m 0
 239 -593 203 -547 203 -486 c 0
 203 -424 240 -379 289 -379 c 0
 338 -379 374 -425 374 -486 c 0
 374 -548 337 -593 289 -593 c 0
289 -339 m 0xdc
 239 -339 203 -293 203 -232 c 0
 203 -170 240 -125 289 -125 c 0
 338 -125 374 -171 374 -232 c 0
 374 -294 337 -339 289 -339 c 0xdc
EndSplineSet
Validated: 1
Ligature2: "'ccmp' Hataf Meteg substitutions subtable" hatafqamats zerojoin meteg
LCarets2: 2 0 0 
MultipleSubs2: "Add hairspace after last low mark subtable" hatafqamats_meteg hairspace
MultipleSubs2: "Add thinspace before narrow letter subtable" hatafqamats_meteg thinspace
MultipleSubs2: "Add hairspace before low marked Qof" hatafqamats_meteg hairspace
Ligature2: "'ccmp' Hataf Meteg substitutions subtable" hatafqamats .null meteg
EndChar

StartChar: exclam
Encoding: 33 33 166
Width: 648
VWidth: 2057
Flags: W
VStem: 184 224<608 1031.37>
LayerCount: 2
Fore
SplineSet
100 188 m 1
 196 344 262 372 352 420 c 1
 394 339 462 233 548 152 c 1
 458 96 380 26 292 -68 c 1
 199 4 122 105 100 188 c 1
164 1444 m 1
 264 1554 385 1588 456 1622 c 1
 417 1250 408 917 408 608 c 1
 338 608 268 539 184 472 c 1
 184 778 164 1091 164 1444 c 1
EndSplineSet
Validated: 1
EndChar

StartChar: quotedbl
Encoding: 34 34 167
Width: 955
VWidth: 2057
Flags: W
HStem: 988 628
VStem: 198 271<1185.1 1453.95> 584 271<1188.1 1456.95>
LayerCount: 2
Fore
SplineSet
567 1526 m 9
 821 1616 l 25
 855 1341 l 17
 855 1323 854 1305 851 1287 c 0
 819 1108 629 1012 486 988 c 1
 535 1052 561 1120 574 1193 c 0
 580 1233 584 1273 584 1316 c 0
 584 1385 576 1455 567 1526 c 9
181 1523 m 9
 435 1613 l 25
 469 1338 l 17
 469 1320 468 1302 465 1284 c 0
 434 1105 243 1009 100 985 c 1
 149 1049 175 1117 188 1190 c 0
 195 1230 198 1270 198 1313 c 0
 198 1382 190 1452 181 1523 c 9
EndSplineSet
Validated: 1
EndChar

StartChar: numbersign
Encoding: 35 35 168
Width: 1438
VWidth: 2057
Flags: W
HStem: 327 138<238 373 567 746 936 1120> 651 138<370 504 690 876 1062 1252>
LayerCount: 2
Fore
SplineSet
800 465 m 1
 876 651 l 1
 638 651 l 1
 567 465 l 1
 800 465 l 1
746 327 m 1
 513 327 l 1
 438 131 l 9
 268 69 l 17
 373 327 l 1
 100 327 l 9
 238 465 l 17
 429 465 l 1
 504 651 l 1
 232 651 l 9
 370 789 l 17
 562 789 l 1
 624 943 l 9
 762 973 l 17
 690 789 l 1
 932 789 l 1
 992 935 l 9
 1130 965 l 17
 1062 789 l 1
 1338 789 l 9
 1252 651 l 17
 1008 651 l 1
 936 465 l 1
 1206 465 l 9
 1120 327 l 17
 884 327 l 1
 806 123 l 9
 636 61 l 17
 746 327 l 1
EndSplineSet
Validated: 1
EndChar

StartChar: dollar
Encoding: 36 36 169
Width: 964
VWidth: 2057
Flags: W
HStem: -64 220<121.375 292.501> -64 88<306.891 446> 374 174<556 650.344> 963 89<556 659.388>
VStem: 100 209<36.3281 136.541> 168 152<555.5 778.322> 446 110<-114 -64 58 374 572 925 1052 1130> 640 224<760.676 907.337> 676 176<180.575 463>
LayerCount: 2
Fore
SplineSet
552 374 m 9x3280
 552 58 l 17
 633 100 676 180 676 250 c 0
 676 317 636 374 552 374 c 9x3280
446 572 m 9
 446 925 l 17
 355 875 320 805 320 741 c 0x36
 320 660 376 587 446 572 c 9
446 1028 m 9
 446 1130 l 25
 556 1296 l 25
 556 1052 l 17
 738 1052 864 1015 864 836 c 1
 864 760 814 738 748 738 c 1
 683 738 640 796 640 847 c 0x77
 640 871 650 894 672 908 c 1
 641 938 609 963 571 963 c 0
 566 963 561 964 556 963 c 9
 556 548 l 17
 670 548 852 510 852 416 c 1
 852 207 758 0 554 -44 c 9
 554 -114 l 25
 446 -262 l 25
 446 -64 l 25x7280
 234 -64 l 17
 135 -64 100 -16 100 52 c 1
 110 114 142 156 212 156 c 1xba80
 275 156 309 102 309 57 c 0
 309 50 308 43 306 36 c 1
 325 27 345 24 364 24 c 0x7a80
 392 24 421 30 446 34 c 9
 446 374 l 17
 426 378 404 374 386 374 c 0
 376 374 367 374 358 374 c 0
 321 374 288 379 254 406 c 8
 191 457 168 515 168 596 c 27
 168 797 354 1028 446 1028 c 9
EndSplineSet
Validated: 1
EndChar

StartChar: percent
Encoding: 37 37 170
Width: 1849
VWidth: 2057
Flags: W
HStem: 0 21G<542 745.586> 269 90<1270 1515.17> 673 67<1349.21 1594> 756 90<268.5 514.454> 1161 66<348.211 593>
VStem: 100 174<908.41 1059.82> 580 168<948.917 1102.41> 1101 174<421.41 572.537> 1581 168<461.495 614.812>
LayerCount: 2
Fore
SplineSet
409 1161 m 27
 329 1161 274 1087 274 1007 c 27
 274 901 387 846 493 846 c 3
 526 846 580 942 580 983 c 3
 580 1079 505 1161 409 1161 c 27
100 947 m 3
 100 1107 337 1227 541 1227 c 11
 645 1227 748 1158 748 1059 c 3
 748 930 529 756 326 756 c 27
 211 756 100 831 100 947 c 3
1410 673 m 27
 1330 673 1275 600 1275 520 c 27
 1275 414 1389 359 1495 359 c 3
 1528 359 1581 455 1581 495 c 3
 1581 592 1506 673 1410 673 c 27
1101 460 m 3
 1101 619 1338 740 1542 740 c 11
 1646 740 1749 671 1749 571 c 3
 1749 443 1530 269 1328 269 c 27
 1212 269 1101 344 1101 460 c 3
1126 1508 m 17
 1187 1508 1249 1508 1310 1508 c 9
 738 0 l 25
 542 0 l 25
 1126 1508 l 17
EndSplineSet
Validated: 1
EndChar

StartChar: ampersand
Encoding: 38 38 171
Width: 2405
VWidth: 2563
Flags: W
HStem: -56 76<436.201 779.022> -49 125<1468.5 1834.77> 488 147<1428.21 1606 1612 1629.3> 488 111<1725.34 2098.96> 496 69<433.252 583 628 713.242> 911 211<1069.7 1562.89>
VStem: 100 204<125.052 378.401> 1228 261<144.765 296.709> 1632 132<637.316 843.925>
LayerCount: 2
Fore
SplineSet
583 565 m 9x8f80
 564 629 535 635 535 729 c 1
 535 1055 1303 1122 1441 1122 c 1
 1510 1122 1636 1115 1687 1043 c 1
 1743 955 1764 887 1764 822 c 0
 1764 762 1746 704 1720 635 c 1x2780
 1834 610 1942 599 2044 599 c 0
 2135 599 2222 608 2305 625 c 1
 2165 555 2078 508 1876 484 c 1
 1804 484 1772 488 1705 488 c 17x1780
 1612 460 1489 379 1489 258 c 1
 1489 118 1621 76 1773 76 c 0
 1893 76 2025 102 2116 128 c 1
 1975 42 1788 -49 1552 -49 c 27
 1385 -49 1228 40 1228 174 c 27
 1228 346 1471 452 1606 496 c 1x4f80
 1511 496 1419 522 1318 522 c 0
 1245 522 1166 515 1078 488 c 1x1780
 1201 569 1348 635 1621 635 c 1x2780
 1628 665 1632 693 1632 718 c 0
 1632 850 1537 911 1402 911 c 1
 1104 911 898 898 667 729 c 1
 622 683 643 632 628 570 c 17
 762 554 940 565 940 452 c 9
 940 408 870 397 814 397 c 17
 809 396 804 396 800 396 c 0
 768 396 761 418 718 460 c 1
 673 484 625 496 562 496 c 27
 401 496 304 368 304 239 c 27
 304 113 444 20 601 20 c 27
 765 20 868 56 1006 114 c 1
 951 25 758 -56 472 -56 c 9
 269 -56 100 72 100 234 c 17
 100 457 357 565 583 565 c 9x8f80
EndSplineSet
Validated: 1
EndChar

StartChar: quotesingle
Encoding: 39 39 172
Width: 568
VWidth: 2057
Flags: W
HStem: 985 628
VStem: 198 271<1185.1 1453.95>
LayerCount: 2
Fore
SplineSet
181 1523 m 9
 435 1613 l 25
 469 1338 l 17
 469 1320 468 1302 465 1284 c 0
 433 1105 243 1009 100 985 c 1
 148 1049 175 1117 188 1190 c 0
 194 1230 198 1270 198 1313 c 0
 198 1382 190 1452 181 1523 c 9
EndSplineSet
Validated: 1
EndChar

StartChar: parenleft
Encoding: 40 40 173
Width: 685
VWidth: 2057
Flags: W
VStem: 100 195<543.348 1094.13>
LayerCount: 2
Fore
SplineSet
469 1676 m 1
 361 1426 295 1160 295 899 c 0
 295 602 380 312 585 60 c 9
 341 -176 l 17
 225 -9 100 340 100 719 c 0
 100 1047 194 1399 469 1676 c 1
EndSplineSet
Validated: 1
EndChar

StartChar: parenright
Encoding: 41 41 174
Width: 685
VWidth: 2057
Flags: W
VStem: 390 195<405.868 956.652>
LayerCount: 2
Fore
SplineSet
216 -176 m 1
 324 74 390 340 390 601 c 0
 390 898 305 1188 100 1440 c 9
 344 1676 l 17
 460 1509 585 1160 585 781 c 0
 585 453 491 101 216 -176 c 1
EndSplineSet
Validated: 1
EndChar

StartChar: asterisk
Encoding: 42 42 175
Width: 888
Flags: W
HStem: 663 173<198.916 342.999>
VStem: 288 183<863.856 1064.69>
LayerCount: 2
Fore
SplineSet
288 1073 m 9
 519 1073 l 17
 493 1014 469 953 469 886 c 0
 469 874 471 862 471 850 c 1
 534 938 603 976 675 1001 c 9
 788 786 l 17
 773 786 757 786 741 786 c 0
 686 786 631 782 567 740 c 1
 694 717 731 653 767 578 c 9
 628 406 l 17
 592 494 563 585 478 630 c 1
 478 544 462 461 397 384 c 9
 180 502 l 17
 255 548 318 602 344 688 c 1
 306 672 267 663 226 663 c 0
 185 663 144 672 100 693 c 9
 146 928 l 17
 193 886 233 836 320 836 c 0
 331 836 343 836 355 838 c 1
 290 895 288 984 288 1073 c 9
EndSplineSet
Validated: 1
EndChar

StartChar: plus
Encoding: 43 43 176
Width: 1081
Flags: W
HStem: 604 167<100 457 624 981>
VStem: 457 167<247 604 771 1128>
LayerCount: 2
Fore
SplineSet
981 604 m 1
 624 604 l 1
 624 247 l 1
 457 247 l 1
 457 604 l 1
 100 604 l 1
 100 771 l 1
 457 771 l 1
 457 1128 l 1
 624 1128 l 1
 624 771 l 1
 981 771 l 1
 981 604 l 1
EndSplineSet
Validated: 1
EndChar

StartChar: comma
Encoding: 44 44 177
Width: 634
VWidth: 2057
Flags: W
VStem: 215 319<-52.3516 235.122>
LayerCount: 2
Fore
SplineSet
195 337 m 9
 494 443 l 25
 534 119 l 17
 534 98 533 77 529 56 c 0
 492 -155 268 -267 100 -296 c 1
 157 -221 188 -140 203 -55 c 0
 211 -8 215 40 215 90 c 0
 215 171 206 254 195 337 c 9
EndSplineSet
Validated: 1
EndChar

StartChar: hyphen
Encoding: 45 45 178
Width: 1044
Flags: W
HStem: 428 240<230 834>
LayerCount: 2
Fore
SplineSet
230 668 m 25
 944 668 l 25
 834 428 l 25
 100 428 l 25
 230 668 l 25
EndSplineSet
Validated: 1
EndChar

StartChar: period
Encoding: 46 46 179
Width: 648
VWidth: 2057
Flags: W
HStem: -68 488
VStem: 100 448
LayerCount: 2
Fore
SplineSet
100 188 m 1
 196 344 262 372 352 420 c 1
 394 339 462 233 548 152 c 1
 458 96 380 26 292 -68 c 1
 199 4 122 105 100 188 c 1
EndSplineSet
Validated: 1
EndChar

StartChar: slash
Encoding: 47 47 180
Width: 980
VWidth: 2057
Flags: W
HStem: 0 21G<80 283.742>
LayerCount: 2
Fore
SplineSet
716 1612 m 25
 900 1612 l 25
 276 0 l 25
 80 0 l 25
 716 1612 l 25
EndSplineSet
Validated: 1
EndChar

StartChar: zero
Encoding: 48 48 181
Width: 1341
VWidth: 2057
Flags: W
HStem: 0 144<580.832 823.301> 1171 125<532.083 793.206>
VStem: 168 137<493.599 868.528> 1066 150<428.89 873.718>
LayerCount: 2
Fore
SplineSet
941 1262 m 1
 1141 1162 1216 952 1216 729 c 0
 1216 633 1202 535 1178 442 c 1
 1098 193 853 0 641 0 c 0
 633 0 626 0 617 0 c 0
 606 0 l 1
 306 67 168 334 168 679 c 1
 219 1069 450 1296 740 1296 c 0
 805 1296 872 1284 941 1262 c 1
1021 875 m 1
 955 1039 795 1171 617 1171 c 0
 581 1171 545 1167 508 1154 c 1
 366 1046 305 847 305 699 c 0
 305 662 309 628 317 600 c 1
 380 336 539 144 738 144 c 0
 789 144 843 158 899 185 c 1
 1013 275 1066 434 1066 603 c 0
 1066 695 1050 789 1021 875 c 1
EndSplineSet
Validated: 1
EndChar

StartChar: one
Encoding: 49 49 182
Width: 828
VWidth: 2057
Flags: W
HStem: 0 21G<270.5 716.5> 1049 63<16.0131 165.573>
VStem: 382 191<184.909 977.988>
LayerCount: 2
Fore
SplineSet
624 1210 m 1
 591 1056 573 894 573 725 c 0
 573 642 576 555 586 467 c 1
 586 267 612 105 709 54 c 1
 722 39 735 24 735 13 c 0
 735 5 727 0 706 0 c 9
 275 0 l 17
 266 8 242 9 242 20 c 0
 242 27 251 37 278 54 c 1
 354 143 372 244 372 393 c 1
 372 468 382 536 382 599 c 0
 382 727 370 835 357 946 c 1
 315 1042 231 1049 123 1049 c 0
 101 1049 78 1049 54 1049 c 1
 34 1058 16 1065 16 1080 c 0
 16 1088 20 1099 34 1112 c 1
 181 1144 327 1175 507 1268 c 1
 544 1278 571 1307 603 1307 c 0
 611 1307 619 1305 628 1301 c 0
 637 1296 641 1289 641 1280 c 0
 641 1260 624 1233 624 1210 c 1
EndSplineSet
Validated: 1
EndChar

StartChar: two
Encoding: 50 50 183
Width: 1422
VWidth: 2057
Flags: W
HStem: 0 165<637.568 1112> 1186 146<613.897 1046.64>
VStem: 87 440<34 202> 1099 158<795.789 1134.35>
LayerCount: 2
Fore
SplineSet
331 -47 m 0
 160 -47 87 -13 87 81 c 0
 87 92 90 100 97 102 c 2
 186 142 l 2
 237 168 302 210 347 253 c 1
 806 594 l 1
 999 737 1099 755 1099 976 c 0
 1099 998 1099 1018 1099 1037 c 0
 1099 1067 1093 1093 1066 1121 c 1
 1043 1165 942 1186 872 1186 c 0
 827 1186 777 1180 734 1169 c 0
 680 1158 620 1150 576 1127 c 1
 490 1078 405 1028 338 920 c 1
 339 922 339 923 339 925 c 0
 339 980 238 1173 225 1215 c 1
 235 1210 295 1162 307 1156 c 1
 313 1155 318 1154 323 1154 c 0
 329 1154 333 1155 337 1158 c 0
 488 1274 674 1332 895 1332 c 0
 1138 1332 1257 1191 1257 942 c 1
 1257 707 1130 599 962 470 c 1
 832 380 635 325 534 224 c 0
 530 221 527 208 527 196 c 0
 527 191 528 185 530 182 c 1
 583 170 641 165 701 165 c 0
 851 165 1015 196 1135 213 c 1
 1176 223 1212 266 1245 339 c 1
 1234 308 1229 273 1229 237 c 0
 1229 140 1264 39 1319 0 c 1
 1133 0 l 1
 979 0 476 -47 331 -47 c 0
EndSplineSet
Validated: 1
EndChar

StartChar: three
Encoding: 51 51 184
Width: 1370
VWidth: 2057
Flags: W
HStem: -36 73<468.851 786.735> 1070 144<159 218.484> 1122 118<650.269 770.991> 1227 116<283.474 475.859>
VStem: 147 72<1070.91 1188.59> 1052 205<295.665 566.5>
LayerCount: 2
Fore
SplineSet
244 316 m 1xac
 273 139 464 37 670 37 c 0
 775 37 854 56 905 94 c 0
 992 166 1052 204 1052 343 c 0
 1052 432 1021 503 958 555 c 0
 895 611 825 664 741 690 c 2
 459 777 l 1
 455 788 451 798 451 808 c 0
 451 816 454 825 464 834 c 2
 668 1000 l 2
 707 1029 739 1056 762 1081 c 1
 768 1084 771 1090 771 1096 c 0
 771 1108 758 1122 746 1122 c 0
 740 1122 733 1122 727 1122 c 0xac
 576 1122 511 1186 401 1227 c 1
 374 1227 329 1215 266 1193 c 0
 242 1186 226 1170 226 1144 c 0
 226 1113 219 1093 219 1084 c 1
 208 1075 197 1070 189 1070 c 0
 163 1070 147 1105 147 1162 c 0
 147 1168 l 1
 147 1177 l 1
 149 1181 156 1188 159 1195 c 1
 159 1214 l 1
 169 1214 204 1251 222 1259 c 1
 291 1315 374 1343 468 1343 c 1xdc
 470 1344 473 1345 476 1345 c 0
 497 1345 540 1322 628 1292 c 0
 720 1258 788 1240 832 1240 c 0
 835 1240 837 1240 840 1240 c 0
 886 1240 1036 1263 1058 1263 c 1
 1058 1253 1056 1243 1045 1231 c 1
 954 1193 778 1023 695 933 c 1
 690 930 688 926 688 920 c 0
 688 909 698 893 710 893 c 0
 878 893 1064 815 1162 717 c 0
 1225 660 1257 599 1257 534 c 0
 1257 230 1089 50 756 -8 c 0
 704 -21 587 -36 404 -36 c 1
 137 -36 l 1
 172 72 189 227 235 318 c 1
 237 318 241 317 244 316 c 1xac
EndSplineSet
Validated: 1
EndChar

StartChar: four
Encoding: 52 52 185
Width: 1250
VWidth: 2057
Flags: W
HStem: 377 157<844.174 1051.18> 507 22<16 29.0563>
VStem: 669 139<659 980> 673 152<91.2787 391>
LayerCount: 2
Fore
SplineSet
646 1013 m 25x20
 330 678 l 17
 407 620 538 659 650 626 c 9
 669 659 l 17
 669 980 l 9
 646 1013 l 25x20
16 529 m 17x50
 295 673 544 1050 807 1330 c 9
 847 1308 l 17
 824 1101 808 901 808 714 c 0
 808 674 810 634 810 596 c 1
 854 576 907 534 965 534 c 0
 1004 534 1045 553 1086 614 c 1
 1088 614 1091 614 1093 614 c 0
 1143 614 1145 599 1164 589 c 1
 1114 456 1036 377 918 377 c 0xa0
 889 377 859 381 825 391 c 9
 825 130 l 17
 885 55 884 61 907 40 c 1
 912 35 916 30 916 24 c 0
 916 16 907 8 884 0 c 1
 818 0 760 -19 691 -19 c 0
 651 -19 607 -15 557 0 c 1
 540 3 530 11 530 20 c 0
 530 29 537 39 549 52 c 1
 588 73 642 79 673 145 c 9
 673 406 l 17
 487 464 295 507 78 507 c 0
 58 507 37 507 16 507 c 9
 16 529 l 17x50
EndSplineSet
Validated: 1
EndChar

StartChar: five
Encoding: 53 53 186
Width: 1347
VWidth: 2057
Flags: W
HStem: -74 71<490.778 798.266> 799 134<483.255 798.5> 1090 152<768.324 1007.15> 1152 154<399.353 695.422>
VStem: 211 44<774.159 1119> 989 186<239.159 653.5>
LayerCount: 2
Fore
SplineSet
206 1119 m 9xdc
 396 1272 l 17
 468 1284 509 1306 577 1306 c 0xdc
 582 1306 588 1305 593 1305 c 8
 744 1305 826 1266 974 1242 c 17
 998 1242 1019 1238 1039 1238 c 0
 1086 1238 1125 1246 1182 1268 c 9
 1172 1242 l 17
 1071 1172 998 1090 769 1090 c 9xec
 649 1114 582 1152 459 1152 c 24
 383 1152 342 1136 266 1127 c 17
 266 1055 255 987 255 920 c 0
 255 868 258 818 266 772 c 9
 432 835 475 933 680 933 c 1
 917 892 1131 781 1175 526 c 1
 1175 -5 860 -40 597 -74 c 1
 217 -74 l 1
 216 -72 213 -74 211 -74 c 0
 201 -74 183 -90 175 -90 c 0
 174 -90 173 -89 173 -86 c 0
 173 -82 174 -75 180 -63 c 1
 235 35 242 147 266 255 c 1
 332 125 458 -3 655 -3 c 0
 706 -3 763 8 825 27 c 1
 932 73 989 183 989 299 c 0
 989 340 981 382 967 422 c 1
 889 631 788 743 538 799 c 1
 371 799 330 714 202 668 c 1
 209 727 211 787 211 846 c 0
 211 937 206 1028 206 1119 c 9xdc
EndSplineSet
Validated: 1
EndChar

StartChar: six
Encoding: 54 54 187
Width: 1321
VWidth: 2057
Flags: W
HStem: 0 104<680.036 884.844> 616 110<634.014 956> 1195 111<585.63 815.298>
VStem: 166 202<406.852 803.644> 1019 201<276.32 453.334>
LayerCount: 2
Fore
SplineSet
1030 1133 m 9
 903 968 l 17
 878 1111 831 1167 713 1195 c 1
 603 1195 509 1156 478 1080 c 1
 413 966 368 860 368 698 c 0
 368 622 378 532 400 424 c 1
 494 223 669 104 911 104 c 0
 933 104 l 1
 989 126 1019 202 1019 284 c 0
 1019 375 985 472 914 517 c 1
 842 587 778 616 719 616 c 0
 612 616 526 522 449 413 c 1
 449 565 545 627 639 685 c 1
 713 713 787 726 854 726 c 0
 1058 726 1220 607 1220 395 c 1
 1173 147 870 0 695 0 c 1
 374 0 166 269 166 575 c 0
 166 606 168 638 172 670 c 1
 280 1153 562 1306 789 1306 c 0
 814 1306 838 1304 862 1300 c 1
 979 1261 994 1212 1030 1133 c 9
EndSplineSet
Validated: 1
EndChar

StartChar: seven
Encoding: 55 55 188
Width: 1243
VWidth: 2057
Flags: W
HStem: 0 21G<341.5 468.818> 1042 165<658.314 803.719> 1154 165<230.534 531.606>
VStem: 72 64<1035.31 1093.36> 273 232<72.0401 327.49>
LayerCount: 2
Fore
SplineSet
357 0 m 0xd8
 326 0 273 46 273 128 c 0
 273 144 275 163 278 182 c 1
 349 540 490 688 804 992 c 1
 812 1007 814 1017 814 1025 c 0
 814 1034 810 1037 804 1042 c 1
 798 1041 793 1042 786 1042 c 0xd8
 687 1042 471 1154 316 1154 c 0
 221 1154 136 1113 136 980 c 1
 124 997 72 1032 72 1074 c 0
 72 1083 72 1091 76 1099 c 1
 174 1271 265 1319 427 1319 c 1xb8
 606 1300 680 1207 882 1207 c 9
 1157 1207 l 17
 878 953 506 751 506 175 c 1
 505 164 505 154 505 146 c 0
 505 87 575 54 603 44 c 1
 502 44 357 0 357 0 c 0xd8
EndSplineSet
Validated: 1
EndChar

StartChar: eight
Encoding: 56 56 189
Width: 1367
VWidth: 2057
Flags: W
HStem: -6 103<535.585 825.362> 617 183<660.777 744.587> 1248 73<611.948 880>
VStem: 172 196<240.229 454.894> 244 246<827.5 1111.5> 945 290<247 596> 1001 190<904.458 1081.55>
LayerCount: 2
Fore
SplineSet
475 581 m 0xf4
 406 537 368 457 368 377 c 0
 368 319 388 262 430 219 c 1
 505 142 612 97 724 97 c 0
 789 97 855 112 919 145 c 1
 937 184 945 226 945 268 c 0
 945 347 914 429 855 488 c 1
 780 562 689 617 597 617 c 0
 556 617 515 606 475 581 c 0xf4
494 1036 m 1
 518 916 673 800 829 800 c 0
 868 800 908 807 945 823 c 1xec
 984 833 1001 884 1001 941 c 0
 1001 978 994 1016 979 1047 c 1
 925 1142 818 1234 713 1248 c 1
 611 1248 490 1159 490 1064 c 0xea
 490 1054 491 1045 494 1036 c 1
442 652 m 1
 371 746 244 742 244 913 c 1
 281 1141 560 1321 817 1321 c 0
 943 1321 1065 1277 1150 1174 c 1
 1170 1146 1191 1099 1191 1043 c 0xea
 1191 955 1141 846 956 749 c 1
 1049 678 1213 700 1235 492 c 1
 1235 175 990 51 636 0 c 1
 611 -3 579 -6 542 -6 c 0
 409 -6 226 26 184 168 c 1
 176 210 172 248 172 282 c 0xf4
 172 500 331 574 442 652 c 1
EndSplineSet
Validated: 1
EndChar

StartChar: nine
Encoding: 57 57 190
Width: 1280
VWidth: 2057
Flags: W
HStem: 0 113<514.425 728.755> 565 114<478.263 666.013> 1205 91<456.673 624.09>
VStem: 123 196<844.163 1000.22> 960 204<481.424 815.514>
LayerCount: 2
Fore
SplineSet
571 1296 m 1
 710 1296 970 1274 1111 991 c 1
 1143 918 1164 826 1164 726 c 0
 1164 478 1036 180 641 0 c 1
 434 0 349 60 298 163 c 9
 444 327 l 17
 444 232 475 159 578 119 c 1
 604 119 642 113 680 113 c 0
 719 113 759 119 786 144 c 1
 894 279 960 422 960 581 c 0
 960 622 957 664 947 707 c 1
 891 1005 641 1205 475 1205 c 0
 454 1205 435 1202 418 1195 c 1
 342 1153 319 1079 319 1010 c 0
 319 934 346 864 362 842 c 1
 447 723 526 679 600 679 c 0
 695 679 784 750 873 827 c 1
 860 750 738 600 522 565 c 1
 310 565 123 679 123 881 c 0
 123 892 123 904 123 916 c 1
 190 1085 338 1223 571 1296 c 1
EndSplineSet
Validated: 1
EndChar

StartChar: colon
Encoding: 58 58 191
Width: 652
VWidth: 2057
Flags: W
VStem: 104 448
LayerCount: 2
Fore
SplineSet
104 860 m 1
 200 1016 266 1044 356 1092 c 1
 398 1011 466 905 552 824 c 1
 462 768 384 698 296 604 c 1
 203 676 126 777 104 860 c 1
100 188 m 1
 196 344 262 372 352 420 c 1
 394 339 462 233 548 152 c 1
 458 96 380 26 292 -68 c 1
 199 4 122 105 100 188 c 1
EndSplineSet
Validated: 1
EndChar

StartChar: semicolon
Encoding: 59 59 192
Width: 650
VWidth: 2057
Flags: W
VStem: 215 319<-52.3516 235.122>
LayerCount: 2
Fore
SplineSet
195 337 m 9
 494 443 l 25
 534 119 l 17
 534 98 533 77 529 56 c 0
 492 -155 268 -267 100 -296 c 1
 157 -221 188 -140 203 -55 c 0
 211 -8 215 40 215 90 c 0
 215 171 206 254 195 337 c 9
102 860 m 1
 198 1016 264 1044 354 1092 c 1
 396 1011 464 905 550 824 c 1
 460 768 382 698 294 604 c 1
 201 676 124 777 102 860 c 1
EndSplineSet
Validated: 1
EndChar

StartChar: less
Encoding: 60 60 193
Width: 1014
VWidth: 2057
Flags: W
LayerCount: 2
Fore
SplineSet
100 823 m 25
 782 1342 l 25
 914 1157 l 25
 280 647 l 25
 896 163 l 25
 773 -22 l 25
 100 444 l 25
 100 823 l 25
EndSplineSet
Validated: 1
EndChar

StartChar: equal
Encoding: 61 61 194
Width: 1237
Flags: W
HStem: 340 196<100 1137> 778 197<100 1137>
LayerCount: 2
Fore
SplineSet
1137 778 m 1
 100 778 l 1
 100 975 l 1
 1137 975 l 1
 1137 778 l 1
1137 340 m 1
 100 340 l 1
 100 536 l 1
 1137 536 l 1
 1137 340 l 1
EndSplineSet
Validated: 1
EndChar

StartChar: greater
Encoding: 62 62 195
Width: 1014
VWidth: 2057
Flags: W
LayerCount: 2
Fore
SplineSet
914 823 m 25
 914 444 l 25
 241 -22 l 25
 118 163 l 25
 734 647 l 25
 100 1157 l 25
 232 1342 l 25
 914 823 l 25
EndSplineSet
Validated: 1
EndChar

StartChar: question
Encoding: 63 63 196
Width: 1138
VWidth: 2057
Flags: W
HStem: -110 21G<530 598> 1044 21G<102.5 126.069> 1404 188<361.5 762>
VStem: 472 190<500 654> 842 196<988.5 1322>
LayerCount: 2
Fore
SplineSet
421 82 m 5
 493 199 543 220 610 256 c 5
 641 195 693 116 757 55 c 5
 689 13 631 -39 565 -110 c 5
 495 -56 437 20 421 82 c 5
104 1044 m 21
 101 1057 100 1071 100 1084 c 4
 100 1216 221 1362 432 1520 c 5
 516 1572 565 1592 658 1592 c 31
 866 1592 1038 1426 1038 1218 c 21
 1038 966 836 829 662 698 c 13
 662 500 l 29
 472 310 l 29
 472 654 l 29
 652 852 l 29
 714 865 746 866 810 886 c 5
 831 914 830 960 842 1017 c 13
 842 1240 645 1404 422 1404 c 21
 301 1380 296 1310 296 1218 c 13
 104 1044 l 21
EndSplineSet
Validated: 1
EndChar

StartChar: at
Encoding: 64 64 197
Width: 1576
VWidth: 2356
Flags: W
HStem: -24 204<1033.24 1132.76> 0 142<469.327 670.918> 1259 79<550.09 858.572>
VStem: 83 147<617.622 936.861> 282 182<168.424 278.146> 1269 227<392.971 790.003>
LayerCount: 2
Fore
SplineSet
711 431 m 25x7c
 480 279 l 17
 472 261 464 229 464 202 c 0
 464 189 466 177 471 168 c 1
 485 148 512 142 542 142 c 0
 587 142 636 157 645 162 c 1
 711 195 782 239 782 303 c 0
 782 309 781 315 780 321 c 1
 749 381 711 431 711 431 c 25x7c
216 222 m 1
 154 329 83 453 83 771 c 1
 122 1108 426 1338 798 1338 c 1
 1102 1338 1496 1181 1496 647 c 1
 1496 290 1296 86 1106 0 c 1x7c
 1086 -17 1019 -24 1009 -24 c 0xbc
 992 -24 983 -9 970 0 c 9
 825 200 l 17
 761 133 697 46 633 24 c 1
 589 9 538 0 488 0 c 0x7c
 398 0 311 31 282 126 c 1
 281 130 282 136 282 144 c 0
 282 186 297 271 335 326 c 1
 400 420 552 473 664 545 c 1
 586 710 493 745 331 745 c 1
 402 777 512 883 614 883 c 0
 665 883 713 858 755 785 c 1
 859 583 908 363 1069 180 c 1
 1070 180 1071 180 1073 180 c 0xbc
 1137 180 1269 397 1269 620 c 1
 1245 836 1060 1217 731 1259 c 1
 421 1259 270 1050 241 871 c 1
 233 843 230 817 230 791 c 0
 230 695 280 669 326 653 c 1
 247 532 216 395 216 222 c 1
EndSplineSet
Validated: 1
EndChar

StartChar: A
Encoding: 65 65 198
Width: 1551
VWidth: 2640
Flags: W
HStem: 1241 334<614 816>
LayerCount: 2
Fore
SplineSet
762 1137 m 1
 725 1210 680 1241 630 1241 c 0
 598 1241 564 1228 528 1206 c 1
 546 1308 609 1575 726 1575 c 1
 906 1575 1165 787 1338 240 c 1
 1350 238 1362 237 1374 237 c 0
 1423 237 1464 256 1497 300 c 1
 1447 135 1356 7 1158 -27 c 1
 1047 84 908 650 801 1008 c 1
 622 828 447 571 447 165 c 1
 615 165 754 302 885 453 c 1
 899 437 904 414 904 388 c 0
 904 380 904 372 903 363 c 1
 867 297 618 -33 267 -33 c 1
 195 -33 84 23 84 78 c 0
 84 80 84 82 84 84 c 1
 251 582 462 802 762 1137 c 1
EndSplineSet
Validated: 1
EndChar

StartChar: B
Encoding: 66 66 199
Width: 1399
VWidth: 2640
Flags: W
HStem: -44 248<327 613.912> 904 146<863.841 1014.29> 1376 173<574.793 779>
VStem: 259 218<221.25 708.847 770 1276.54> 717 182<1134.21 1378.1> 1128 172<503.942 763.305>
LayerCount: 2
Fore
SplineSet
478 678 m 9
 478 294 l 17
 478 220 548 204 610 204 c 1
 774 204 1128 385 1128 534 c 3
 1128 705 1065 904 894 904 c 3
 750 904 554 726 478 678 c 9
477 770 m 17
 551 856 717 981 717 1158 c 27
 717 1258 675 1376 583 1376 c 1
 526 1376 477 1300 477 1266 c 9
 477 770 l 17
465 1412 m 17
 547 1490 609 1549 723 1549 c 27
 835 1549 899 1433 899 1321 c 27
 899 1152 813 1065 724 925 c 9
 834 974 886 1050 1006 1050 c 27
 1198 1050 1300 849 1300 656 c 1
 1300 354 750 -44 376 -44 c 1
 278 -44 259 -18 259 108 c 9
 259 1174 l 17
 259 1264 184 1310 111 1336 c 1
 224 1415 317 1536 393 1536 c 9
 465 1412 l 17
EndSplineSet
Validated: 1
EndChar

StartChar: C
Encoding: 67 67 200
Width: 1473
VWidth: 2640
Flags: W
HStem: 5 163<448.5 978.994> 1359 205<708.237 957.724>
VStem: 183 212<465.821 1016.35> 1001 290<1141.42 1313.45>
LayerCount: 2
Fore
SplineSet
1365 419 m 1
 1365 240 1114 5 661 5 c 1
 236 5 183 399 183 741 c 27
 183 1177 504 1564 940 1564 c 27
 1130 1564 1291 1418 1291 1228 c 27
 1291 1156 1221 1100 1157 1100 c 1
 1055 1100 1001 1166 1001 1266 c 1
 946 1352 886 1359 764 1359 c 0
 760 1359 l 0
 730 1359 619 1357 552 1277 c 0
 402 1097 395 957 395 754 c 0
 395 731 l 3
 395 390 569 168 852 168 c 27
 1075 168 1228 300 1365 419 c 1
EndSplineSet
Validated: 1
EndChar

StartChar: D
Encoding: 68 68 201
Width: 2071
VWidth: 2036
Flags: W
HStem: -24 144<803.411 1342.68> 1283 208<714.569 1297.62>
VStem: 420 228<286.596 1231.49> 1643 296<427.312 1031.91>
LayerCount: 2
Fore
SplineSet
768 1283 m 1
 652 1250 648 1119 648 1035 c 9
 648 564 l 17
 648 266 712 120 1037 120 c 1
 1429 120 1643 256 1643 676 c 1
 1643 1162 1596 1283 768 1283 c 1
220 1735 m 17
 322 1543 577 1491 1136 1491 c 1
 1642 1491 1939 1224 1939 752 c 1
 1939 132 1606 -24 897 -24 c 1
 681 -24 420 44 420 432 c 9
 420 1287 l 17
 135 1287 25 1416 -60 1536 c 9
 220 1735 l 17
EndSplineSet
Validated: 1
EndChar

StartChar: E
Encoding: 69 69 202
Width: 1575
VWidth: 2640
Flags: W
HStem: 0 178<637.042 947.98> 737 180<440.802 1081.16> 737 160<440.802 722.599 734.751 1230.48> 1368 192<702.777 990.429>
VStem: 188 232<413.828 686.543> 1024 308<1166.06 1330.61>
LayerCount: 2
Fore
SplineSet
432 897 m 9xbc
 547 897 612 917 728 917 c 27
 873 917 955 893 1100 893 c 27
 1274 893 1364 964 1532 1009 c 25
 1359 908 1289 749 1088 749 c 27
 941 749 859 737 712 737 c 27xdc
 597 737 534 708 420 689 c 17
 420 226 673 178 879 178 c 1
 967 178 1271 276 1407 434 c 1
 1327 232 1013 0 705 0 c 1
 223 0 188 351 188 664 c 1
 188 1146 446 1560 972 1560 c 1
 1182 1560 1332 1443 1332 1256 c 1
 1332 1198 1257 1108 1172 1108 c 27
 1088 1108 1036 1174 1024 1264 c 1
 1005 1365 884 1368 772 1368 c 1
 502 1368 432 1049 432 897 c 9xbc
EndSplineSet
Validated: 1
EndChar

StartChar: F
Encoding: 70 70 203
Width: 1608
VWidth: 2640
Flags: W
HStem: 636 137<685.416 1059.81> 1369 199<791.285 1150.28>
VStem: 263 240<125.851 574.197 661 1227.07> 1195 276<1185.16 1320.94>
LayerCount: 2
Fore
SplineSet
263 324 m 9
 263 1145 l 17
 263 1257 237 1349 123 1349 c 1
 253 1427 363 1532 429 1532 c 1
 497 1532 499 1411 519 1305 c 1
 646 1423 768 1568 981 1568 c 1
 1202 1568 1471 1488 1471 1273 c 1
 1451 1220 1447 1157 1325 1157 c 1
 1235 1157 1195 1219 1195 1301 c 1
 1128 1345 1023 1369 914 1369 c 0
 729 1369 533 1298 503 1131 c 9
 503 661 l 17
 679 742 836 773 982 773 c 0
 1144 773 1292 735 1435 685 c 9
 1127 545 l 17
 1055 612 967 636 873 636 c 0
 746 636 610 593 491 557 c 1
 491 -35 349 -368 119 -476 c 1
 257 -192 263 309 263 324 c 9
EndSplineSet
Validated: 1
EndChar

StartChar: G
Encoding: 71 71 204
Width: 1571
VWidth: 2640
Flags: W
HStem: -15 177<645.194 1014.03> 1351 203<697.471 977.621>
VStem: 183 228<431.207 958.7> 1020 309<1153.08 1305.13> 1221 193<260.32 423>
LayerCount: 2
Fore
SplineSet
1213 270 m 1xf0
 1218 283 1221 296 1221 307 c 0
 1221 374 1139 406 1090 420 c 1
 1171 502 1257 564 1354 591 c 1
 1397 533 1414 462 1414 384 c 0xe8
 1414 214 1334 6 1261 -198 c 1
 1155 -281 1047 -349 931 -372 c 1
 1063 -209 1147 -43 1189 126 c 1
 1067 52 1003 -15 700 -15 c 1
 304 -15 183 308 183 631 c 27
 183 1098 423 1554 948 1554 c 3
 1130 1554 1329 1463 1329 1280 c 27
 1329 1187 1273 1102 1170 1102 c 1
 1068 1102 1020 1194 1020 1280 c 1
 933 1345 882 1351 789 1351 c 1
 467 1351 411 1006 411 718 c 3
 411 349 562 162 862 162 c 1
 1080 162 1123 202 1213 270 c 1xf0
EndSplineSet
Validated: 1
EndChar

StartChar: H
Encoding: 72 72 205
Width: 1798
VWidth: 2035
Flags: W
HStem: -46 193<262.347 574.5> 1068 157<663.611 1037.67>
VStem: 270 221<151.965 939.871 1084 1375.32> 1411 276<393.322 726.573>
LayerCount: 2
Fore
SplineSet
72 1457 m 1
 177 1521 321 1607 405 1607 c 1
 497 1607 504 1480 504 1395 c 9
 504 1084 l 17
 600 1145 665 1225 935 1225 c 1
 1377 1225 1687 896 1687 604 c 1
 1687 268 1379 21 1151 -38 c 1
 1375 152 1411 331 1411 566 c 1
 1411 732 1221 1068 791 1068 c 1
 577 1068 491 902 491 821 c 9
 491 182 l 17
 511 156 538 147 561 147 c 0
 588 147 616 159 645 168 c 1
 513 22 459 -46 291 -46 c 1
 242 -41 227 -4 227 43 c 0
 227 118 270 223 270 278 c 9
 270 1231 l 17
 270 1377 166 1457 72 1457 c 1
EndSplineSet
Validated: 1
EndChar

StartChar: I
Encoding: 73 73 206
Width: 775
VWidth: 2640
Flags: W
HStem: 0 288<293.5 563.5>
VStem: 276 244<288.938 1237.6>
LayerCount: 2
Fore
SplineSet
80 1325 m 1
 174 1427 306 1549 424 1549 c 3
 511 1549 521 1450 521 1356 c 0
 521 1328 520 1300 520 1276 c 9
 520 352 l 17
 520 303 523 288 546 288 c 0
 581 288 634 323 675 328 c 1
 578 174 523 0 319 0 c 1
 268 0 257 86 257 188 c 0
 257 263 276 346 276 412 c 9
 276 1105 l 17
 276 1261 165 1290 80 1325 c 1
EndSplineSet
Validated: 1
EndChar

StartChar: J
Encoding: 74 74 207
Width: 747
VWidth: 2640
Flags: W
VStem: 314 253<21.1567 1181.96>
LayerCount: 2
Fore
SplineSet
59 1300 m 1
 198 1440 327 1549 451 1549 c 1
 543 1549 567 1414 567 1312 c 9
 567 495 l 17
 567 -20 455 -379 159 -534 c 1
 277 -240 314 94 314 476 c 9
 314 1021 l 17
 314 1199 186 1300 59 1300 c 1
EndSplineSet
Validated: 1
EndChar

StartChar: K
Encoding: 75 75 208
Width: 1980
VWidth: 2640
Flags: W
HStem: -18 191<273.481 590 1514.35 1728.8> 774 126<614 832.812>
VStem: 270 252<175.625 573 900 1330.12> 974 279<1061.68 1227.79>
LayerCount: 2
Fore
SplineSet
62 1411 m 1
 146 1489 306 1559 422 1559 c 1
 483 1559 522 1548 522 1383 c 9
 522 1195 522 1088 522 900 c 17
 531 900 541 900 550 900 c 0
 702 900 853 904 986 1060 c 9
 981 1096 974 1116 974 1152 c 27
 974 1222 1036 1275 1106 1275 c 27
 1198 1275 1253 1194 1253 1092 c 1
 1253 888 896 774 614 774 c 1
 909 572 1196 360 1526 207 c 1
 1612 173 1683 160 1748 160 c 0
 1822 160 1888 176 1961 198 c 1
 1846 46 1610 -18 1610 -18 c 17
 1426 -18 918 301 518 573 c 9
 518 204 l 17
 535 181 554 173 573 173 c 0
 607 173 643 198 677 198 c 1
 612 116 512 -18 305 -18 c 1
 250 -18 234 17 234 64 c 0
 234 131 270 223 270 279 c 9
 270 1185 l 17
 270 1342 175 1385 62 1411 c 1
EndSplineSet
Validated: 1
EndChar

